%TF.GenerationSoftware,KiCad,Pcbnew,7.0.6*%
%TF.CreationDate,2024-02-05T23:01:21+08:00*%
%TF.ProjectId,jlink_power,6a6c696e-6b5f-4706-9f77-65722e6b6963,rev?*%
%TF.SameCoordinates,Original*%
%TF.FileFunction,Soldermask,Top*%
%TF.FilePolarity,Negative*%
%FSLAX46Y46*%
G04 Gerber Fmt 4.6, Leading zero omitted, Abs format (unit mm)*
G04 Created by KiCad (PCBNEW 7.0.6) date 2024-02-05 23:01:21*
%MOMM*%
%LPD*%
G01*
G04 APERTURE LIST*
G04 Aperture macros list*
%AMRoundRect*
0 Rectangle with rounded corners*
0 $1 Rounding radius*
0 $2 $3 $4 $5 $6 $7 $8 $9 X,Y pos of 4 corners*
0 Add a 4 corners polygon primitive as box body*
4,1,4,$2,$3,$4,$5,$6,$7,$8,$9,$2,$3,0*
0 Add four circle primitives for the rounded corners*
1,1,$1+$1,$2,$3*
1,1,$1+$1,$4,$5*
1,1,$1+$1,$6,$7*
1,1,$1+$1,$8,$9*
0 Add four rect primitives between the rounded corners*
20,1,$1+$1,$2,$3,$4,$5,0*
20,1,$1+$1,$4,$5,$6,$7,0*
20,1,$1+$1,$6,$7,$8,$9,0*
20,1,$1+$1,$8,$9,$2,$3,0*%
G04 Aperture macros list end*
%ADD10C,0.200000*%
%ADD11O,1.700000X1.700000*%
%ADD12R,1.700000X1.700000*%
%ADD13C,1.000000*%
%ADD14RoundRect,0.160000X0.160000X-0.197500X0.160000X0.197500X-0.160000X0.197500X-0.160000X-0.197500X0*%
%ADD15RoundRect,0.237500X0.287500X0.237500X-0.287500X0.237500X-0.287500X-0.237500X0.287500X-0.237500X0*%
%ADD16C,1.700000*%
%ADD17RoundRect,0.250000X-0.600000X-0.600000X0.600000X-0.600000X0.600000X0.600000X-0.600000X0.600000X0*%
%ADD18C,2.100000*%
%ADD19C,1.308000*%
%ADD20R,1.600000X1.600000*%
%ADD21O,1.600000X1.600000*%
%ADD22R,2.000000X1.500000*%
%ADD23R,2.000000X3.800000*%
%ADD24RoundRect,0.160000X0.197500X0.160000X-0.197500X0.160000X-0.197500X-0.160000X0.197500X-0.160000X0*%
%ADD25RoundRect,0.160000X-0.197500X-0.160000X0.197500X-0.160000X0.197500X0.160000X-0.197500X0.160000X0*%
%ADD26RoundRect,0.250000X-0.400000X-1.075000X0.400000X-1.075000X0.400000X1.075000X-0.400000X1.075000X0*%
%ADD27RoundRect,0.250000X0.400000X1.075000X-0.400000X1.075000X-0.400000X-1.075000X0.400000X-1.075000X0*%
G04 APERTURE END LIST*
D10*
X54398625Y-96863695D02*
X54398625Y-97435123D01*
X54398625Y-97435123D02*
X54360530Y-97549409D01*
X54360530Y-97549409D02*
X54284339Y-97625600D01*
X54284339Y-97625600D02*
X54170054Y-97663695D01*
X54170054Y-97663695D02*
X54093863Y-97663695D01*
X55160530Y-97663695D02*
X54779578Y-97663695D01*
X54779578Y-97663695D02*
X54779578Y-96863695D01*
X55427197Y-97663695D02*
X55427197Y-96863695D01*
X55808149Y-97663695D02*
X55808149Y-96863695D01*
X55808149Y-96863695D02*
X56265292Y-97663695D01*
X56265292Y-97663695D02*
X56265292Y-96863695D01*
X56646244Y-97663695D02*
X56646244Y-96863695D01*
X57103387Y-97663695D02*
X56760529Y-97206552D01*
X57103387Y-96863695D02*
X56646244Y-97320838D01*
X58055768Y-97663695D02*
X58055768Y-96863695D01*
X58055768Y-96863695D02*
X58360530Y-96863695D01*
X58360530Y-96863695D02*
X58436720Y-96901790D01*
X58436720Y-96901790D02*
X58474815Y-96939885D01*
X58474815Y-96939885D02*
X58512911Y-97016076D01*
X58512911Y-97016076D02*
X58512911Y-97130361D01*
X58512911Y-97130361D02*
X58474815Y-97206552D01*
X58474815Y-97206552D02*
X58436720Y-97244647D01*
X58436720Y-97244647D02*
X58360530Y-97282742D01*
X58360530Y-97282742D02*
X58055768Y-97282742D01*
X59008149Y-96863695D02*
X59160530Y-96863695D01*
X59160530Y-96863695D02*
X59236720Y-96901790D01*
X59236720Y-96901790D02*
X59312911Y-96977980D01*
X59312911Y-96977980D02*
X59351006Y-97130361D01*
X59351006Y-97130361D02*
X59351006Y-97397028D01*
X59351006Y-97397028D02*
X59312911Y-97549409D01*
X59312911Y-97549409D02*
X59236720Y-97625600D01*
X59236720Y-97625600D02*
X59160530Y-97663695D01*
X59160530Y-97663695D02*
X59008149Y-97663695D01*
X59008149Y-97663695D02*
X58931958Y-97625600D01*
X58931958Y-97625600D02*
X58855768Y-97549409D01*
X58855768Y-97549409D02*
X58817672Y-97397028D01*
X58817672Y-97397028D02*
X58817672Y-97130361D01*
X58817672Y-97130361D02*
X58855768Y-96977980D01*
X58855768Y-96977980D02*
X58931958Y-96901790D01*
X58931958Y-96901790D02*
X59008149Y-96863695D01*
X59617672Y-96863695D02*
X59808148Y-97663695D01*
X59808148Y-97663695D02*
X59960529Y-97092266D01*
X59960529Y-97092266D02*
X60112910Y-97663695D01*
X60112910Y-97663695D02*
X60303387Y-96863695D01*
X60608149Y-97244647D02*
X60874815Y-97244647D01*
X60989101Y-97663695D02*
X60608149Y-97663695D01*
X60608149Y-97663695D02*
X60608149Y-96863695D01*
X60608149Y-96863695D02*
X60989101Y-96863695D01*
X61789102Y-97663695D02*
X61522435Y-97282742D01*
X61331959Y-97663695D02*
X61331959Y-96863695D01*
X61331959Y-96863695D02*
X61636721Y-96863695D01*
X61636721Y-96863695D02*
X61712911Y-96901790D01*
X61712911Y-96901790D02*
X61751006Y-96939885D01*
X61751006Y-96939885D02*
X61789102Y-97016076D01*
X61789102Y-97016076D02*
X61789102Y-97130361D01*
X61789102Y-97130361D02*
X61751006Y-97206552D01*
X61751006Y-97206552D02*
X61712911Y-97244647D01*
X61712911Y-97244647D02*
X61636721Y-97282742D01*
X61636721Y-97282742D02*
X61331959Y-97282742D01*
X54436720Y-98532647D02*
X54551006Y-98570742D01*
X54551006Y-98570742D02*
X54589101Y-98608838D01*
X54589101Y-98608838D02*
X54627197Y-98685028D01*
X54627197Y-98685028D02*
X54627197Y-98799314D01*
X54627197Y-98799314D02*
X54589101Y-98875504D01*
X54589101Y-98875504D02*
X54551006Y-98913600D01*
X54551006Y-98913600D02*
X54474816Y-98951695D01*
X54474816Y-98951695D02*
X54170054Y-98951695D01*
X54170054Y-98951695D02*
X54170054Y-98151695D01*
X54170054Y-98151695D02*
X54436720Y-98151695D01*
X54436720Y-98151695D02*
X54512911Y-98189790D01*
X54512911Y-98189790D02*
X54551006Y-98227885D01*
X54551006Y-98227885D02*
X54589101Y-98304076D01*
X54589101Y-98304076D02*
X54589101Y-98380266D01*
X54589101Y-98380266D02*
X54551006Y-98456457D01*
X54551006Y-98456457D02*
X54512911Y-98494552D01*
X54512911Y-98494552D02*
X54436720Y-98532647D01*
X54436720Y-98532647D02*
X54170054Y-98532647D01*
X55122435Y-98151695D02*
X55274816Y-98151695D01*
X55274816Y-98151695D02*
X55351006Y-98189790D01*
X55351006Y-98189790D02*
X55427197Y-98265980D01*
X55427197Y-98265980D02*
X55465292Y-98418361D01*
X55465292Y-98418361D02*
X55465292Y-98685028D01*
X55465292Y-98685028D02*
X55427197Y-98837409D01*
X55427197Y-98837409D02*
X55351006Y-98913600D01*
X55351006Y-98913600D02*
X55274816Y-98951695D01*
X55274816Y-98951695D02*
X55122435Y-98951695D01*
X55122435Y-98951695D02*
X55046244Y-98913600D01*
X55046244Y-98913600D02*
X54970054Y-98837409D01*
X54970054Y-98837409D02*
X54931958Y-98685028D01*
X54931958Y-98685028D02*
X54931958Y-98418361D01*
X54931958Y-98418361D02*
X54970054Y-98265980D01*
X54970054Y-98265980D02*
X55046244Y-98189790D01*
X55046244Y-98189790D02*
X55122435Y-98151695D01*
X55770053Y-98723123D02*
X56151006Y-98723123D01*
X55693863Y-98951695D02*
X55960530Y-98151695D01*
X55960530Y-98151695D02*
X56227196Y-98951695D01*
X56951006Y-98951695D02*
X56684339Y-98570742D01*
X56493863Y-98951695D02*
X56493863Y-98151695D01*
X56493863Y-98151695D02*
X56798625Y-98151695D01*
X56798625Y-98151695D02*
X56874815Y-98189790D01*
X56874815Y-98189790D02*
X56912910Y-98227885D01*
X56912910Y-98227885D02*
X56951006Y-98304076D01*
X56951006Y-98304076D02*
X56951006Y-98418361D01*
X56951006Y-98418361D02*
X56912910Y-98494552D01*
X56912910Y-98494552D02*
X56874815Y-98532647D01*
X56874815Y-98532647D02*
X56798625Y-98570742D01*
X56798625Y-98570742D02*
X56493863Y-98570742D01*
X57293863Y-98951695D02*
X57293863Y-98151695D01*
X57293863Y-98151695D02*
X57484339Y-98151695D01*
X57484339Y-98151695D02*
X57598625Y-98189790D01*
X57598625Y-98189790D02*
X57674815Y-98265980D01*
X57674815Y-98265980D02*
X57712910Y-98342171D01*
X57712910Y-98342171D02*
X57751006Y-98494552D01*
X57751006Y-98494552D02*
X57751006Y-98608838D01*
X57751006Y-98608838D02*
X57712910Y-98761219D01*
X57712910Y-98761219D02*
X57674815Y-98837409D01*
X57674815Y-98837409D02*
X57598625Y-98913600D01*
X57598625Y-98913600D02*
X57484339Y-98951695D01*
X57484339Y-98951695D02*
X57293863Y-98951695D01*
X58589101Y-98151695D02*
X58855768Y-98951695D01*
X58855768Y-98951695D02*
X59122434Y-98151695D01*
X59351005Y-98227885D02*
X59389101Y-98189790D01*
X59389101Y-98189790D02*
X59465291Y-98151695D01*
X59465291Y-98151695D02*
X59655767Y-98151695D01*
X59655767Y-98151695D02*
X59731958Y-98189790D01*
X59731958Y-98189790D02*
X59770053Y-98227885D01*
X59770053Y-98227885D02*
X59808148Y-98304076D01*
X59808148Y-98304076D02*
X59808148Y-98380266D01*
X59808148Y-98380266D02*
X59770053Y-98494552D01*
X59770053Y-98494552D02*
X59312910Y-98951695D01*
X59312910Y-98951695D02*
X59808148Y-98951695D01*
X60151006Y-98875504D02*
X60189101Y-98913600D01*
X60189101Y-98913600D02*
X60151006Y-98951695D01*
X60151006Y-98951695D02*
X60112910Y-98913600D01*
X60112910Y-98913600D02*
X60151006Y-98875504D01*
X60151006Y-98875504D02*
X60151006Y-98951695D01*
X60684339Y-98151695D02*
X60760529Y-98151695D01*
X60760529Y-98151695D02*
X60836720Y-98189790D01*
X60836720Y-98189790D02*
X60874815Y-98227885D01*
X60874815Y-98227885D02*
X60912910Y-98304076D01*
X60912910Y-98304076D02*
X60951005Y-98456457D01*
X60951005Y-98456457D02*
X60951005Y-98646933D01*
X60951005Y-98646933D02*
X60912910Y-98799314D01*
X60912910Y-98799314D02*
X60874815Y-98875504D01*
X60874815Y-98875504D02*
X60836720Y-98913600D01*
X60836720Y-98913600D02*
X60760529Y-98951695D01*
X60760529Y-98951695D02*
X60684339Y-98951695D01*
X60684339Y-98951695D02*
X60608148Y-98913600D01*
X60608148Y-98913600D02*
X60570053Y-98875504D01*
X60570053Y-98875504D02*
X60531958Y-98799314D01*
X60531958Y-98799314D02*
X60493862Y-98646933D01*
X60493862Y-98646933D02*
X60493862Y-98456457D01*
X60493862Y-98456457D02*
X60531958Y-98304076D01*
X60531958Y-98304076D02*
X60570053Y-98227885D01*
X60570053Y-98227885D02*
X60608148Y-98189790D01*
X60608148Y-98189790D02*
X60684339Y-98151695D01*
D11*
%TO.C,J4*%
X85359000Y-76835000D03*
X82819000Y-76835000D03*
D12*
X80279000Y-76835000D03*
%TD*%
D13*
%TO.C,GND*%
X66675000Y-83058000D03*
%TD*%
%TO.C,LDO*%
X66675000Y-85725000D03*
%TD*%
%TO.C,5V*%
X66675000Y-80772000D03*
%TD*%
D14*
%TO.C,R9*%
X63627000Y-77634500D03*
X63627000Y-78829500D03*
%TD*%
D15*
%TO.C,D2*%
X62710000Y-76327000D03*
X60960000Y-76327000D03*
%TD*%
%TO.C,D1*%
X62710000Y-74676000D03*
X60960000Y-74676000D03*
%TD*%
D14*
%TO.C,R8*%
X64643000Y-77634500D03*
X64643000Y-78829500D03*
%TD*%
D16*
%TO.C,J2*%
X91694000Y-94234000D03*
X89154000Y-94234000D03*
X91694000Y-91694000D03*
X89154000Y-91694000D03*
X91694000Y-89154000D03*
X89154000Y-89154000D03*
X91694000Y-86614000D03*
X89154000Y-86614000D03*
X91694000Y-84074000D03*
X89154000Y-84074000D03*
X91694000Y-81534000D03*
X89154000Y-81534000D03*
X91694000Y-78994000D03*
X89154000Y-78994000D03*
X91694000Y-76454000D03*
X89154000Y-76454000D03*
X91694000Y-73914000D03*
X89154000Y-73914000D03*
X91694000Y-71374000D03*
D17*
X89154000Y-71374000D03*
%TD*%
D18*
%TO.C,U1*%
X57350000Y-70485000D03*
X65650000Y-70485000D03*
D19*
X61500000Y-70485000D03*
X59500000Y-70485000D03*
X63500000Y-70485000D03*
%TD*%
D20*
%TO.C,SW2*%
X82804000Y-90678000D03*
D21*
X80264000Y-90678000D03*
X77724000Y-90678000D03*
X75184000Y-90678000D03*
X72644000Y-90678000D03*
X70104000Y-90678000D03*
X70104000Y-98298000D03*
X72644000Y-98298000D03*
X75184000Y-98298000D03*
X77724000Y-98298000D03*
X80264000Y-98298000D03*
X82804000Y-98298000D03*
%TD*%
D22*
%TO.C,U2*%
X64072500Y-86219000D03*
X64072500Y-88519000D03*
D23*
X57772500Y-88519000D03*
D22*
X64072500Y-90819000D03*
%TD*%
D24*
%TO.C,R7*%
X71209500Y-85217000D03*
X70014500Y-85217000D03*
%TD*%
D25*
%TO.C,R6*%
X71209500Y-86233000D03*
X70014500Y-86233000D03*
%TD*%
D24*
%TO.C,R5*%
X70014500Y-88265000D03*
X71209500Y-88265000D03*
%TD*%
%TO.C,R4*%
X71209500Y-87249000D03*
X70014500Y-87249000D03*
%TD*%
%TO.C,R3*%
X76110500Y-88265000D03*
X77305500Y-88265000D03*
%TD*%
%TO.C,R2*%
X76110500Y-87249000D03*
X77305500Y-87249000D03*
%TD*%
%TO.C,R1*%
X77305500Y-86233000D03*
X76110500Y-86233000D03*
%TD*%
D11*
%TO.C,J3*%
X76581000Y-76835000D03*
X74041000Y-76835000D03*
X71501000Y-76835000D03*
D12*
X68961000Y-76835000D03*
%TD*%
D25*
%TO.C,C4*%
X61595000Y-92710000D03*
X62790000Y-92710000D03*
%TD*%
D26*
%TO.C,C3*%
X64504500Y-94869000D03*
X61404500Y-94869000D03*
%TD*%
D24*
%TO.C,C2*%
X62140500Y-84328000D03*
X63335500Y-84328000D03*
%TD*%
D27*
%TO.C,C1*%
X60426000Y-82169000D03*
X63526000Y-82169000D03*
%TD*%
D12*
%TO.C,J1*%
X53848000Y-71354000D03*
D11*
X51308000Y-71354000D03*
X53848000Y-73894000D03*
X51308000Y-73894000D03*
X53848000Y-76434000D03*
X51308000Y-76434000D03*
X53848000Y-78974000D03*
X51308000Y-78974000D03*
X53848000Y-81514000D03*
X51308000Y-81514000D03*
X53848000Y-84054000D03*
X51308000Y-84054000D03*
X53848000Y-86594000D03*
X51308000Y-86594000D03*
X53848000Y-89134000D03*
X51308000Y-89134000D03*
X53848000Y-91674000D03*
X51308000Y-91674000D03*
X53848000Y-94214000D03*
X51308000Y-94214000D03*
%TD*%
M02*
