%TF.GenerationSoftware,KiCad,Pcbnew,7.0.6*%
%TF.CreationDate,2024-02-05T23:01:21+08:00*%
%TF.ProjectId,jlink_power,6a6c696e-6b5f-4706-9f77-65722e6b6963,rev?*%
%TF.SameCoordinates,Original*%
%TF.FileFunction,Soldermask,Bot*%
%TF.FilePolarity,Negative*%
%FSLAX46Y46*%
G04 Gerber Fmt 4.6, Leading zero omitted, Abs format (unit mm)*
G04 Created by KiCad (PCBNEW 7.0.6) date 2024-02-05 23:01:21*
%MOMM*%
%LPD*%
G01*
G04 APERTURE LIST*
G04 Aperture macros list*
%AMRoundRect*
0 Rectangle with rounded corners*
0 $1 Rounding radius*
0 $2 $3 $4 $5 $6 $7 $8 $9 X,Y pos of 4 corners*
0 Add a 4 corners polygon primitive as box body*
4,1,4,$2,$3,$4,$5,$6,$7,$8,$9,$2,$3,0*
0 Add four circle primitives for the rounded corners*
1,1,$1+$1,$2,$3*
1,1,$1+$1,$4,$5*
1,1,$1+$1,$6,$7*
1,1,$1+$1,$8,$9*
0 Add four rect primitives between the rounded corners*
20,1,$1+$1,$2,$3,$4,$5,0*
20,1,$1+$1,$4,$5,$6,$7,0*
20,1,$1+$1,$6,$7,$8,$9,0*
20,1,$1+$1,$8,$9,$2,$3,0*%
G04 Aperture macros list end*
%ADD10O,1.700000X1.700000*%
%ADD11R,1.700000X1.700000*%
%ADD12C,1.700000*%
%ADD13RoundRect,0.250000X-0.600000X-0.600000X0.600000X-0.600000X0.600000X0.600000X-0.600000X0.600000X0*%
%ADD14C,2.100000*%
%ADD15C,1.308000*%
%ADD16R,1.600000X1.600000*%
%ADD17O,1.600000X1.600000*%
G04 APERTURE END LIST*
D10*
%TO.C,J4*%
X85359000Y-76835000D03*
X82819000Y-76835000D03*
D11*
X80279000Y-76835000D03*
%TD*%
D12*
%TO.C,J2*%
X91694000Y-94234000D03*
X89154000Y-94234000D03*
X91694000Y-91694000D03*
X89154000Y-91694000D03*
X91694000Y-89154000D03*
X89154000Y-89154000D03*
X91694000Y-86614000D03*
X89154000Y-86614000D03*
X91694000Y-84074000D03*
X89154000Y-84074000D03*
X91694000Y-81534000D03*
X89154000Y-81534000D03*
X91694000Y-78994000D03*
X89154000Y-78994000D03*
X91694000Y-76454000D03*
X89154000Y-76454000D03*
X91694000Y-73914000D03*
X89154000Y-73914000D03*
X91694000Y-71374000D03*
D13*
X89154000Y-71374000D03*
%TD*%
D14*
%TO.C,U1*%
X57350000Y-70485000D03*
X65650000Y-70485000D03*
D15*
X61500000Y-70485000D03*
X59500000Y-70485000D03*
X63500000Y-70485000D03*
%TD*%
D16*
%TO.C,SW2*%
X82804000Y-90678000D03*
D17*
X80264000Y-90678000D03*
X77724000Y-90678000D03*
X75184000Y-90678000D03*
X72644000Y-90678000D03*
X70104000Y-90678000D03*
X70104000Y-98298000D03*
X72644000Y-98298000D03*
X75184000Y-98298000D03*
X77724000Y-98298000D03*
X80264000Y-98298000D03*
X82804000Y-98298000D03*
%TD*%
D10*
%TO.C,J3*%
X76581000Y-76835000D03*
X74041000Y-76835000D03*
X71501000Y-76835000D03*
D11*
X68961000Y-76835000D03*
%TD*%
%TO.C,J1*%
X53848000Y-71354000D03*
D10*
X51308000Y-71354000D03*
X53848000Y-73894000D03*
X51308000Y-73894000D03*
X53848000Y-76434000D03*
X51308000Y-76434000D03*
X53848000Y-78974000D03*
X51308000Y-78974000D03*
X53848000Y-81514000D03*
X51308000Y-81514000D03*
X53848000Y-84054000D03*
X51308000Y-84054000D03*
X53848000Y-86594000D03*
X51308000Y-86594000D03*
X53848000Y-89134000D03*
X51308000Y-89134000D03*
X53848000Y-91674000D03*
X51308000Y-91674000D03*
X53848000Y-94214000D03*
X51308000Y-94214000D03*
%TD*%
M02*
