%TF.GenerationSoftware,KiCad,Pcbnew,7.0.6*%
%TF.CreationDate,2024-02-05T23:01:20+08:00*%
%TF.ProjectId,jlink_power,6a6c696e-6b5f-4706-9f77-65722e6b6963,rev?*%
%TF.SameCoordinates,Original*%
%TF.FileFunction,Copper,L1,Top*%
%TF.FilePolarity,Positive*%
%FSLAX46Y46*%
G04 Gerber Fmt 4.6, Leading zero omitted, Abs format (unit mm)*
G04 Created by KiCad (PCBNEW 7.0.6) date 2024-02-05 23:01:20*
%MOMM*%
%LPD*%
G01*
G04 APERTURE LIST*
G04 Aperture macros list*
%AMRoundRect*
0 Rectangle with rounded corners*
0 $1 Rounding radius*
0 $2 $3 $4 $5 $6 $7 $8 $9 X,Y pos of 4 corners*
0 Add a 4 corners polygon primitive as box body*
4,1,4,$2,$3,$4,$5,$6,$7,$8,$9,$2,$3,0*
0 Add four circle primitives for the rounded corners*
1,1,$1+$1,$2,$3*
1,1,$1+$1,$4,$5*
1,1,$1+$1,$6,$7*
1,1,$1+$1,$8,$9*
0 Add four rect primitives between the rounded corners*
20,1,$1+$1,$2,$3,$4,$5,0*
20,1,$1+$1,$4,$5,$6,$7,0*
20,1,$1+$1,$6,$7,$8,$9,0*
20,1,$1+$1,$8,$9,$2,$3,0*%
G04 Aperture macros list end*
%TA.AperFunction,ComponentPad*%
%ADD10O,1.700000X1.700000*%
%TD*%
%TA.AperFunction,ComponentPad*%
%ADD11R,1.700000X1.700000*%
%TD*%
%TA.AperFunction,SMDPad,CuDef*%
%ADD12C,1.000000*%
%TD*%
%TA.AperFunction,SMDPad,CuDef*%
%ADD13RoundRect,0.160000X0.160000X-0.197500X0.160000X0.197500X-0.160000X0.197500X-0.160000X-0.197500X0*%
%TD*%
%TA.AperFunction,SMDPad,CuDef*%
%ADD14RoundRect,0.237500X0.287500X0.237500X-0.287500X0.237500X-0.287500X-0.237500X0.287500X-0.237500X0*%
%TD*%
%TA.AperFunction,ComponentPad*%
%ADD15C,1.700000*%
%TD*%
%TA.AperFunction,ComponentPad*%
%ADD16RoundRect,0.250000X-0.600000X-0.600000X0.600000X-0.600000X0.600000X0.600000X-0.600000X0.600000X0*%
%TD*%
%TA.AperFunction,ComponentPad*%
%ADD17C,2.100000*%
%TD*%
%TA.AperFunction,ComponentPad*%
%ADD18C,1.308000*%
%TD*%
%TA.AperFunction,ComponentPad*%
%ADD19R,1.600000X1.600000*%
%TD*%
%TA.AperFunction,ComponentPad*%
%ADD20O,1.600000X1.600000*%
%TD*%
%TA.AperFunction,SMDPad,CuDef*%
%ADD21R,2.000000X1.500000*%
%TD*%
%TA.AperFunction,SMDPad,CuDef*%
%ADD22R,2.000000X3.800000*%
%TD*%
%TA.AperFunction,SMDPad,CuDef*%
%ADD23RoundRect,0.160000X0.197500X0.160000X-0.197500X0.160000X-0.197500X-0.160000X0.197500X-0.160000X0*%
%TD*%
%TA.AperFunction,SMDPad,CuDef*%
%ADD24RoundRect,0.160000X-0.197500X-0.160000X0.197500X-0.160000X0.197500X0.160000X-0.197500X0.160000X0*%
%TD*%
%TA.AperFunction,SMDPad,CuDef*%
%ADD25RoundRect,0.250000X-0.400000X-1.075000X0.400000X-1.075000X0.400000X1.075000X-0.400000X1.075000X0*%
%TD*%
%TA.AperFunction,SMDPad,CuDef*%
%ADD26RoundRect,0.250000X0.400000X1.075000X-0.400000X1.075000X-0.400000X-1.075000X0.400000X-1.075000X0*%
%TD*%
%TA.AperFunction,ViaPad*%
%ADD27C,0.800000*%
%TD*%
%TA.AperFunction,Conductor*%
%ADD28C,0.342374*%
%TD*%
G04 APERTURE END LIST*
D10*
%TO.P,J4,3,Pin_3*%
%TO.N,/VTref*%
X85359000Y-76835000D03*
%TO.P,J4,2,Pin_2*%
%TO.N,/VCC*%
X82819000Y-76835000D03*
D11*
%TO.P,J4,1,Pin_1*%
%TO.N,unconnected-(J4-Pin_1-Pad1)*%
X80279000Y-76835000D03*
%TD*%
D12*
%TO.P,GND,1,1*%
%TO.N,GND*%
X66675000Y-83058000D03*
%TD*%
%TO.P,LDO,1,1*%
%TO.N,/LDO_OUT*%
X66675000Y-85725000D03*
%TD*%
%TO.P,5V,1,1*%
%TO.N,/5V_SW*%
X66675000Y-80772000D03*
%TD*%
D13*
%TO.P,R9,2*%
%TO.N,Net-(D2-K)*%
X63627000Y-77634500D03*
%TO.P,R9,1*%
%TO.N,GND*%
X63627000Y-78829500D03*
%TD*%
D14*
%TO.P,D2,1,K*%
%TO.N,Net-(D2-K)*%
X62710000Y-76327000D03*
%TO.P,D2,2,A*%
%TO.N,/5V*%
X60960000Y-76327000D03*
%TD*%
%TO.P,D1,1,K*%
%TO.N,Net-(D1-K)*%
X62710000Y-74676000D03*
%TO.P,D1,2,A*%
%TO.N,/5V_SW*%
X60960000Y-74676000D03*
%TD*%
D13*
%TO.P,R8,2*%
%TO.N,Net-(D1-K)*%
X64643000Y-77634500D03*
%TO.P,R8,1*%
%TO.N,GND*%
X64643000Y-78829500D03*
%TD*%
D15*
%TO.P,J2,20,Pin_20*%
%TO.N,GND*%
X91694000Y-94234000D03*
%TO.P,J2,19,Pin_19*%
%TO.N,/5V*%
X89154000Y-94234000D03*
%TO.P,J2,18,Pin_18*%
%TO.N,GND*%
X91694000Y-91694000D03*
%TO.P,J2,17,Pin_17*%
%TO.N,/DBGRQ*%
X89154000Y-91694000D03*
%TO.P,J2,16,Pin_16*%
%TO.N,GND*%
X91694000Y-89154000D03*
%TO.P,J2,15,Pin_15*%
%TO.N,/nSRST*%
X89154000Y-89154000D03*
%TO.P,J2,14,Pin_14*%
%TO.N,GND*%
X91694000Y-86614000D03*
%TO.P,J2,13,Pin_13*%
%TO.N,/TDO*%
X89154000Y-86614000D03*
%TO.P,J2,12,Pin_12*%
%TO.N,GND*%
X91694000Y-84074000D03*
%TO.P,J2,11,Pin_11*%
%TO.N,/RTCK*%
X89154000Y-84074000D03*
%TO.P,J2,10,Pin_10*%
%TO.N,GND*%
X91694000Y-81534000D03*
%TO.P,J2,9,Pin_9*%
%TO.N,/TCK*%
X89154000Y-81534000D03*
%TO.P,J2,8,Pin_8*%
%TO.N,GND*%
X91694000Y-78994000D03*
%TO.P,J2,7,Pin_7*%
%TO.N,/TMS*%
X89154000Y-78994000D03*
%TO.P,J2,6,Pin_6*%
%TO.N,GND*%
X91694000Y-76454000D03*
%TO.P,J2,5,Pin_5*%
%TO.N,/TDI*%
X89154000Y-76454000D03*
%TO.P,J2,4,Pin_4*%
%TO.N,GND*%
X91694000Y-73914000D03*
%TO.P,J2,3,Pin_3*%
%TO.N,/nTRST*%
X89154000Y-73914000D03*
%TO.P,J2,2,Pin_2*%
%TO.N,/VCC*%
X91694000Y-71374000D03*
D16*
%TO.P,J2,1,Pin_1*%
%TO.N,/VTref*%
X89154000Y-71374000D03*
%TD*%
D17*
%TO.P,U1,M2*%
%TO.N,N/C*%
X57350000Y-70485000D03*
%TO.P,U1,M1*%
X65650000Y-70485000D03*
D18*
%TO.P,U1,COM,COM*%
%TO.N,/5V_SW*%
X61500000Y-70485000D03*
%TO.P,U1,2,2*%
%TO.N,/5V*%
X59500000Y-70485000D03*
%TO.P,U1,1,1*%
%TO.N,unconnected-(U1-Pad1)*%
X63500000Y-70485000D03*
%TD*%
D19*
%TO.P,SW2,1*%
%TO.N,Net-(R1-Pad1)*%
X82804000Y-90678000D03*
D20*
%TO.P,SW2,2*%
%TO.N,Net-(R2-Pad1)*%
X80264000Y-90678000D03*
%TO.P,SW2,3*%
%TO.N,Net-(R3-Pad1)*%
X77724000Y-90678000D03*
%TO.P,SW2,4*%
%TO.N,Net-(R4-Pad1)*%
X75184000Y-90678000D03*
%TO.P,SW2,5*%
%TO.N,Net-(R5-Pad1)*%
X72644000Y-90678000D03*
%TO.P,SW2,6*%
%TO.N,/V_FB*%
X70104000Y-90678000D03*
%TO.P,SW2,7*%
%TO.N,/LDO_OUT*%
X70104000Y-98298000D03*
%TO.P,SW2,8*%
X72644000Y-98298000D03*
%TO.P,SW2,9*%
X75184000Y-98298000D03*
%TO.P,SW2,10*%
X77724000Y-98298000D03*
%TO.P,SW2,11*%
X80264000Y-98298000D03*
%TO.P,SW2,12*%
X82804000Y-98298000D03*
%TD*%
D21*
%TO.P,U2,3,VI*%
%TO.N,/5V_SW*%
X64072500Y-86219000D03*
%TO.P,U2,2,VO*%
%TO.N,/LDO_OUT*%
X64072500Y-88519000D03*
D22*
X57772500Y-88519000D03*
D21*
%TO.P,U2,1,ADJ*%
%TO.N,/V_FB*%
X64072500Y-90819000D03*
%TD*%
D23*
%TO.P,R7,1*%
%TO.N,GND*%
X71209500Y-85217000D03*
%TO.P,R7,2*%
%TO.N,/V_FB*%
X70014500Y-85217000D03*
%TD*%
D24*
%TO.P,R6,2*%
%TO.N,Net-(R1-Pad2)*%
X71209500Y-86233000D03*
%TO.P,R6,1*%
%TO.N,/V_FB*%
X70014500Y-86233000D03*
%TD*%
D23*
%TO.P,R5,2*%
%TO.N,/V_FB*%
X70014500Y-88265000D03*
%TO.P,R5,1*%
%TO.N,Net-(R5-Pad1)*%
X71209500Y-88265000D03*
%TD*%
%TO.P,R4,1*%
%TO.N,Net-(R4-Pad1)*%
X71209500Y-87249000D03*
%TO.P,R4,2*%
%TO.N,/V_FB*%
X70014500Y-87249000D03*
%TD*%
%TO.P,R3,2*%
%TO.N,Net-(R1-Pad2)*%
X76110500Y-88265000D03*
%TO.P,R3,1*%
%TO.N,Net-(R3-Pad1)*%
X77305500Y-88265000D03*
%TD*%
%TO.P,R2,2*%
%TO.N,Net-(R1-Pad2)*%
X76110500Y-87249000D03*
%TO.P,R2,1*%
%TO.N,Net-(R2-Pad1)*%
X77305500Y-87249000D03*
%TD*%
%TO.P,R1,1*%
%TO.N,Net-(R1-Pad1)*%
X77305500Y-86233000D03*
%TO.P,R1,2*%
%TO.N,Net-(R1-Pad2)*%
X76110500Y-86233000D03*
%TD*%
D10*
%TO.P,J3,4,Pin_4*%
%TO.N,unconnected-(J3-Pin_4-Pad4)*%
X76581000Y-76835000D03*
%TO.P,J3,3,Pin_3*%
%TO.N,/LDO_OUT*%
X74041000Y-76835000D03*
%TO.P,J3,2,Pin_2*%
%TO.N,/VCC*%
X71501000Y-76835000D03*
D11*
%TO.P,J3,1,Pin_1*%
%TO.N,/5V_SW*%
X68961000Y-76835000D03*
%TD*%
D24*
%TO.P,C4,1*%
%TO.N,/LDO_OUT*%
X61595000Y-92710000D03*
%TO.P,C4,2*%
%TO.N,GND*%
X62790000Y-92710000D03*
%TD*%
D25*
%TO.P,C3,2*%
%TO.N,GND*%
X64504500Y-94869000D03*
%TO.P,C3,1*%
%TO.N,/LDO_OUT*%
X61404500Y-94869000D03*
%TD*%
D23*
%TO.P,C2,2*%
%TO.N,GND*%
X62140500Y-84328000D03*
%TO.P,C2,1*%
%TO.N,/5V_SW*%
X63335500Y-84328000D03*
%TD*%
D26*
%TO.P,C1,2*%
%TO.N,GND*%
X60426000Y-82169000D03*
%TO.P,C1,1*%
%TO.N,/5V_SW*%
X63526000Y-82169000D03*
%TD*%
D11*
%TO.P,J1,1,Pin_1*%
%TO.N,/VTref*%
X53848000Y-71354000D03*
D10*
%TO.P,J1,2,Pin_2*%
%TO.N,/NC*%
X51308000Y-71354000D03*
%TO.P,J1,3,Pin_3*%
%TO.N,/nTRST*%
X53848000Y-73894000D03*
%TO.P,J1,4,Pin_4*%
%TO.N,GND*%
X51308000Y-73894000D03*
%TO.P,J1,5,Pin_5*%
%TO.N,/TDI*%
X53848000Y-76434000D03*
%TO.P,J1,6,Pin_6*%
%TO.N,GND*%
X51308000Y-76434000D03*
%TO.P,J1,7,Pin_7*%
%TO.N,/TMS*%
X53848000Y-78974000D03*
%TO.P,J1,8,Pin_8*%
%TO.N,GND*%
X51308000Y-78974000D03*
%TO.P,J1,9,Pin_9*%
%TO.N,/TCK*%
X53848000Y-81514000D03*
%TO.P,J1,10,Pin_10*%
%TO.N,GND*%
X51308000Y-81514000D03*
%TO.P,J1,11,Pin_11*%
%TO.N,/RTCK*%
X53848000Y-84054000D03*
%TO.P,J1,12,Pin_12*%
%TO.N,GND*%
X51308000Y-84054000D03*
%TO.P,J1,13,Pin_13*%
%TO.N,/TDO*%
X53848000Y-86594000D03*
%TO.P,J1,14,Pin_14*%
%TO.N,GND*%
X51308000Y-86594000D03*
%TO.P,J1,15,Pin_15*%
%TO.N,/nSRST*%
X53848000Y-89134000D03*
%TO.P,J1,16,Pin_16*%
%TO.N,GND*%
X51308000Y-89134000D03*
%TO.P,J1,17,Pin_17*%
%TO.N,/DBGRQ*%
X53848000Y-91674000D03*
%TO.P,J1,18,Pin_18*%
%TO.N,GND*%
X51308000Y-91674000D03*
%TO.P,J1,19,Pin_19*%
%TO.N,/5V*%
X53848000Y-94214000D03*
%TO.P,J1,20,Pin_20*%
%TO.N,GND*%
X51308000Y-94214000D03*
%TD*%
D27*
%TO.N,GND*%
X74168000Y-85217000D03*
X64516000Y-92710000D03*
X57023000Y-85344000D03*
X59055000Y-79121000D03*
X57277000Y-82804000D03*
%TD*%
D28*
%TO.N,Net-(R1-Pad2)*%
X75565000Y-88265000D02*
X76110500Y-88265000D01*
X73533000Y-86233000D02*
X75565000Y-88265000D01*
X71209500Y-86233000D02*
X73533000Y-86233000D01*
X75692000Y-87249000D02*
X76110500Y-87249000D01*
X74676000Y-86233000D02*
X75692000Y-87249000D01*
X71209500Y-86233000D02*
X74676000Y-86233000D01*
%TO.N,Net-(R4-Pad1)*%
X75184000Y-89281000D02*
X75184000Y-90678000D01*
X71209500Y-87249000D02*
X73152000Y-87249000D01*
X73152000Y-87249000D02*
X75184000Y-89281000D01*
%TO.N,/5V_SW*%
X64923000Y-80772000D02*
X63526000Y-82169000D01*
X66675000Y-80772000D02*
X64923000Y-80772000D01*
X66691000Y-79004000D02*
X63526000Y-82169000D01*
X66691000Y-75676000D02*
X66691000Y-79004000D01*
X66691000Y-75676000D02*
X61500000Y-70485000D01*
X67850000Y-76835000D02*
X66691000Y-75676000D01*
X61087000Y-70898000D02*
X61500000Y-70485000D01*
X61087000Y-74549000D02*
X61087000Y-70898000D01*
X60960000Y-74676000D02*
X61087000Y-74549000D01*
X68961000Y-76835000D02*
X67850000Y-76835000D01*
%TO.N,/LDO_OUT*%
X70104000Y-98298000D02*
X64262000Y-98298000D01*
X61595000Y-92710000D02*
X61595000Y-94678500D01*
X64262000Y-98298000D02*
X61404500Y-95440500D01*
X61595000Y-94678500D02*
X61404500Y-94869000D01*
X61404500Y-95440500D02*
X61404500Y-94869000D01*
X61595000Y-92583000D02*
X57772500Y-88760500D01*
X61595000Y-92710000D02*
X61595000Y-92583000D01*
X57772500Y-88760500D02*
X57772500Y-88519000D01*
%TO.N,/V_FB*%
X68326000Y-88265000D02*
X65772000Y-90819000D01*
X65772000Y-90819000D02*
X64072500Y-90819000D01*
X70014500Y-88265000D02*
X68326000Y-88265000D01*
%TO.N,/LDO_OUT*%
X66675000Y-87249000D02*
X65405000Y-88519000D01*
X67056000Y-85725000D02*
X66675000Y-85725000D01*
X65405000Y-88519000D02*
X64072500Y-88519000D01*
X74041000Y-78740000D02*
X67056000Y-85725000D01*
X66675000Y-85725000D02*
X66675000Y-87249000D01*
X74041000Y-76835000D02*
X74041000Y-78740000D01*
%TO.N,/VCC*%
X81407000Y-69342000D02*
X82819000Y-70754000D01*
X82819000Y-70754000D02*
X82819000Y-76835000D01*
X77724000Y-69342000D02*
X81407000Y-69342000D01*
X71501000Y-75565000D02*
X71501000Y-76835000D01*
X91694000Y-70231000D02*
X90805000Y-69342000D01*
X90805000Y-69342000D02*
X77724000Y-69342000D01*
X91694000Y-71374000D02*
X91694000Y-70231000D01*
X77724000Y-69342000D02*
X71501000Y-75565000D01*
%TO.N,GND*%
X63627000Y-78829500D02*
X64643000Y-78829500D01*
%TO.N,Net-(D2-K)*%
X63627000Y-76835000D02*
X63627000Y-77634500D01*
X63119000Y-76327000D02*
X63627000Y-76835000D01*
X62710000Y-76327000D02*
X63119000Y-76327000D01*
%TO.N,Net-(D1-K)*%
X63881000Y-74676000D02*
X64643000Y-75438000D01*
X62710000Y-74676000D02*
X63881000Y-74676000D01*
X64643000Y-75438000D02*
X64643000Y-77634500D01*
%TO.N,/5V*%
X60960000Y-76327000D02*
X56007000Y-76327000D01*
X56007000Y-76327000D02*
X55753000Y-76581000D01*
X55753000Y-75438000D02*
X55753000Y-76581000D01*
X55753000Y-76581000D02*
X55753000Y-92309000D01*
X55753000Y-92309000D02*
X53848000Y-94214000D01*
X59500000Y-71691000D02*
X55753000Y-75438000D01*
X59500000Y-70485000D02*
X59500000Y-71691000D01*
%TO.N,/VTref*%
X85359000Y-76835000D02*
X85359000Y-75169000D01*
X85359000Y-75169000D02*
X89154000Y-71374000D01*
%TO.N,/5V_SW*%
X63526000Y-84137500D02*
X63335500Y-84328000D01*
X63526000Y-82169000D02*
X63526000Y-84137500D01*
X63335500Y-84328000D02*
X63500000Y-84492500D01*
X63500000Y-84492500D02*
X63500000Y-85646500D01*
X63500000Y-85646500D02*
X64072500Y-86219000D01*
%TO.N,/V_FB*%
X70014500Y-87249000D02*
X70014500Y-88265000D01*
X70014500Y-86233000D02*
X70014500Y-87249000D01*
X70014500Y-85217000D02*
X70014500Y-86233000D01*
%TO.N,Net-(R1-Pad2)*%
X71209500Y-86233000D02*
X76110500Y-86233000D01*
%TO.N,Net-(R1-Pad1)*%
X82804000Y-87884000D02*
X82804000Y-90678000D01*
X81153000Y-86233000D02*
X82804000Y-87884000D01*
X77305500Y-86233000D02*
X81153000Y-86233000D01*
%TO.N,Net-(R5-Pad1)*%
X72644000Y-88900000D02*
X72644000Y-90678000D01*
X72009000Y-88265000D02*
X72644000Y-88900000D01*
%TO.N,/V_FB*%
X70104000Y-90678000D02*
X70104000Y-88354500D01*
X70104000Y-88354500D02*
X70014500Y-88265000D01*
%TO.N,Net-(R5-Pad1)*%
X71209500Y-88265000D02*
X72009000Y-88265000D01*
%TO.N,Net-(R3-Pad1)*%
X77724000Y-88683500D02*
X77724000Y-90678000D01*
X77305500Y-88265000D02*
X77724000Y-88683500D01*
%TO.N,Net-(R2-Pad1)*%
X80264000Y-88093250D02*
X80264000Y-90678000D01*
X79419750Y-87249000D02*
X80264000Y-88093250D01*
X77305500Y-87249000D02*
X79419750Y-87249000D01*
%TO.N,Net-(D2-K)*%
X62710000Y-76327000D02*
X62992000Y-76327000D01*
%TO.N,/LDO_OUT*%
X57772500Y-88519000D02*
X64072500Y-88519000D01*
X70104000Y-98298000D02*
X82804000Y-98298000D01*
%TD*%
%TA.AperFunction,Conductor*%
%TO.N,GND*%
G36*
X56577194Y-66358806D02*
G01*
X56595500Y-66403000D01*
X56595500Y-68148364D01*
X56593114Y-68165467D01*
X56591598Y-68170793D01*
X56592925Y-68185108D01*
X56595367Y-68211464D01*
X56595500Y-68214333D01*
X56595500Y-68226846D01*
X56597797Y-68239138D01*
X56598196Y-68241996D01*
X56601964Y-68282657D01*
X56601966Y-68282663D01*
X56604435Y-68287623D01*
X56609920Y-68303986D01*
X56610938Y-68309431D01*
X56610940Y-68309435D01*
X56632434Y-68344150D01*
X56633837Y-68346668D01*
X56635442Y-68349890D01*
X56642000Y-68377760D01*
X56642000Y-68453000D01*
X56708114Y-68453000D01*
X56730695Y-68457222D01*
X56740234Y-68460918D01*
X56755315Y-68469318D01*
X56757718Y-68471132D01*
X56759736Y-68472656D01*
X56799026Y-68483834D01*
X56801717Y-68484735D01*
X56827520Y-68494732D01*
X56839825Y-68499500D01*
X56839827Y-68499500D01*
X56845365Y-68499500D01*
X56862467Y-68501885D01*
X56867793Y-68503401D01*
X56908464Y-68499632D01*
X56911334Y-68499500D01*
X65989365Y-68499500D01*
X66006467Y-68501885D01*
X66011793Y-68503401D01*
X66052464Y-68499632D01*
X66055334Y-68499500D01*
X66067842Y-68499500D01*
X66067844Y-68499500D01*
X66080138Y-68497201D01*
X66082985Y-68496803D01*
X66123660Y-68493035D01*
X66128618Y-68490565D01*
X66144993Y-68485078D01*
X66146768Y-68484746D01*
X66150433Y-68484061D01*
X66185168Y-68462552D01*
X66187654Y-68461168D01*
X66190913Y-68459545D01*
X66218758Y-68453000D01*
X66294000Y-68453000D01*
X66294000Y-68386887D01*
X66298218Y-68364315D01*
X66299914Y-68359934D01*
X66299916Y-68359933D01*
X66301917Y-68354765D01*
X66310318Y-68339683D01*
X66313656Y-68335264D01*
X66324830Y-68295986D01*
X66325746Y-68293255D01*
X66327928Y-68287623D01*
X66340500Y-68255173D01*
X66340500Y-68249636D01*
X66342886Y-68232532D01*
X66344401Y-68227206D01*
X66343074Y-68212891D01*
X66340632Y-68186535D01*
X66340500Y-68183666D01*
X66340500Y-66403000D01*
X66358806Y-66358806D01*
X66403000Y-66340500D01*
X102126000Y-66340500D01*
X102170194Y-66358806D01*
X102188500Y-66403000D01*
X102188500Y-99205000D01*
X102170194Y-99249194D01*
X102126000Y-99267500D01*
X83362123Y-99267500D01*
X83317929Y-99249194D01*
X83299623Y-99205000D01*
X83317929Y-99160806D01*
X83332661Y-99149880D01*
X83362532Y-99133913D01*
X83362538Y-99133910D01*
X83514883Y-99008883D01*
X83639910Y-98856538D01*
X83732814Y-98682727D01*
X83790024Y-98494132D01*
X83809341Y-98298000D01*
X83790024Y-98101868D01*
X83732814Y-97913273D01*
X83639910Y-97739462D01*
X83514883Y-97587117D01*
X83362538Y-97462090D01*
X83362532Y-97462086D01*
X83253018Y-97403550D01*
X83188727Y-97369186D01*
X83068184Y-97332619D01*
X83000130Y-97311975D01*
X82804000Y-97292659D01*
X82607869Y-97311975D01*
X82487325Y-97348542D01*
X82419273Y-97369186D01*
X82419271Y-97369186D01*
X82419271Y-97369187D01*
X82245467Y-97462086D01*
X82245461Y-97462090D01*
X82093117Y-97587117D01*
X81968090Y-97739461D01*
X81968086Y-97739467D01*
X81885875Y-97893275D01*
X81848898Y-97923622D01*
X81830755Y-97926313D01*
X81237245Y-97926313D01*
X81193051Y-97908007D01*
X81182125Y-97893275D01*
X81099913Y-97739467D01*
X81099909Y-97739461D01*
X80974883Y-97587117D01*
X80822538Y-97462090D01*
X80822532Y-97462086D01*
X80713018Y-97403550D01*
X80648727Y-97369186D01*
X80528184Y-97332619D01*
X80460130Y-97311975D01*
X80264000Y-97292659D01*
X80067869Y-97311975D01*
X79947325Y-97348542D01*
X79879273Y-97369186D01*
X79879271Y-97369186D01*
X79879271Y-97369187D01*
X79705467Y-97462086D01*
X79705461Y-97462090D01*
X79553117Y-97587117D01*
X79428090Y-97739461D01*
X79428086Y-97739467D01*
X79345875Y-97893275D01*
X79308898Y-97923622D01*
X79290755Y-97926313D01*
X78697245Y-97926313D01*
X78653051Y-97908007D01*
X78642125Y-97893275D01*
X78559913Y-97739467D01*
X78559909Y-97739461D01*
X78434883Y-97587117D01*
X78282538Y-97462090D01*
X78282532Y-97462086D01*
X78173018Y-97403550D01*
X78108727Y-97369186D01*
X77988184Y-97332619D01*
X77920130Y-97311975D01*
X77724000Y-97292659D01*
X77527869Y-97311975D01*
X77407325Y-97348542D01*
X77339273Y-97369186D01*
X77339271Y-97369186D01*
X77339271Y-97369187D01*
X77165467Y-97462086D01*
X77165461Y-97462090D01*
X77013117Y-97587117D01*
X76888090Y-97739461D01*
X76888086Y-97739467D01*
X76805875Y-97893275D01*
X76768898Y-97923622D01*
X76750755Y-97926313D01*
X76157245Y-97926313D01*
X76113051Y-97908007D01*
X76102125Y-97893275D01*
X76019913Y-97739467D01*
X76019909Y-97739461D01*
X75894883Y-97587117D01*
X75742538Y-97462090D01*
X75742532Y-97462086D01*
X75633018Y-97403550D01*
X75568727Y-97369186D01*
X75448184Y-97332619D01*
X75380130Y-97311975D01*
X75184000Y-97292659D01*
X74987869Y-97311975D01*
X74867325Y-97348542D01*
X74799273Y-97369186D01*
X74799271Y-97369186D01*
X74799271Y-97369187D01*
X74625467Y-97462086D01*
X74625461Y-97462090D01*
X74473117Y-97587117D01*
X74348090Y-97739461D01*
X74348086Y-97739467D01*
X74265875Y-97893275D01*
X74228898Y-97923622D01*
X74210755Y-97926313D01*
X73617245Y-97926313D01*
X73573051Y-97908007D01*
X73562125Y-97893275D01*
X73479913Y-97739467D01*
X73479909Y-97739461D01*
X73354883Y-97587117D01*
X73202538Y-97462090D01*
X73202532Y-97462086D01*
X73093018Y-97403550D01*
X73028727Y-97369186D01*
X72908184Y-97332619D01*
X72840130Y-97311975D01*
X72644000Y-97292659D01*
X72447869Y-97311975D01*
X72327325Y-97348542D01*
X72259273Y-97369186D01*
X72259271Y-97369186D01*
X72259271Y-97369187D01*
X72085467Y-97462086D01*
X72085461Y-97462090D01*
X71933117Y-97587117D01*
X71808090Y-97739461D01*
X71808086Y-97739467D01*
X71725875Y-97893275D01*
X71688898Y-97923622D01*
X71670755Y-97926313D01*
X71077245Y-97926313D01*
X71033051Y-97908007D01*
X71022125Y-97893275D01*
X70939913Y-97739467D01*
X70939909Y-97739461D01*
X70814883Y-97587117D01*
X70662538Y-97462090D01*
X70662532Y-97462086D01*
X70553018Y-97403550D01*
X70488727Y-97369186D01*
X70368184Y-97332619D01*
X70300130Y-97311975D01*
X70104000Y-97292659D01*
X69907869Y-97311975D01*
X69787325Y-97348542D01*
X69719273Y-97369186D01*
X69719271Y-97369186D01*
X69719271Y-97369187D01*
X69545467Y-97462086D01*
X69545461Y-97462090D01*
X69393117Y-97587117D01*
X69268090Y-97739461D01*
X69268086Y-97739467D01*
X69185875Y-97893275D01*
X69148898Y-97923622D01*
X69130755Y-97926313D01*
X64441846Y-97926313D01*
X64397652Y-97908007D01*
X62273306Y-95783660D01*
X62255000Y-95739466D01*
X62255000Y-95119000D01*
X63354501Y-95119000D01*
X63354501Y-95993987D01*
X63364992Y-96096687D01*
X63364993Y-96096694D01*
X63420141Y-96263121D01*
X63512182Y-96412343D01*
X63636156Y-96536317D01*
X63785378Y-96628358D01*
X63951808Y-96683507D01*
X64054518Y-96693999D01*
X64254499Y-96693999D01*
X64254500Y-96693998D01*
X64254500Y-95119000D01*
X64754500Y-95119000D01*
X64754500Y-96693999D01*
X64954476Y-96693999D01*
X64954487Y-96693998D01*
X65057187Y-96683507D01*
X65057194Y-96683506D01*
X65223621Y-96628358D01*
X65372843Y-96536317D01*
X65496817Y-96412343D01*
X65588858Y-96263121D01*
X65644007Y-96096691D01*
X65654499Y-95993986D01*
X65654500Y-95993977D01*
X65654500Y-95119000D01*
X64754500Y-95119000D01*
X64254500Y-95119000D01*
X63354501Y-95119000D01*
X62255000Y-95119000D01*
X62255000Y-93739737D01*
X62252586Y-93714000D01*
X62252146Y-93709301D01*
X62207293Y-93581118D01*
X62169566Y-93530000D01*
X62164368Y-93522956D01*
X62152853Y-93476527D01*
X62177541Y-93435555D01*
X62223970Y-93424040D01*
X62246989Y-93432356D01*
X62319637Y-93476273D01*
X62472653Y-93523955D01*
X62539163Y-93530000D01*
X62540000Y-93530000D01*
X62540000Y-92960000D01*
X63040000Y-92960000D01*
X63040000Y-93530000D01*
X63040837Y-93530000D01*
X63107346Y-93523955D01*
X63260362Y-93476273D01*
X63314655Y-93443452D01*
X63361946Y-93436254D01*
X63400475Y-93464604D01*
X63407673Y-93511895D01*
X63406317Y-93516597D01*
X63364992Y-93641308D01*
X63354500Y-93744013D01*
X63354500Y-94619000D01*
X64254500Y-94619000D01*
X64254500Y-93044000D01*
X64754500Y-93044000D01*
X64754500Y-94619000D01*
X65654499Y-94619000D01*
X65654499Y-94234000D01*
X88098417Y-94234000D01*
X88118699Y-94439930D01*
X88118700Y-94439935D01*
X88178766Y-94637949D01*
X88178768Y-94637954D01*
X88276311Y-94820444D01*
X88276319Y-94820455D01*
X88407588Y-94980408D01*
X88407591Y-94980411D01*
X88519951Y-95072622D01*
X88567550Y-95111685D01*
X88567553Y-95111686D01*
X88567555Y-95111688D01*
X88581235Y-95119000D01*
X88750046Y-95209232D01*
X88948066Y-95269300D01*
X89154000Y-95289583D01*
X89359934Y-95269300D01*
X89557954Y-95209232D01*
X89740450Y-95111685D01*
X89900410Y-94980410D01*
X90031685Y-94820450D01*
X90129232Y-94637954D01*
X90189300Y-94439934D01*
X90209583Y-94234002D01*
X90338843Y-94234002D01*
X90359430Y-94469317D01*
X90359433Y-94469333D01*
X90420567Y-94697487D01*
X90420568Y-94697489D01*
X90520399Y-94911578D01*
X90579072Y-94995372D01*
X90579072Y-94995373D01*
X91210922Y-94363522D01*
X91234507Y-94443844D01*
X91312239Y-94564798D01*
X91420900Y-94658952D01*
X91551685Y-94718680D01*
X91561466Y-94720086D01*
X90932625Y-95348926D01*
X91016422Y-95407600D01*
X91016420Y-95407600D01*
X91230510Y-95507431D01*
X91230512Y-95507432D01*
X91458666Y-95568566D01*
X91458682Y-95568569D01*
X91693998Y-95589157D01*
X91694002Y-95589157D01*
X91929317Y-95568569D01*
X91929333Y-95568566D01*
X92157487Y-95507432D01*
X92157489Y-95507431D01*
X92371575Y-95407601D01*
X92455372Y-95348925D01*
X91826533Y-94720086D01*
X91836315Y-94718680D01*
X91967100Y-94658952D01*
X92075761Y-94564798D01*
X92153493Y-94443844D01*
X92177076Y-94363523D01*
X92808925Y-94995372D01*
X92867601Y-94911575D01*
X92967431Y-94697489D01*
X92967432Y-94697487D01*
X93028566Y-94469333D01*
X93028569Y-94469317D01*
X93049157Y-94234002D01*
X93049157Y-94233997D01*
X93028569Y-93998682D01*
X93028566Y-93998666D01*
X92967432Y-93770512D01*
X92967431Y-93770510D01*
X92867600Y-93556422D01*
X92808926Y-93472625D01*
X92177076Y-94104475D01*
X92153493Y-94024156D01*
X92075761Y-93903202D01*
X91967100Y-93809048D01*
X91836315Y-93749320D01*
X91826531Y-93747913D01*
X92455373Y-93119072D01*
X92371577Y-93060399D01*
X92371575Y-93060397D01*
X92286322Y-93020644D01*
X92254004Y-92985377D01*
X92256091Y-92937587D01*
X92286322Y-92907356D01*
X92371573Y-92867603D01*
X92455373Y-92808925D01*
X91826533Y-92180086D01*
X91836315Y-92178680D01*
X91967100Y-92118952D01*
X92075761Y-92024798D01*
X92153493Y-91903844D01*
X92177076Y-91823523D01*
X92808925Y-92455372D01*
X92867601Y-92371575D01*
X92967431Y-92157489D01*
X92967432Y-92157487D01*
X93028566Y-91929333D01*
X93028569Y-91929317D01*
X93049157Y-91694002D01*
X93049157Y-91693997D01*
X93028569Y-91458682D01*
X93028566Y-91458666D01*
X92967432Y-91230512D01*
X92967431Y-91230510D01*
X92867600Y-91016422D01*
X92808926Y-90932625D01*
X92177076Y-91564475D01*
X92153493Y-91484156D01*
X92075761Y-91363202D01*
X91967100Y-91269048D01*
X91836315Y-91209320D01*
X91826531Y-91207913D01*
X92455373Y-90579072D01*
X92371577Y-90520399D01*
X92371575Y-90520397D01*
X92286322Y-90480644D01*
X92254004Y-90445377D01*
X92256091Y-90397587D01*
X92286322Y-90367356D01*
X92371573Y-90327603D01*
X92455372Y-90268925D01*
X91826533Y-89640086D01*
X91836315Y-89638680D01*
X91967100Y-89578952D01*
X92075761Y-89484798D01*
X92153493Y-89363844D01*
X92177076Y-89283523D01*
X92808925Y-89915372D01*
X92867601Y-89831575D01*
X92967431Y-89617489D01*
X92967432Y-89617487D01*
X93028566Y-89389333D01*
X93028569Y-89389317D01*
X93049157Y-89154002D01*
X93049157Y-89153997D01*
X93028569Y-88918682D01*
X93028566Y-88918666D01*
X92967432Y-88690512D01*
X92967431Y-88690510D01*
X92867600Y-88476422D01*
X92808926Y-88392625D01*
X92177076Y-89024475D01*
X92153493Y-88944156D01*
X92075761Y-88823202D01*
X91967100Y-88729048D01*
X91836315Y-88669320D01*
X91826531Y-88667913D01*
X92455373Y-88039072D01*
X92371577Y-87980399D01*
X92371575Y-87980397D01*
X92286322Y-87940644D01*
X92254004Y-87905377D01*
X92256091Y-87857587D01*
X92286322Y-87827356D01*
X92371573Y-87787603D01*
X92455372Y-87728925D01*
X91826533Y-87100086D01*
X91836315Y-87098680D01*
X91967100Y-87038952D01*
X92075761Y-86944798D01*
X92153493Y-86823844D01*
X92177076Y-86743523D01*
X92808925Y-87375372D01*
X92867601Y-87291575D01*
X92967431Y-87077489D01*
X92967432Y-87077487D01*
X93028566Y-86849333D01*
X93028569Y-86849317D01*
X93049157Y-86614002D01*
X93049157Y-86613997D01*
X93028569Y-86378682D01*
X93028566Y-86378666D01*
X92967432Y-86150512D01*
X92967431Y-86150510D01*
X92867600Y-85936422D01*
X92808926Y-85852625D01*
X92177076Y-86484475D01*
X92153493Y-86404156D01*
X92075761Y-86283202D01*
X91967100Y-86189048D01*
X91836315Y-86129320D01*
X91826531Y-86127913D01*
X92455373Y-85499072D01*
X92371577Y-85440399D01*
X92371575Y-85440397D01*
X92286322Y-85400644D01*
X92254004Y-85365377D01*
X92256091Y-85317587D01*
X92286322Y-85287356D01*
X92371573Y-85247603D01*
X92455372Y-85188925D01*
X91826533Y-84560086D01*
X91836315Y-84558680D01*
X91967100Y-84498952D01*
X92075761Y-84404798D01*
X92153493Y-84283844D01*
X92177076Y-84203523D01*
X92808925Y-84835372D01*
X92867601Y-84751575D01*
X92967431Y-84537489D01*
X92967432Y-84537487D01*
X93028566Y-84309333D01*
X93028569Y-84309317D01*
X93049157Y-84074002D01*
X93049157Y-84073997D01*
X93028569Y-83838682D01*
X93028566Y-83838666D01*
X92967432Y-83610512D01*
X92967431Y-83610510D01*
X92867600Y-83396422D01*
X92808926Y-83312625D01*
X92177076Y-83944475D01*
X92153493Y-83864156D01*
X92075761Y-83743202D01*
X91967100Y-83649048D01*
X91836315Y-83589320D01*
X91826531Y-83587913D01*
X92455373Y-82959072D01*
X92371577Y-82900399D01*
X92371575Y-82900397D01*
X92286322Y-82860644D01*
X92254004Y-82825377D01*
X92256091Y-82777587D01*
X92286322Y-82747356D01*
X92371573Y-82707603D01*
X92455372Y-82648925D01*
X91826533Y-82020086D01*
X91836315Y-82018680D01*
X91967100Y-81958952D01*
X92075761Y-81864798D01*
X92153493Y-81743844D01*
X92177076Y-81663523D01*
X92808925Y-82295372D01*
X92867601Y-82211575D01*
X92967431Y-81997489D01*
X92967432Y-81997487D01*
X93028566Y-81769333D01*
X93028569Y-81769317D01*
X93049157Y-81534002D01*
X93049157Y-81533997D01*
X93028569Y-81298682D01*
X93028566Y-81298666D01*
X92967432Y-81070512D01*
X92967431Y-81070510D01*
X92867600Y-80856422D01*
X92808926Y-80772625D01*
X92177076Y-81404475D01*
X92153493Y-81324156D01*
X92075761Y-81203202D01*
X91967100Y-81109048D01*
X91836315Y-81049320D01*
X91826531Y-81047913D01*
X92455373Y-80419072D01*
X92371577Y-80360399D01*
X92371575Y-80360397D01*
X92286322Y-80320644D01*
X92254004Y-80285377D01*
X92256091Y-80237587D01*
X92286322Y-80207356D01*
X92371573Y-80167603D01*
X92455372Y-80108925D01*
X91826533Y-79480086D01*
X91836315Y-79478680D01*
X91967100Y-79418952D01*
X92075761Y-79324798D01*
X92153493Y-79203844D01*
X92177076Y-79123523D01*
X92808925Y-79755372D01*
X92867601Y-79671575D01*
X92967431Y-79457489D01*
X92967432Y-79457487D01*
X93028566Y-79229333D01*
X93028569Y-79229317D01*
X93049157Y-78994002D01*
X93049157Y-78993997D01*
X93028569Y-78758682D01*
X93028566Y-78758666D01*
X92967432Y-78530512D01*
X92967431Y-78530510D01*
X92867600Y-78316422D01*
X92808926Y-78232625D01*
X92177076Y-78864475D01*
X92153493Y-78784156D01*
X92075761Y-78663202D01*
X91967100Y-78569048D01*
X91836315Y-78509320D01*
X91826531Y-78507913D01*
X92455373Y-77879072D01*
X92371577Y-77820399D01*
X92371575Y-77820397D01*
X92286322Y-77780644D01*
X92254004Y-77745377D01*
X92256091Y-77697587D01*
X92286322Y-77667356D01*
X92371573Y-77627603D01*
X92455372Y-77568925D01*
X91826533Y-76940086D01*
X91836315Y-76938680D01*
X91967100Y-76878952D01*
X92075761Y-76784798D01*
X92153493Y-76663844D01*
X92177076Y-76583523D01*
X92808925Y-77215372D01*
X92867601Y-77131575D01*
X92967431Y-76917489D01*
X92967432Y-76917487D01*
X93028566Y-76689333D01*
X93028569Y-76689317D01*
X93049157Y-76454002D01*
X93049157Y-76453997D01*
X93028569Y-76218682D01*
X93028566Y-76218666D01*
X92967432Y-75990512D01*
X92967431Y-75990510D01*
X92867600Y-75776422D01*
X92808926Y-75692625D01*
X92177076Y-76324475D01*
X92153493Y-76244156D01*
X92075761Y-76123202D01*
X91967100Y-76029048D01*
X91836315Y-75969320D01*
X91826531Y-75967913D01*
X92455373Y-75339072D01*
X92371577Y-75280399D01*
X92371575Y-75280397D01*
X92286322Y-75240644D01*
X92254004Y-75205377D01*
X92256091Y-75157587D01*
X92286322Y-75127356D01*
X92371573Y-75087603D01*
X92455372Y-75028925D01*
X91826533Y-74400086D01*
X91836315Y-74398680D01*
X91967100Y-74338952D01*
X92075761Y-74244798D01*
X92153493Y-74123844D01*
X92177076Y-74043523D01*
X92808925Y-74675372D01*
X92867601Y-74591575D01*
X92967431Y-74377489D01*
X92967432Y-74377487D01*
X93028566Y-74149333D01*
X93028569Y-74149317D01*
X93049157Y-73914002D01*
X93049157Y-73913997D01*
X93028569Y-73678682D01*
X93028566Y-73678666D01*
X92967432Y-73450512D01*
X92967431Y-73450510D01*
X92867600Y-73236422D01*
X92808926Y-73152625D01*
X92177076Y-73784475D01*
X92153493Y-73704156D01*
X92075761Y-73583202D01*
X91967100Y-73489048D01*
X91836315Y-73429320D01*
X91826531Y-73427913D01*
X92455373Y-72799072D01*
X92371577Y-72740399D01*
X92371579Y-72740399D01*
X92157489Y-72640568D01*
X92157487Y-72640567D01*
X91929333Y-72579433D01*
X91929317Y-72579430D01*
X91694002Y-72558843D01*
X91693998Y-72558843D01*
X91458682Y-72579430D01*
X91458666Y-72579433D01*
X91230512Y-72640567D01*
X91230510Y-72640568D01*
X91016426Y-72740397D01*
X90932626Y-72799073D01*
X91561466Y-73427913D01*
X91551685Y-73429320D01*
X91420900Y-73489048D01*
X91312239Y-73583202D01*
X91234507Y-73704156D01*
X91210923Y-73784476D01*
X90579073Y-73152626D01*
X90520397Y-73236426D01*
X90420568Y-73450510D01*
X90420567Y-73450512D01*
X90359433Y-73678666D01*
X90359430Y-73678682D01*
X90338843Y-73913997D01*
X90338843Y-73914002D01*
X90359430Y-74149317D01*
X90359433Y-74149333D01*
X90420567Y-74377487D01*
X90420568Y-74377489D01*
X90520399Y-74591578D01*
X90579072Y-74675372D01*
X90579072Y-74675373D01*
X91210922Y-74043522D01*
X91234507Y-74123844D01*
X91312239Y-74244798D01*
X91420900Y-74338952D01*
X91551685Y-74398680D01*
X91561466Y-74400086D01*
X90932625Y-75028926D01*
X91016422Y-75087600D01*
X91016420Y-75087600D01*
X91101677Y-75127356D01*
X91133994Y-75162624D01*
X91131907Y-75210414D01*
X91101677Y-75240644D01*
X91016426Y-75280397D01*
X90932626Y-75339073D01*
X91561466Y-75967913D01*
X91551685Y-75969320D01*
X91420900Y-76029048D01*
X91312239Y-76123202D01*
X91234507Y-76244156D01*
X91210923Y-76324476D01*
X90579073Y-75692626D01*
X90520397Y-75776426D01*
X90420568Y-75990510D01*
X90420567Y-75990512D01*
X90359433Y-76218666D01*
X90359430Y-76218682D01*
X90338843Y-76453997D01*
X90338843Y-76454002D01*
X90359430Y-76689317D01*
X90359433Y-76689333D01*
X90420567Y-76917487D01*
X90420568Y-76917489D01*
X90520399Y-77131578D01*
X90579072Y-77215372D01*
X90579072Y-77215373D01*
X91210922Y-76583522D01*
X91234507Y-76663844D01*
X91312239Y-76784798D01*
X91420900Y-76878952D01*
X91551685Y-76938680D01*
X91561466Y-76940086D01*
X90932625Y-77568926D01*
X91016422Y-77627600D01*
X91016420Y-77627600D01*
X91101677Y-77667356D01*
X91133994Y-77702624D01*
X91131907Y-77750414D01*
X91101677Y-77780644D01*
X91016426Y-77820397D01*
X90932626Y-77879073D01*
X91561466Y-78507913D01*
X91551685Y-78509320D01*
X91420900Y-78569048D01*
X91312239Y-78663202D01*
X91234507Y-78784156D01*
X91210923Y-78864476D01*
X90579073Y-78232626D01*
X90520397Y-78316426D01*
X90420568Y-78530510D01*
X90420567Y-78530512D01*
X90359433Y-78758666D01*
X90359430Y-78758682D01*
X90338843Y-78993997D01*
X90338843Y-78994002D01*
X90359430Y-79229317D01*
X90359433Y-79229333D01*
X90420567Y-79457487D01*
X90420568Y-79457489D01*
X90520399Y-79671578D01*
X90579072Y-79755372D01*
X90579072Y-79755373D01*
X91210922Y-79123522D01*
X91234507Y-79203844D01*
X91312239Y-79324798D01*
X91420900Y-79418952D01*
X91551685Y-79478680D01*
X91561466Y-79480086D01*
X90932625Y-80108926D01*
X91016422Y-80167600D01*
X91016420Y-80167600D01*
X91101677Y-80207356D01*
X91133994Y-80242624D01*
X91131907Y-80290414D01*
X91101677Y-80320644D01*
X91016426Y-80360397D01*
X90932626Y-80419073D01*
X91561466Y-81047913D01*
X91551685Y-81049320D01*
X91420900Y-81109048D01*
X91312239Y-81203202D01*
X91234507Y-81324156D01*
X91210923Y-81404476D01*
X90579073Y-80772626D01*
X90520397Y-80856426D01*
X90420568Y-81070510D01*
X90420567Y-81070512D01*
X90359433Y-81298666D01*
X90359430Y-81298682D01*
X90338843Y-81533997D01*
X90338843Y-81534002D01*
X90359430Y-81769317D01*
X90359433Y-81769333D01*
X90420567Y-81997487D01*
X90420568Y-81997489D01*
X90520399Y-82211578D01*
X90579072Y-82295372D01*
X90579072Y-82295373D01*
X91210922Y-81663522D01*
X91234507Y-81743844D01*
X91312239Y-81864798D01*
X91420900Y-81958952D01*
X91551685Y-82018680D01*
X91561466Y-82020086D01*
X90932625Y-82648926D01*
X91016422Y-82707600D01*
X91016420Y-82707600D01*
X91101677Y-82747356D01*
X91133994Y-82782624D01*
X91131907Y-82830414D01*
X91101677Y-82860644D01*
X91016426Y-82900397D01*
X90932626Y-82959073D01*
X91561466Y-83587913D01*
X91551685Y-83589320D01*
X91420900Y-83649048D01*
X91312239Y-83743202D01*
X91234507Y-83864156D01*
X91210923Y-83944476D01*
X90579073Y-83312626D01*
X90520397Y-83396426D01*
X90420568Y-83610510D01*
X90420567Y-83610512D01*
X90359433Y-83838666D01*
X90359430Y-83838682D01*
X90338843Y-84073997D01*
X90338843Y-84074002D01*
X90359430Y-84309317D01*
X90359433Y-84309333D01*
X90420567Y-84537487D01*
X90420568Y-84537489D01*
X90520399Y-84751578D01*
X90579072Y-84835372D01*
X90579072Y-84835373D01*
X91210922Y-84203522D01*
X91234507Y-84283844D01*
X91312239Y-84404798D01*
X91420900Y-84498952D01*
X91551685Y-84558680D01*
X91561466Y-84560086D01*
X90932625Y-85188926D01*
X91016422Y-85247600D01*
X91016420Y-85247600D01*
X91101677Y-85287356D01*
X91133994Y-85322624D01*
X91131907Y-85370414D01*
X91101677Y-85400644D01*
X91016426Y-85440397D01*
X90932626Y-85499073D01*
X91561466Y-86127913D01*
X91551685Y-86129320D01*
X91420900Y-86189048D01*
X91312239Y-86283202D01*
X91234507Y-86404156D01*
X91210923Y-86484476D01*
X90579073Y-85852626D01*
X90520397Y-85936426D01*
X90420568Y-86150510D01*
X90420567Y-86150512D01*
X90359433Y-86378666D01*
X90359430Y-86378682D01*
X90338843Y-86613997D01*
X90338843Y-86614002D01*
X90359430Y-86849317D01*
X90359433Y-86849333D01*
X90420567Y-87077487D01*
X90420568Y-87077489D01*
X90520399Y-87291578D01*
X90579072Y-87375372D01*
X90579072Y-87375373D01*
X91210922Y-86743522D01*
X91234507Y-86823844D01*
X91312239Y-86944798D01*
X91420900Y-87038952D01*
X91551685Y-87098680D01*
X91561466Y-87100086D01*
X90932625Y-87728926D01*
X91016422Y-87787600D01*
X91016420Y-87787600D01*
X91101677Y-87827356D01*
X91133994Y-87862624D01*
X91131907Y-87910414D01*
X91101677Y-87940644D01*
X91016426Y-87980397D01*
X90932626Y-88039073D01*
X91561466Y-88667913D01*
X91551685Y-88669320D01*
X91420900Y-88729048D01*
X91312239Y-88823202D01*
X91234507Y-88944156D01*
X91210923Y-89024476D01*
X90579073Y-88392626D01*
X90520397Y-88476426D01*
X90420568Y-88690510D01*
X90420567Y-88690512D01*
X90359433Y-88918666D01*
X90359430Y-88918682D01*
X90338843Y-89153997D01*
X90338843Y-89154002D01*
X90359430Y-89389317D01*
X90359433Y-89389333D01*
X90420567Y-89617487D01*
X90420568Y-89617489D01*
X90520399Y-89831578D01*
X90579072Y-89915372D01*
X90579072Y-89915373D01*
X91210922Y-89283522D01*
X91234507Y-89363844D01*
X91312239Y-89484798D01*
X91420900Y-89578952D01*
X91551685Y-89638680D01*
X91561466Y-89640086D01*
X90932625Y-90268926D01*
X91016422Y-90327600D01*
X91016420Y-90327600D01*
X91101677Y-90367356D01*
X91133994Y-90402624D01*
X91131907Y-90450414D01*
X91101677Y-90480644D01*
X91016426Y-90520397D01*
X90932626Y-90579073D01*
X91561466Y-91207913D01*
X91551685Y-91209320D01*
X91420900Y-91269048D01*
X91312239Y-91363202D01*
X91234507Y-91484156D01*
X91210923Y-91564476D01*
X90579073Y-90932626D01*
X90520397Y-91016426D01*
X90420568Y-91230510D01*
X90420567Y-91230512D01*
X90359433Y-91458666D01*
X90359430Y-91458682D01*
X90338843Y-91693997D01*
X90338843Y-91694002D01*
X90359430Y-91929317D01*
X90359433Y-91929333D01*
X90420567Y-92157487D01*
X90420568Y-92157489D01*
X90520399Y-92371578D01*
X90579072Y-92455372D01*
X90579072Y-92455373D01*
X91210922Y-91823522D01*
X91234507Y-91903844D01*
X91312239Y-92024798D01*
X91420900Y-92118952D01*
X91551685Y-92178680D01*
X91561466Y-92180086D01*
X90932625Y-92808926D01*
X91016422Y-92867600D01*
X91016420Y-92867600D01*
X91101677Y-92907356D01*
X91133994Y-92942624D01*
X91131907Y-92990414D01*
X91101677Y-93020644D01*
X91016426Y-93060397D01*
X90932626Y-93119073D01*
X91561466Y-93747913D01*
X91551685Y-93749320D01*
X91420900Y-93809048D01*
X91312239Y-93903202D01*
X91234507Y-94024156D01*
X91210923Y-94104476D01*
X90579073Y-93472626D01*
X90520397Y-93556426D01*
X90420568Y-93770510D01*
X90420567Y-93770512D01*
X90359433Y-93998666D01*
X90359430Y-93998682D01*
X90338843Y-94233997D01*
X90338843Y-94234002D01*
X90209583Y-94234002D01*
X90209583Y-94234000D01*
X90189300Y-94028066D01*
X90129232Y-93830046D01*
X90031685Y-93647550D01*
X89924215Y-93516597D01*
X89900411Y-93487591D01*
X89900408Y-93487588D01*
X89740455Y-93356319D01*
X89740453Y-93356318D01*
X89740450Y-93356315D01*
X89740448Y-93356313D01*
X89740444Y-93356311D01*
X89557954Y-93258768D01*
X89557949Y-93258766D01*
X89359935Y-93198700D01*
X89359930Y-93198699D01*
X89154000Y-93178417D01*
X88948069Y-93198699D01*
X88948064Y-93198700D01*
X88750050Y-93258766D01*
X88750045Y-93258768D01*
X88567555Y-93356311D01*
X88567544Y-93356319D01*
X88407591Y-93487588D01*
X88407588Y-93487591D01*
X88276319Y-93647544D01*
X88276311Y-93647555D01*
X88178768Y-93830045D01*
X88178766Y-93830050D01*
X88118700Y-94028064D01*
X88118699Y-94028069D01*
X88098417Y-94233999D01*
X88098417Y-94234000D01*
X65654499Y-94234000D01*
X65654499Y-93744023D01*
X65654498Y-93744012D01*
X65644007Y-93641312D01*
X65644006Y-93641305D01*
X65588858Y-93474878D01*
X65496817Y-93325656D01*
X65372843Y-93201682D01*
X65223621Y-93109641D01*
X65057191Y-93054492D01*
X64954486Y-93044000D01*
X64754500Y-93044000D01*
X64254500Y-93044000D01*
X64054524Y-93044000D01*
X64054512Y-93044001D01*
X63951812Y-93054492D01*
X63951805Y-93054493D01*
X63785375Y-93109642D01*
X63703176Y-93160343D01*
X63655952Y-93167963D01*
X63617171Y-93139958D01*
X63609551Y-93092734D01*
X63610696Y-93088553D01*
X63641456Y-92989843D01*
X63641457Y-92989836D01*
X63644169Y-92960000D01*
X63040000Y-92960000D01*
X62540000Y-92960000D01*
X62540000Y-92460000D01*
X63040000Y-92460000D01*
X63644169Y-92460000D01*
X63641457Y-92430163D01*
X63641455Y-92430153D01*
X63593773Y-92277138D01*
X63510857Y-92139976D01*
X63397523Y-92026642D01*
X63260361Y-91943726D01*
X63107346Y-91896044D01*
X63087538Y-91894244D01*
X63058875Y-91879200D01*
X63058697Y-91879467D01*
X63046978Y-91883021D01*
X63040000Y-91890000D01*
X63040000Y-92460000D01*
X62540000Y-92460000D01*
X62540000Y-91890000D01*
X62539163Y-91890000D01*
X62472653Y-91896044D01*
X62319638Y-91943726D01*
X62182476Y-92026642D01*
X62069145Y-92139973D01*
X62031527Y-92202199D01*
X61992997Y-92230548D01*
X61950591Y-92226013D01*
X61896786Y-92199709D01*
X61826715Y-92189500D01*
X61753033Y-92189500D01*
X61708839Y-92171194D01*
X61126393Y-91588748D01*
X62872000Y-91588748D01*
X62883632Y-91647230D01*
X62883633Y-91647232D01*
X62927947Y-91713552D01*
X62994267Y-91757866D01*
X62994269Y-91757867D01*
X63036167Y-91766201D01*
X63059410Y-91781731D01*
X63093195Y-91769500D01*
X65092248Y-91769500D01*
X65150731Y-91757867D01*
X65217052Y-91713552D01*
X65230116Y-91694000D01*
X88098417Y-91694000D01*
X88118699Y-91899930D01*
X88118700Y-91899935D01*
X88178766Y-92097949D01*
X88178768Y-92097954D01*
X88276311Y-92280444D01*
X88276319Y-92280455D01*
X88407588Y-92440408D01*
X88407591Y-92440411D01*
X88460453Y-92483793D01*
X88567550Y-92571685D01*
X88567553Y-92571686D01*
X88567555Y-92571688D01*
X88594780Y-92586240D01*
X88750046Y-92669232D01*
X88948066Y-92729300D01*
X89154000Y-92749583D01*
X89359934Y-92729300D01*
X89557954Y-92669232D01*
X89740450Y-92571685D01*
X89900410Y-92440410D01*
X90031685Y-92280450D01*
X90129232Y-92097954D01*
X90189300Y-91899934D01*
X90209583Y-91694000D01*
X90206910Y-91666866D01*
X90196014Y-91556231D01*
X90189300Y-91488066D01*
X90129232Y-91290046D01*
X90038400Y-91120113D01*
X90031688Y-91107555D01*
X90031686Y-91107553D01*
X90031685Y-91107550D01*
X89900410Y-90947590D01*
X89882176Y-90932626D01*
X89740455Y-90816319D01*
X89740453Y-90816318D01*
X89740450Y-90816315D01*
X89740448Y-90816313D01*
X89740444Y-90816311D01*
X89557954Y-90718768D01*
X89557949Y-90718766D01*
X89359935Y-90658700D01*
X89359930Y-90658699D01*
X89154000Y-90638417D01*
X88948069Y-90658699D01*
X88948064Y-90658700D01*
X88750050Y-90718766D01*
X88750045Y-90718768D01*
X88567555Y-90816311D01*
X88567544Y-90816319D01*
X88407591Y-90947588D01*
X88407588Y-90947591D01*
X88276319Y-91107544D01*
X88276311Y-91107555D01*
X88178768Y-91290045D01*
X88178766Y-91290050D01*
X88118700Y-91488064D01*
X88118699Y-91488069D01*
X88098417Y-91693999D01*
X88098417Y-91694000D01*
X65230116Y-91694000D01*
X65261367Y-91647231D01*
X65273000Y-91588748D01*
X65273000Y-91253187D01*
X65291306Y-91208993D01*
X65335500Y-91190687D01*
X65726971Y-91190687D01*
X65739796Y-91192016D01*
X65756427Y-91195504D01*
X65756428Y-91195503D01*
X65756429Y-91195504D01*
X65776718Y-91192974D01*
X65793147Y-91190926D01*
X65797014Y-91190687D01*
X65802791Y-91190687D01*
X65802797Y-91190687D01*
X65825609Y-91186880D01*
X65879523Y-91180160D01*
X65879531Y-91180155D01*
X65884489Y-91178681D01*
X65884509Y-91178751D01*
X65889476Y-91177159D01*
X65889453Y-91177091D01*
X65894345Y-91175410D01*
X65894355Y-91175409D01*
X65942143Y-91149547D01*
X65990965Y-91125680D01*
X65990969Y-91125675D01*
X65995180Y-91122670D01*
X65995222Y-91122730D01*
X65999407Y-91119610D01*
X65999362Y-91119552D01*
X66003449Y-91116370D01*
X66003448Y-91116370D01*
X66003451Y-91116369D01*
X66040243Y-91076401D01*
X67248144Y-89868500D01*
X68461652Y-88654993D01*
X68505846Y-88636687D01*
X69492974Y-88636687D01*
X69537168Y-88654993D01*
X69572686Y-88690510D01*
X69604625Y-88722449D01*
X69697263Y-88767737D01*
X69728926Y-88803592D01*
X69732313Y-88823886D01*
X69732313Y-89704755D01*
X69714007Y-89748949D01*
X69699275Y-89759875D01*
X69545467Y-89842086D01*
X69545461Y-89842090D01*
X69393117Y-89967117D01*
X69268090Y-90119461D01*
X69268086Y-90119467D01*
X69175187Y-90293271D01*
X69117975Y-90481869D01*
X69098659Y-90677999D01*
X69098659Y-90678000D01*
X69117975Y-90874130D01*
X69117976Y-90874132D01*
X69175186Y-91062727D01*
X69207226Y-91122670D01*
X69268086Y-91236532D01*
X69268090Y-91236538D01*
X69393117Y-91388883D01*
X69545462Y-91513910D01*
X69545464Y-91513911D01*
X69545467Y-91513913D01*
X69590690Y-91538085D01*
X69719273Y-91606814D01*
X69907868Y-91664024D01*
X70104000Y-91683341D01*
X70300132Y-91664024D01*
X70488727Y-91606814D01*
X70662538Y-91513910D01*
X70814883Y-91388883D01*
X70939910Y-91236538D01*
X71032814Y-91062727D01*
X71090024Y-90874132D01*
X71109341Y-90678000D01*
X71105442Y-90638417D01*
X71090024Y-90481869D01*
X71090024Y-90481868D01*
X71032814Y-90293273D01*
X70939910Y-90119462D01*
X70814883Y-89967117D01*
X70662538Y-89842090D01*
X70662532Y-89842086D01*
X70508725Y-89759875D01*
X70478378Y-89722898D01*
X70475687Y-89704755D01*
X70475687Y-88697025D01*
X70493993Y-88652831D01*
X70497504Y-88649320D01*
X70509449Y-88637375D01*
X70555851Y-88542457D01*
X70591706Y-88510795D01*
X70639450Y-88513759D01*
X70668147Y-88542456D01*
X70705587Y-88619039D01*
X70714551Y-88637375D01*
X70799625Y-88722449D01*
X70799628Y-88722451D01*
X70854821Y-88749433D01*
X70907714Y-88775291D01*
X70977785Y-88785500D01*
X71441214Y-88785499D01*
X71511286Y-88775291D01*
X71619375Y-88722449D01*
X71669235Y-88672589D01*
X71686832Y-88654993D01*
X71731026Y-88636687D01*
X71829154Y-88636687D01*
X71873348Y-88654993D01*
X72254007Y-89035651D01*
X72272313Y-89079845D01*
X72272313Y-89704755D01*
X72254007Y-89748949D01*
X72239275Y-89759875D01*
X72085467Y-89842086D01*
X72085461Y-89842090D01*
X71933117Y-89967117D01*
X71808090Y-90119461D01*
X71808086Y-90119467D01*
X71715187Y-90293271D01*
X71657975Y-90481869D01*
X71638659Y-90677999D01*
X71638659Y-90678000D01*
X71657975Y-90874130D01*
X71657976Y-90874132D01*
X71715186Y-91062727D01*
X71747226Y-91122670D01*
X71808086Y-91236532D01*
X71808090Y-91236538D01*
X71933117Y-91388883D01*
X72085462Y-91513910D01*
X72085464Y-91513911D01*
X72085467Y-91513913D01*
X72130690Y-91538085D01*
X72259273Y-91606814D01*
X72447868Y-91664024D01*
X72545934Y-91673682D01*
X72643999Y-91683341D01*
X72643999Y-91683340D01*
X72644000Y-91683341D01*
X72840132Y-91664024D01*
X73028727Y-91606814D01*
X73202538Y-91513910D01*
X73354883Y-91388883D01*
X73479910Y-91236538D01*
X73572814Y-91062727D01*
X73630024Y-90874132D01*
X73649341Y-90678000D01*
X73645442Y-90638417D01*
X73630024Y-90481869D01*
X73630024Y-90481868D01*
X73572814Y-90293273D01*
X73479910Y-90119462D01*
X73354883Y-89967117D01*
X73202538Y-89842090D01*
X73202532Y-89842086D01*
X73048725Y-89759875D01*
X73018378Y-89722898D01*
X73015687Y-89704755D01*
X73015687Y-88945029D01*
X73017017Y-88932202D01*
X73020504Y-88915573D01*
X73020504Y-88915571D01*
X73015927Y-88878853D01*
X73015687Y-88874984D01*
X73015687Y-88869208D01*
X73015687Y-88869203D01*
X73011882Y-88846402D01*
X73008543Y-88819610D01*
X73005161Y-88792477D01*
X73003684Y-88787515D01*
X73003752Y-88787494D01*
X73002160Y-88782523D01*
X73002092Y-88782547D01*
X73000409Y-88777645D01*
X72999134Y-88775289D01*
X72974549Y-88729860D01*
X72950680Y-88681035D01*
X72950678Y-88681033D01*
X72950678Y-88681032D01*
X72947671Y-88676821D01*
X72947729Y-88676779D01*
X72944605Y-88672589D01*
X72944548Y-88672634D01*
X72941368Y-88668547D01*
X72901401Y-88631756D01*
X72303661Y-88034016D01*
X72295531Y-88024005D01*
X72292686Y-88019651D01*
X72286240Y-88009783D01*
X72274588Y-88000714D01*
X72257037Y-87987053D01*
X72254139Y-87984494D01*
X72250046Y-87980401D01*
X72250040Y-87980397D01*
X72231227Y-87966965D01*
X72188348Y-87933590D01*
X72183793Y-87931125D01*
X72183826Y-87931062D01*
X72179185Y-87928673D01*
X72179154Y-87928738D01*
X72174495Y-87926460D01*
X72122430Y-87910960D01*
X72110443Y-87906845D01*
X72071024Y-87893313D01*
X72071023Y-87893313D01*
X72071020Y-87893312D01*
X72065914Y-87892460D01*
X72065925Y-87892390D01*
X72060753Y-87891636D01*
X72060745Y-87891708D01*
X72055613Y-87891067D01*
X72001329Y-87893313D01*
X71731026Y-87893313D01*
X71686832Y-87875007D01*
X71615713Y-87803889D01*
X71616710Y-87802891D01*
X71594485Y-87767290D01*
X71605265Y-87720685D01*
X71615776Y-87710174D01*
X71615713Y-87710111D01*
X71686832Y-87638993D01*
X71731026Y-87620687D01*
X72972154Y-87620687D01*
X73016348Y-87638993D01*
X74794007Y-89416652D01*
X74812313Y-89460846D01*
X74812313Y-89704755D01*
X74794007Y-89748949D01*
X74779275Y-89759875D01*
X74625467Y-89842086D01*
X74625461Y-89842090D01*
X74473117Y-89967117D01*
X74348090Y-90119461D01*
X74348086Y-90119467D01*
X74255187Y-90293271D01*
X74197975Y-90481869D01*
X74178659Y-90677999D01*
X74178659Y-90678000D01*
X74197975Y-90874130D01*
X74197976Y-90874132D01*
X74255186Y-91062727D01*
X74287226Y-91122670D01*
X74348086Y-91236532D01*
X74348090Y-91236538D01*
X74473117Y-91388883D01*
X74625462Y-91513910D01*
X74625464Y-91513911D01*
X74625467Y-91513913D01*
X74670690Y-91538085D01*
X74799273Y-91606814D01*
X74987868Y-91664024D01*
X75184000Y-91683341D01*
X75380132Y-91664024D01*
X75568727Y-91606814D01*
X75742538Y-91513910D01*
X75894883Y-91388883D01*
X76019910Y-91236538D01*
X76112814Y-91062727D01*
X76170024Y-90874132D01*
X76189341Y-90678000D01*
X76185442Y-90638417D01*
X76170024Y-90481869D01*
X76170024Y-90481868D01*
X76112814Y-90293273D01*
X76019910Y-90119462D01*
X75894883Y-89967117D01*
X75742538Y-89842090D01*
X75742532Y-89842086D01*
X75588725Y-89759875D01*
X75558378Y-89722898D01*
X75555687Y-89704755D01*
X75555687Y-89326029D01*
X75557017Y-89313202D01*
X75560504Y-89296573D01*
X75560504Y-89296571D01*
X75555927Y-89259856D01*
X75555687Y-89255986D01*
X75555687Y-89250208D01*
X75555687Y-89250203D01*
X75551880Y-89227390D01*
X75545160Y-89173477D01*
X75545158Y-89173473D01*
X75543681Y-89168509D01*
X75543750Y-89168488D01*
X75542160Y-89163524D01*
X75542092Y-89163548D01*
X75540408Y-89158643D01*
X75514547Y-89110856D01*
X75514546Y-89110855D01*
X75490680Y-89062035D01*
X75490678Y-89062033D01*
X75490678Y-89062032D01*
X75487671Y-89057821D01*
X75487729Y-89057779D01*
X75484605Y-89053589D01*
X75484548Y-89053634D01*
X75481368Y-89049547D01*
X75441401Y-89012756D01*
X73446661Y-87018016D01*
X73438531Y-87008005D01*
X73435394Y-87003204D01*
X73429240Y-86993783D01*
X73417588Y-86984714D01*
X73400037Y-86971053D01*
X73397139Y-86968494D01*
X73393046Y-86964401D01*
X73374227Y-86950965D01*
X73366304Y-86944798D01*
X73331348Y-86917590D01*
X73326793Y-86915125D01*
X73326826Y-86915062D01*
X73322185Y-86912673D01*
X73322154Y-86912738D01*
X73317495Y-86910460D01*
X73265430Y-86894960D01*
X73214024Y-86877313D01*
X73214023Y-86877313D01*
X73214020Y-86877312D01*
X73208914Y-86876460D01*
X73208925Y-86876390D01*
X73203753Y-86875636D01*
X73203745Y-86875708D01*
X73198613Y-86875067D01*
X73144329Y-86877313D01*
X71731026Y-86877313D01*
X71686832Y-86859007D01*
X71615713Y-86787889D01*
X71616710Y-86786891D01*
X71594485Y-86751290D01*
X71605265Y-86704685D01*
X71615776Y-86694174D01*
X71615713Y-86694111D01*
X71686832Y-86622993D01*
X71731026Y-86604687D01*
X73353154Y-86604687D01*
X73397348Y-86622993D01*
X75270338Y-88495983D01*
X75278463Y-88505987D01*
X75287760Y-88520217D01*
X75316966Y-88542949D01*
X75319854Y-88545499D01*
X75323954Y-88549599D01*
X75342772Y-88563034D01*
X75359401Y-88575977D01*
X75385645Y-88596405D01*
X75385647Y-88596406D01*
X75385651Y-88596409D01*
X75385654Y-88596410D01*
X75390204Y-88598872D01*
X75390169Y-88598935D01*
X75394815Y-88601326D01*
X75394847Y-88601263D01*
X75399495Y-88603535D01*
X75399497Y-88603535D01*
X75399499Y-88603537D01*
X75451569Y-88619039D01*
X75502976Y-88636687D01*
X75502979Y-88636687D01*
X75508086Y-88637540D01*
X75508074Y-88637609D01*
X75513246Y-88638363D01*
X75513255Y-88638292D01*
X75518386Y-88638932D01*
X75518388Y-88638931D01*
X75518389Y-88638932D01*
X75572671Y-88636687D01*
X75588974Y-88636687D01*
X75633168Y-88654993D01*
X75700624Y-88722448D01*
X75700628Y-88722451D01*
X75755821Y-88749433D01*
X75808714Y-88775291D01*
X75878785Y-88785500D01*
X76342214Y-88785499D01*
X76412286Y-88775291D01*
X76520375Y-88722449D01*
X76605449Y-88637375D01*
X76651851Y-88542457D01*
X76687706Y-88510795D01*
X76735450Y-88513759D01*
X76764147Y-88542456D01*
X76801587Y-88619039D01*
X76810551Y-88637375D01*
X76895625Y-88722449D01*
X76895628Y-88722451D01*
X76950821Y-88749433D01*
X77003714Y-88775291D01*
X77073785Y-88785500D01*
X77274466Y-88785499D01*
X77318660Y-88803805D01*
X77334007Y-88819152D01*
X77352313Y-88863346D01*
X77352313Y-89704755D01*
X77334007Y-89748949D01*
X77319275Y-89759875D01*
X77165467Y-89842086D01*
X77165461Y-89842090D01*
X77013117Y-89967117D01*
X76888090Y-90119461D01*
X76888086Y-90119467D01*
X76795187Y-90293271D01*
X76737975Y-90481869D01*
X76718659Y-90677999D01*
X76718659Y-90678000D01*
X76737975Y-90874130D01*
X76737976Y-90874132D01*
X76795186Y-91062727D01*
X76827226Y-91122670D01*
X76888086Y-91236532D01*
X76888090Y-91236538D01*
X77013117Y-91388883D01*
X77165462Y-91513910D01*
X77165464Y-91513911D01*
X77165467Y-91513913D01*
X77210690Y-91538085D01*
X77339273Y-91606814D01*
X77527868Y-91664024D01*
X77724000Y-91683341D01*
X77920132Y-91664024D01*
X78108727Y-91606814D01*
X78282538Y-91513910D01*
X78434883Y-91388883D01*
X78559910Y-91236538D01*
X78652814Y-91062727D01*
X78710024Y-90874132D01*
X78729341Y-90678000D01*
X78725442Y-90638417D01*
X78710024Y-90481869D01*
X78710024Y-90481868D01*
X78652814Y-90293273D01*
X78559910Y-90119462D01*
X78434883Y-89967117D01*
X78282538Y-89842090D01*
X78282532Y-89842086D01*
X78128725Y-89759875D01*
X78098378Y-89722898D01*
X78095687Y-89704755D01*
X78095687Y-88728528D01*
X78097017Y-88715701D01*
X78100504Y-88699072D01*
X78100504Y-88699070D01*
X78095927Y-88662355D01*
X78095687Y-88658485D01*
X78095687Y-88652708D01*
X78095687Y-88652703D01*
X78091880Y-88629891D01*
X78085160Y-88575977D01*
X78085158Y-88575973D01*
X78083681Y-88571009D01*
X78083750Y-88570988D01*
X78082160Y-88566024D01*
X78082092Y-88566048D01*
X78080408Y-88561143D01*
X78054547Y-88513356D01*
X78036491Y-88476422D01*
X78030680Y-88464535D01*
X78030678Y-88464533D01*
X78030678Y-88464532D01*
X78027671Y-88460321D01*
X78027729Y-88460279D01*
X78024605Y-88456089D01*
X78024548Y-88456134D01*
X78021368Y-88452047D01*
X77981401Y-88415256D01*
X77881805Y-88315659D01*
X77863499Y-88271465D01*
X77863499Y-88070786D01*
X77860460Y-88049927D01*
X77853291Y-88000714D01*
X77846851Y-87987540D01*
X77800451Y-87892628D01*
X77800449Y-87892625D01*
X77711713Y-87803889D01*
X77712710Y-87802891D01*
X77690485Y-87767290D01*
X77701265Y-87720685D01*
X77711776Y-87710174D01*
X77711713Y-87710111D01*
X77782832Y-87638993D01*
X77827026Y-87620687D01*
X79239904Y-87620687D01*
X79284098Y-87638993D01*
X79874007Y-88228901D01*
X79892313Y-88273095D01*
X79892313Y-89704755D01*
X79874007Y-89748949D01*
X79859275Y-89759875D01*
X79705467Y-89842086D01*
X79705461Y-89842090D01*
X79553117Y-89967117D01*
X79428090Y-90119461D01*
X79428086Y-90119467D01*
X79335187Y-90293271D01*
X79277975Y-90481869D01*
X79258659Y-90677999D01*
X79258659Y-90678000D01*
X79277975Y-90874130D01*
X79277976Y-90874132D01*
X79335186Y-91062727D01*
X79367226Y-91122670D01*
X79428086Y-91236532D01*
X79428090Y-91236538D01*
X79553117Y-91388883D01*
X79705462Y-91513910D01*
X79705464Y-91513911D01*
X79705467Y-91513913D01*
X79750690Y-91538085D01*
X79879273Y-91606814D01*
X80067868Y-91664024D01*
X80264000Y-91683341D01*
X80460132Y-91664024D01*
X80648727Y-91606814D01*
X80822538Y-91513910D01*
X80974883Y-91388883D01*
X81099910Y-91236538D01*
X81192814Y-91062727D01*
X81250024Y-90874132D01*
X81269341Y-90678000D01*
X81265442Y-90638417D01*
X81250024Y-90481869D01*
X81250024Y-90481868D01*
X81192814Y-90293273D01*
X81099910Y-90119462D01*
X80974883Y-89967117D01*
X80822538Y-89842090D01*
X80822532Y-89842086D01*
X80668725Y-89759875D01*
X80638378Y-89722898D01*
X80635687Y-89704755D01*
X80635687Y-88138279D01*
X80637017Y-88125452D01*
X80637038Y-88125355D01*
X80640504Y-88108823D01*
X80635926Y-88072100D01*
X80635687Y-88068234D01*
X80635687Y-88062458D01*
X80635687Y-88062453D01*
X80631882Y-88039653D01*
X80625161Y-87985727D01*
X80625159Y-87985724D01*
X80623682Y-87980759D01*
X80623751Y-87980738D01*
X80622160Y-87975771D01*
X80622091Y-87975795D01*
X80620409Y-87970898D01*
X80620409Y-87970895D01*
X80594551Y-87923115D01*
X80570680Y-87874285D01*
X80570678Y-87874283D01*
X80570678Y-87874282D01*
X80567671Y-87870071D01*
X80567729Y-87870029D01*
X80564605Y-87865839D01*
X80564548Y-87865884D01*
X80561368Y-87861797D01*
X80521401Y-87825006D01*
X79714411Y-87018016D01*
X79706281Y-87008005D01*
X79703144Y-87003204D01*
X79696990Y-86993783D01*
X79685338Y-86984714D01*
X79667787Y-86971053D01*
X79664889Y-86968494D01*
X79660796Y-86964401D01*
X79641977Y-86950965D01*
X79634054Y-86944798D01*
X79599098Y-86917590D01*
X79594543Y-86915125D01*
X79594576Y-86915062D01*
X79589935Y-86912673D01*
X79589904Y-86912738D01*
X79585245Y-86910460D01*
X79533180Y-86894960D01*
X79533179Y-86894960D01*
X79481774Y-86877313D01*
X79481773Y-86877313D01*
X79481770Y-86877312D01*
X79476664Y-86876460D01*
X79476675Y-86876390D01*
X79471503Y-86875636D01*
X79471495Y-86875708D01*
X79466363Y-86875067D01*
X79412079Y-86877313D01*
X77827026Y-86877313D01*
X77782832Y-86859007D01*
X77711713Y-86787889D01*
X77712710Y-86786891D01*
X77690485Y-86751290D01*
X77701265Y-86704685D01*
X77711776Y-86694174D01*
X77711713Y-86694111D01*
X77782832Y-86622993D01*
X77827026Y-86604687D01*
X80973154Y-86604687D01*
X81017348Y-86622993D01*
X82414007Y-88019651D01*
X82432313Y-88063845D01*
X82432313Y-89615000D01*
X82414007Y-89659194D01*
X82369813Y-89677500D01*
X81984252Y-89677500D01*
X81925769Y-89689132D01*
X81925767Y-89689133D01*
X81859447Y-89733447D01*
X81815133Y-89799767D01*
X81815132Y-89799769D01*
X81803500Y-89858251D01*
X81803500Y-91497748D01*
X81815132Y-91556230D01*
X81815133Y-91556232D01*
X81859447Y-91622552D01*
X81925767Y-91666866D01*
X81925769Y-91666867D01*
X81984252Y-91678500D01*
X83623748Y-91678500D01*
X83682231Y-91666867D01*
X83748552Y-91622552D01*
X83792867Y-91556231D01*
X83804500Y-91497748D01*
X83804500Y-89858252D01*
X83792867Y-89799769D01*
X83792866Y-89799767D01*
X83748552Y-89733447D01*
X83682232Y-89689133D01*
X83682230Y-89689132D01*
X83623748Y-89677500D01*
X83238187Y-89677500D01*
X83193993Y-89659194D01*
X83175687Y-89615000D01*
X83175687Y-89154000D01*
X88098417Y-89154000D01*
X88118699Y-89359930D01*
X88118700Y-89359935D01*
X88178766Y-89557949D01*
X88178768Y-89557954D01*
X88276311Y-89740444D01*
X88276319Y-89740455D01*
X88407588Y-89900408D01*
X88407591Y-89900411D01*
X88488873Y-89967117D01*
X88567550Y-90031685D01*
X88567553Y-90031686D01*
X88567555Y-90031688D01*
X88600413Y-90049251D01*
X88750046Y-90129232D01*
X88948066Y-90189300D01*
X89154000Y-90209583D01*
X89359934Y-90189300D01*
X89557954Y-90129232D01*
X89740450Y-90031685D01*
X89900410Y-89900410D01*
X90031685Y-89740450D01*
X90129232Y-89557954D01*
X90189300Y-89359934D01*
X90209583Y-89154000D01*
X90189300Y-88948066D01*
X90129232Y-88750046D01*
X90047111Y-88596409D01*
X90031688Y-88567555D01*
X90031686Y-88567553D01*
X90031685Y-88567550D01*
X89943685Y-88460321D01*
X89900411Y-88407591D01*
X89900408Y-88407588D01*
X89740455Y-88276319D01*
X89740453Y-88276318D01*
X89740450Y-88276315D01*
X89740448Y-88276313D01*
X89740444Y-88276311D01*
X89557954Y-88178768D01*
X89557949Y-88178766D01*
X89359935Y-88118700D01*
X89359930Y-88118699D01*
X89154000Y-88098417D01*
X88948069Y-88118699D01*
X88948064Y-88118700D01*
X88750050Y-88178766D01*
X88750045Y-88178768D01*
X88567555Y-88276311D01*
X88567544Y-88276319D01*
X88407591Y-88407588D01*
X88407588Y-88407591D01*
X88276319Y-88567544D01*
X88276311Y-88567555D01*
X88178768Y-88750045D01*
X88178766Y-88750050D01*
X88118700Y-88948064D01*
X88118699Y-88948069D01*
X88098417Y-89153999D01*
X88098417Y-89154000D01*
X83175687Y-89154000D01*
X83175687Y-87929029D01*
X83177017Y-87916202D01*
X83179610Y-87903839D01*
X83180504Y-87899573D01*
X83179638Y-87892628D01*
X83175927Y-87862853D01*
X83175687Y-87858984D01*
X83175687Y-87853208D01*
X83175687Y-87853203D01*
X83171882Y-87830402D01*
X83169010Y-87807356D01*
X83165161Y-87776477D01*
X83163684Y-87771515D01*
X83163752Y-87771494D01*
X83162160Y-87766523D01*
X83162092Y-87766547D01*
X83160409Y-87761645D01*
X83152330Y-87746717D01*
X83134549Y-87713860D01*
X83110680Y-87665035D01*
X83110678Y-87665033D01*
X83110678Y-87665032D01*
X83107671Y-87660821D01*
X83107729Y-87660779D01*
X83104605Y-87656589D01*
X83104548Y-87656634D01*
X83101368Y-87652547D01*
X83061401Y-87615756D01*
X82059645Y-86614000D01*
X88098417Y-86614000D01*
X88118699Y-86819930D01*
X88118700Y-86819935D01*
X88178766Y-87017949D01*
X88178768Y-87017954D01*
X88276311Y-87200444D01*
X88276319Y-87200455D01*
X88407588Y-87360408D01*
X88407591Y-87360411D01*
X88481304Y-87420905D01*
X88567550Y-87491685D01*
X88567553Y-87491686D01*
X88567555Y-87491688D01*
X88632197Y-87526240D01*
X88750046Y-87589232D01*
X88948066Y-87649300D01*
X89154000Y-87669583D01*
X89359934Y-87649300D01*
X89557954Y-87589232D01*
X89740450Y-87491685D01*
X89900410Y-87360410D01*
X90031685Y-87200450D01*
X90129232Y-87017954D01*
X90189300Y-86819934D01*
X90209583Y-86614000D01*
X90189300Y-86408066D01*
X90129232Y-86210046D01*
X90037691Y-86038786D01*
X90031688Y-86027555D01*
X90031686Y-86027553D01*
X90031685Y-86027550D01*
X89970083Y-85952487D01*
X89900411Y-85867591D01*
X89900408Y-85867588D01*
X89740455Y-85736319D01*
X89740453Y-85736318D01*
X89740450Y-85736315D01*
X89740448Y-85736313D01*
X89740444Y-85736311D01*
X89557954Y-85638768D01*
X89557949Y-85638766D01*
X89359935Y-85578700D01*
X89359930Y-85578699D01*
X89154000Y-85558417D01*
X88948069Y-85578699D01*
X88948064Y-85578700D01*
X88750050Y-85638766D01*
X88750045Y-85638768D01*
X88567555Y-85736311D01*
X88567544Y-85736319D01*
X88407591Y-85867588D01*
X88407588Y-85867591D01*
X88276319Y-86027544D01*
X88276311Y-86027555D01*
X88178768Y-86210045D01*
X88178766Y-86210050D01*
X88118700Y-86408064D01*
X88118699Y-86408069D01*
X88098417Y-86613999D01*
X88098417Y-86614000D01*
X82059645Y-86614000D01*
X81447661Y-86002016D01*
X81439531Y-85992005D01*
X81436394Y-85987204D01*
X81430240Y-85977783D01*
X81418588Y-85968714D01*
X81401037Y-85955053D01*
X81398139Y-85952494D01*
X81394046Y-85948401D01*
X81375227Y-85934965D01*
X81332348Y-85901590D01*
X81327793Y-85899125D01*
X81327826Y-85899062D01*
X81323185Y-85896673D01*
X81323154Y-85896738D01*
X81318495Y-85894460D01*
X81266430Y-85878960D01*
X81266429Y-85878960D01*
X81215024Y-85861313D01*
X81215023Y-85861313D01*
X81215020Y-85861312D01*
X81209914Y-85860460D01*
X81209925Y-85860390D01*
X81204753Y-85859636D01*
X81204745Y-85859708D01*
X81199613Y-85859067D01*
X81145329Y-85861313D01*
X77827026Y-85861313D01*
X77782832Y-85843007D01*
X77715375Y-85775551D01*
X77715371Y-85775548D01*
X77607286Y-85722709D01*
X77563427Y-85716319D01*
X77537215Y-85712500D01*
X77537207Y-85712500D01*
X77073786Y-85712500D01*
X77003716Y-85722708D01*
X77003709Y-85722710D01*
X76895628Y-85775548D01*
X76895625Y-85775550D01*
X76810550Y-85860625D01*
X76810548Y-85860628D01*
X76764149Y-85955540D01*
X76728294Y-85987204D01*
X76680550Y-85984239D01*
X76651851Y-85955540D01*
X76605451Y-85860628D01*
X76605449Y-85860625D01*
X76520374Y-85775550D01*
X76520371Y-85775548D01*
X76412286Y-85722709D01*
X76368427Y-85716319D01*
X76342215Y-85712500D01*
X76342207Y-85712500D01*
X75878786Y-85712500D01*
X75808716Y-85722708D01*
X75808709Y-85722710D01*
X75700628Y-85775548D01*
X75700624Y-85775551D01*
X75633168Y-85843007D01*
X75588974Y-85861313D01*
X74739257Y-85861313D01*
X74727753Y-85859636D01*
X74727745Y-85859708D01*
X74722613Y-85859067D01*
X74668329Y-85861313D01*
X73596257Y-85861313D01*
X73584753Y-85859636D01*
X73584745Y-85859708D01*
X73579613Y-85859067D01*
X73525329Y-85861313D01*
X71996263Y-85861313D01*
X71952069Y-85843007D01*
X71933763Y-85798813D01*
X71942777Y-85766480D01*
X72013271Y-85649866D01*
X72013273Y-85649862D01*
X72060955Y-85496846D01*
X72060957Y-85496836D01*
X72063669Y-85467000D01*
X71022000Y-85467000D01*
X70977806Y-85448694D01*
X70959500Y-85404500D01*
X70959500Y-84397000D01*
X71459500Y-84397000D01*
X71459500Y-84967000D01*
X72063669Y-84967000D01*
X72060957Y-84937163D01*
X72060955Y-84937153D01*
X72013273Y-84784138D01*
X71930357Y-84646976D01*
X71817023Y-84533642D01*
X71679861Y-84450726D01*
X71526846Y-84403044D01*
X71460337Y-84397000D01*
X71459500Y-84397000D01*
X70959500Y-84397000D01*
X70958663Y-84397000D01*
X70892153Y-84403044D01*
X70739138Y-84450726D01*
X70601976Y-84533642D01*
X70488645Y-84646973D01*
X70451027Y-84709199D01*
X70412497Y-84737548D01*
X70370091Y-84733013D01*
X70316286Y-84706709D01*
X70316279Y-84706708D01*
X70246215Y-84696500D01*
X70246207Y-84696500D01*
X69782786Y-84696500D01*
X69712716Y-84706708D01*
X69712709Y-84706710D01*
X69604628Y-84759548D01*
X69604625Y-84759550D01*
X69519550Y-84844625D01*
X69519548Y-84844628D01*
X69466709Y-84952712D01*
X69466709Y-84952713D01*
X69456501Y-85022778D01*
X69456500Y-85022792D01*
X69456500Y-85411213D01*
X69466708Y-85481283D01*
X69466710Y-85481290D01*
X69519548Y-85589371D01*
X69519550Y-85589374D01*
X69608287Y-85678111D01*
X69607290Y-85679107D01*
X69629515Y-85714717D01*
X69618730Y-85761321D01*
X69608224Y-85771826D01*
X69608287Y-85771889D01*
X69519550Y-85860625D01*
X69519548Y-85860628D01*
X69466709Y-85968712D01*
X69466709Y-85968713D01*
X69456501Y-86038778D01*
X69456500Y-86038792D01*
X69456500Y-86427213D01*
X69466708Y-86497283D01*
X69466710Y-86497290D01*
X69519548Y-86605371D01*
X69519550Y-86605374D01*
X69608287Y-86694111D01*
X69607290Y-86695107D01*
X69629515Y-86730717D01*
X69618730Y-86777321D01*
X69608224Y-86787826D01*
X69608287Y-86787889D01*
X69519550Y-86876625D01*
X69519548Y-86876628D01*
X69466709Y-86984712D01*
X69466709Y-86984713D01*
X69456501Y-87054778D01*
X69456500Y-87054792D01*
X69456500Y-87443213D01*
X69466708Y-87513283D01*
X69466710Y-87513290D01*
X69519548Y-87621371D01*
X69519550Y-87621374D01*
X69608287Y-87710111D01*
X69607290Y-87711107D01*
X69629515Y-87746717D01*
X69618730Y-87793321D01*
X69608224Y-87803826D01*
X69608287Y-87803889D01*
X69537168Y-87875007D01*
X69492974Y-87893313D01*
X68371028Y-87893313D01*
X68358202Y-87891983D01*
X68356890Y-87891708D01*
X68341572Y-87888496D01*
X68341569Y-87888495D01*
X68309771Y-87892460D01*
X68304851Y-87893073D01*
X68300985Y-87893313D01*
X68295203Y-87893313D01*
X68272390Y-87897119D01*
X68272391Y-87897119D01*
X68218479Y-87903839D01*
X68213520Y-87905316D01*
X68213500Y-87905249D01*
X68208516Y-87906845D01*
X68208539Y-87906911D01*
X68203642Y-87908591D01*
X68155856Y-87934452D01*
X68107035Y-87958319D01*
X68102820Y-87961329D01*
X68102780Y-87961273D01*
X68098588Y-87964399D01*
X68098631Y-87964454D01*
X68094548Y-87967631D01*
X68077892Y-87985725D01*
X68057756Y-88007598D01*
X66815163Y-89250192D01*
X65636348Y-90429007D01*
X65592154Y-90447313D01*
X65335500Y-90447313D01*
X65291306Y-90429007D01*
X65273000Y-90384813D01*
X65273000Y-90049252D01*
X65261367Y-89990769D01*
X65245563Y-89967117D01*
X65217052Y-89924447D01*
X65150732Y-89880133D01*
X65150730Y-89880132D01*
X65092248Y-89868500D01*
X63052752Y-89868500D01*
X62994269Y-89880132D01*
X62994267Y-89880133D01*
X62927947Y-89924447D01*
X62883633Y-89990767D01*
X62883632Y-89990769D01*
X62872000Y-90049251D01*
X62872000Y-91588748D01*
X61126393Y-91588748D01*
X58991306Y-89453661D01*
X58973000Y-89409467D01*
X58973000Y-88953187D01*
X58991306Y-88908993D01*
X59035500Y-88890687D01*
X62809500Y-88890687D01*
X62853694Y-88908993D01*
X62872000Y-88953187D01*
X62872000Y-89288748D01*
X62883632Y-89347230D01*
X62883633Y-89347232D01*
X62927947Y-89413552D01*
X62994267Y-89457866D01*
X62994269Y-89457867D01*
X63052752Y-89469500D01*
X65092248Y-89469500D01*
X65150731Y-89457867D01*
X65217052Y-89413552D01*
X65261367Y-89347231D01*
X65273000Y-89288748D01*
X65273000Y-88953187D01*
X65291306Y-88908993D01*
X65335500Y-88890687D01*
X65359971Y-88890687D01*
X65372796Y-88892016D01*
X65389427Y-88895504D01*
X65389428Y-88895503D01*
X65389429Y-88895504D01*
X65409718Y-88892974D01*
X65426147Y-88890926D01*
X65430014Y-88890687D01*
X65435791Y-88890687D01*
X65435797Y-88890687D01*
X65458609Y-88886880D01*
X65512523Y-88880160D01*
X65512531Y-88880155D01*
X65517489Y-88878681D01*
X65517509Y-88878751D01*
X65522476Y-88877159D01*
X65522453Y-88877091D01*
X65527345Y-88875410D01*
X65527355Y-88875409D01*
X65575143Y-88849547D01*
X65623965Y-88825680D01*
X65623969Y-88825675D01*
X65628180Y-88822670D01*
X65628222Y-88822730D01*
X65632407Y-88819610D01*
X65632362Y-88819552D01*
X65636449Y-88816370D01*
X65636448Y-88816370D01*
X65636451Y-88816369D01*
X65673243Y-88776401D01*
X66905987Y-87543656D01*
X66915988Y-87535535D01*
X66930217Y-87526240D01*
X66952946Y-87497036D01*
X66955506Y-87494137D01*
X66959599Y-87490046D01*
X66973034Y-87471227D01*
X67006409Y-87428349D01*
X67006410Y-87428344D01*
X67008874Y-87423793D01*
X67008938Y-87423827D01*
X67011329Y-87419183D01*
X67011263Y-87419151D01*
X67013533Y-87414505D01*
X67013537Y-87414501D01*
X67029039Y-87362430D01*
X67046687Y-87311024D01*
X67047540Y-87305915D01*
X67047609Y-87305926D01*
X67048363Y-87300755D01*
X67048292Y-87300747D01*
X67048932Y-87295614D01*
X67046687Y-87241329D01*
X67046687Y-86358667D01*
X67064993Y-86314473D01*
X67073686Y-86307228D01*
X67075840Y-86305740D01*
X67075852Y-86305734D01*
X67203183Y-86192929D01*
X67247090Y-86129320D01*
X67299816Y-86052933D01*
X67299817Y-86052931D01*
X67299818Y-86052930D01*
X67323228Y-85991200D01*
X67337469Y-85969174D01*
X69232643Y-84074000D01*
X88098417Y-84074000D01*
X88118699Y-84279930D01*
X88118700Y-84279935D01*
X88178766Y-84477949D01*
X88178768Y-84477954D01*
X88276311Y-84660444D01*
X88276319Y-84660455D01*
X88407588Y-84820408D01*
X88407591Y-84820411D01*
X88426345Y-84835802D01*
X88567550Y-84951685D01*
X88567553Y-84951686D01*
X88567555Y-84951688D01*
X88569471Y-84952712D01*
X88750046Y-85049232D01*
X88948066Y-85109300D01*
X89154000Y-85129583D01*
X89359934Y-85109300D01*
X89557954Y-85049232D01*
X89740450Y-84951685D01*
X89900410Y-84820410D01*
X90031685Y-84660450D01*
X90129232Y-84477954D01*
X90189300Y-84279934D01*
X90209583Y-84074000D01*
X90189300Y-83868066D01*
X90129232Y-83670046D01*
X90052292Y-83526103D01*
X90031688Y-83487555D01*
X90031686Y-83487553D01*
X90031685Y-83487550D01*
X89900410Y-83327590D01*
X89882176Y-83312626D01*
X89740455Y-83196319D01*
X89740453Y-83196318D01*
X89740450Y-83196315D01*
X89740448Y-83196313D01*
X89740444Y-83196311D01*
X89557954Y-83098768D01*
X89557949Y-83098766D01*
X89359935Y-83038700D01*
X89359930Y-83038699D01*
X89154000Y-83018417D01*
X88948069Y-83038699D01*
X88948064Y-83038700D01*
X88750050Y-83098766D01*
X88750045Y-83098768D01*
X88567555Y-83196311D01*
X88567544Y-83196319D01*
X88407591Y-83327588D01*
X88407588Y-83327591D01*
X88276319Y-83487544D01*
X88276311Y-83487555D01*
X88178768Y-83670045D01*
X88178766Y-83670050D01*
X88118700Y-83868064D01*
X88118699Y-83868069D01*
X88098417Y-84073999D01*
X88098417Y-84074000D01*
X69232643Y-84074000D01*
X71772642Y-81534000D01*
X88098417Y-81534000D01*
X88118699Y-81739930D01*
X88118700Y-81739935D01*
X88178766Y-81937949D01*
X88178768Y-81937954D01*
X88276311Y-82120444D01*
X88276319Y-82120455D01*
X88407588Y-82280408D01*
X88407591Y-82280411D01*
X88519951Y-82372622D01*
X88567550Y-82411685D01*
X88567553Y-82411686D01*
X88567555Y-82411688D01*
X88581235Y-82419000D01*
X88750046Y-82509232D01*
X88948066Y-82569300D01*
X89154000Y-82589583D01*
X89359934Y-82569300D01*
X89557954Y-82509232D01*
X89740450Y-82411685D01*
X89900410Y-82280410D01*
X90031685Y-82120450D01*
X90129232Y-81937954D01*
X90189300Y-81739934D01*
X90209583Y-81534000D01*
X90189300Y-81328066D01*
X90129232Y-81130046D01*
X90031685Y-80947550D01*
X89900410Y-80787590D01*
X89884920Y-80774878D01*
X89740455Y-80656319D01*
X89740453Y-80656318D01*
X89740450Y-80656315D01*
X89740448Y-80656313D01*
X89740444Y-80656311D01*
X89557954Y-80558768D01*
X89557949Y-80558766D01*
X89359935Y-80498700D01*
X89359930Y-80498699D01*
X89154000Y-80478417D01*
X88948069Y-80498699D01*
X88948064Y-80498700D01*
X88750050Y-80558766D01*
X88750045Y-80558768D01*
X88567555Y-80656311D01*
X88567544Y-80656319D01*
X88407591Y-80787588D01*
X88407588Y-80787591D01*
X88276319Y-80947544D01*
X88276311Y-80947555D01*
X88178768Y-81130045D01*
X88178766Y-81130050D01*
X88118700Y-81328064D01*
X88118699Y-81328069D01*
X88098417Y-81533999D01*
X88098417Y-81534000D01*
X71772642Y-81534000D01*
X74271984Y-79034658D01*
X74281985Y-79026536D01*
X74296217Y-79017240D01*
X74314304Y-78994000D01*
X88098417Y-78994000D01*
X88118699Y-79199930D01*
X88118700Y-79199935D01*
X88178766Y-79397949D01*
X88178768Y-79397954D01*
X88276311Y-79580444D01*
X88276319Y-79580455D01*
X88407588Y-79740408D01*
X88407591Y-79740411D01*
X88519951Y-79832622D01*
X88567550Y-79871685D01*
X88567553Y-79871686D01*
X88567555Y-79871688D01*
X88642912Y-79911967D01*
X88750046Y-79969232D01*
X88948066Y-80029300D01*
X89154000Y-80049583D01*
X89359934Y-80029300D01*
X89557954Y-79969232D01*
X89740450Y-79871685D01*
X89900410Y-79740410D01*
X90031685Y-79580450D01*
X90129232Y-79397954D01*
X90189300Y-79199934D01*
X90209583Y-78994000D01*
X90206454Y-78962236D01*
X90192854Y-78824153D01*
X90189300Y-78788066D01*
X90129232Y-78590046D01*
X90031685Y-78407550D01*
X89900410Y-78247590D01*
X89882176Y-78232626D01*
X89740455Y-78116319D01*
X89740453Y-78116318D01*
X89740450Y-78116315D01*
X89740448Y-78116313D01*
X89740444Y-78116311D01*
X89557954Y-78018768D01*
X89557949Y-78018766D01*
X89359935Y-77958700D01*
X89359930Y-77958699D01*
X89154000Y-77938417D01*
X88948069Y-77958699D01*
X88948064Y-77958700D01*
X88750050Y-78018766D01*
X88750045Y-78018768D01*
X88567555Y-78116311D01*
X88567544Y-78116319D01*
X88407591Y-78247588D01*
X88407588Y-78247591D01*
X88276319Y-78407544D01*
X88276311Y-78407555D01*
X88178768Y-78590045D01*
X88178766Y-78590050D01*
X88118700Y-78788064D01*
X88118699Y-78788069D01*
X88098417Y-78993999D01*
X88098417Y-78994000D01*
X74314304Y-78994000D01*
X74318955Y-78988024D01*
X74321503Y-78985139D01*
X74325599Y-78981045D01*
X74339028Y-78962236D01*
X74372409Y-78919349D01*
X74372409Y-78919346D01*
X74374872Y-78914797D01*
X74374935Y-78914831D01*
X74377328Y-78910183D01*
X74377263Y-78910151D01*
X74379533Y-78905505D01*
X74379537Y-78905501D01*
X74395039Y-78853430D01*
X74412687Y-78802024D01*
X74413540Y-78796915D01*
X74413609Y-78796926D01*
X74414363Y-78791755D01*
X74414292Y-78791747D01*
X74414932Y-78786614D01*
X74412687Y-78732328D01*
X74412687Y-77864940D01*
X74430993Y-77820746D01*
X74445725Y-77809820D01*
X74537726Y-77760644D01*
X74627450Y-77712685D01*
X74787410Y-77581410D01*
X74918685Y-77421450D01*
X75016232Y-77238954D01*
X75076300Y-77040934D01*
X75096583Y-76835000D01*
X75525417Y-76835000D01*
X75545699Y-77040930D01*
X75545700Y-77040935D01*
X75605766Y-77238949D01*
X75605768Y-77238954D01*
X75703311Y-77421444D01*
X75703319Y-77421455D01*
X75833122Y-77579622D01*
X75834590Y-77581410D01*
X75994550Y-77712685D01*
X75994553Y-77712686D01*
X75994555Y-77712688D01*
X76027718Y-77730414D01*
X76177046Y-77810232D01*
X76375066Y-77870300D01*
X76529382Y-77885499D01*
X76580999Y-77890583D01*
X76580999Y-77890582D01*
X76581000Y-77890583D01*
X76786934Y-77870300D01*
X76984954Y-77810232D01*
X77167450Y-77712685D01*
X77177121Y-77704748D01*
X79228500Y-77704748D01*
X79240132Y-77763230D01*
X79240133Y-77763232D01*
X79284447Y-77829552D01*
X79350767Y-77873866D01*
X79350769Y-77873867D01*
X79409252Y-77885500D01*
X81148748Y-77885500D01*
X81207231Y-77873867D01*
X81273552Y-77829552D01*
X81317867Y-77763231D01*
X81329500Y-77704748D01*
X81329500Y-75965252D01*
X81327920Y-75957311D01*
X81317867Y-75906769D01*
X81317866Y-75906767D01*
X81273552Y-75840447D01*
X81207232Y-75796133D01*
X81207230Y-75796132D01*
X81148748Y-75784500D01*
X79409252Y-75784500D01*
X79350769Y-75796132D01*
X79350767Y-75796133D01*
X79284447Y-75840447D01*
X79240133Y-75906767D01*
X79240132Y-75906769D01*
X79228500Y-75965251D01*
X79228500Y-77704748D01*
X77177121Y-77704748D01*
X77327410Y-77581410D01*
X77458685Y-77421450D01*
X77556232Y-77238954D01*
X77616300Y-77040934D01*
X77636583Y-76835000D01*
X77616300Y-76629066D01*
X77556232Y-76431046D01*
X77458685Y-76248550D01*
X77419622Y-76200951D01*
X77327411Y-76088591D01*
X77327408Y-76088588D01*
X77167455Y-75957319D01*
X77167453Y-75957318D01*
X77167450Y-75957315D01*
X77167448Y-75957313D01*
X77167444Y-75957311D01*
X76984954Y-75859768D01*
X76984949Y-75859766D01*
X76786935Y-75799700D01*
X76786930Y-75799699D01*
X76581000Y-75779417D01*
X76375069Y-75799699D01*
X76375064Y-75799700D01*
X76177050Y-75859766D01*
X76177045Y-75859768D01*
X75994555Y-75957311D01*
X75994544Y-75957319D01*
X75834591Y-76088588D01*
X75834588Y-76088591D01*
X75703319Y-76248544D01*
X75703311Y-76248555D01*
X75605768Y-76431045D01*
X75605766Y-76431050D01*
X75545700Y-76629064D01*
X75545699Y-76629069D01*
X75525417Y-76834999D01*
X75525417Y-76835000D01*
X75096583Y-76835000D01*
X75076300Y-76629066D01*
X75016232Y-76431046D01*
X74918685Y-76248550D01*
X74879622Y-76200951D01*
X74787411Y-76088591D01*
X74787408Y-76088588D01*
X74627455Y-75957319D01*
X74627453Y-75957318D01*
X74627450Y-75957315D01*
X74627448Y-75957313D01*
X74627444Y-75957311D01*
X74444954Y-75859768D01*
X74444949Y-75859766D01*
X74246935Y-75799700D01*
X74246930Y-75799699D01*
X74041000Y-75779417D01*
X73835069Y-75799699D01*
X73835064Y-75799700D01*
X73637050Y-75859766D01*
X73637045Y-75859768D01*
X73454555Y-75957311D01*
X73454544Y-75957319D01*
X73294591Y-76088588D01*
X73294588Y-76088591D01*
X73163319Y-76248544D01*
X73163311Y-76248555D01*
X73065768Y-76431045D01*
X73065766Y-76431050D01*
X73005700Y-76629064D01*
X73005699Y-76629069D01*
X72985417Y-76834999D01*
X72985417Y-76835000D01*
X73005699Y-77040930D01*
X73005700Y-77040935D01*
X73065766Y-77238949D01*
X73065768Y-77238954D01*
X73163311Y-77421444D01*
X73163319Y-77421455D01*
X73293122Y-77579622D01*
X73294590Y-77581410D01*
X73454550Y-77712685D01*
X73454553Y-77712686D01*
X73454555Y-77712688D01*
X73636275Y-77809820D01*
X73666622Y-77846797D01*
X73669313Y-77864940D01*
X73669313Y-78560153D01*
X73651007Y-78604347D01*
X67131478Y-85123875D01*
X67087284Y-85142181D01*
X67058240Y-85135022D01*
X66925225Y-85065210D01*
X66883932Y-85055032D01*
X66760059Y-85024500D01*
X66760056Y-85024500D01*
X66589944Y-85024500D01*
X66589940Y-85024500D01*
X66424773Y-85065210D01*
X66274148Y-85144265D01*
X66146818Y-85257069D01*
X66146811Y-85257077D01*
X66050182Y-85397068D01*
X65989859Y-85556129D01*
X65989858Y-85556135D01*
X65969355Y-85724996D01*
X65969355Y-85725003D01*
X65989858Y-85893864D01*
X65989859Y-85893870D01*
X66050182Y-86052931D01*
X66146811Y-86192922D01*
X66146816Y-86192928D01*
X66146817Y-86192929D01*
X66274143Y-86305730D01*
X66274147Y-86305733D01*
X66276317Y-86307231D01*
X66276959Y-86308224D01*
X66276978Y-86308241D01*
X66276973Y-86308246D01*
X66302288Y-86347402D01*
X66303312Y-86358667D01*
X66303313Y-87069153D01*
X66285007Y-87113347D01*
X65379694Y-88018660D01*
X65335500Y-88036966D01*
X65291306Y-88018660D01*
X65273000Y-87974466D01*
X65273000Y-87749252D01*
X65261367Y-87690769D01*
X65259801Y-87688425D01*
X65217052Y-87624447D01*
X65150732Y-87580133D01*
X65150730Y-87580132D01*
X65092248Y-87568500D01*
X63052752Y-87568500D01*
X62994269Y-87580132D01*
X62994267Y-87580133D01*
X62927947Y-87624447D01*
X62883633Y-87690767D01*
X62883632Y-87690769D01*
X62872000Y-87749251D01*
X62872000Y-88084813D01*
X62853694Y-88129007D01*
X62809500Y-88147313D01*
X59035500Y-88147313D01*
X58991306Y-88129007D01*
X58973000Y-88084813D01*
X58973000Y-86599252D01*
X58961367Y-86540769D01*
X58948900Y-86522111D01*
X58917052Y-86474447D01*
X58850732Y-86430133D01*
X58850730Y-86430132D01*
X58792248Y-86418500D01*
X56752752Y-86418500D01*
X56694269Y-86430132D01*
X56694267Y-86430133D01*
X56627947Y-86474447D01*
X56583633Y-86540767D01*
X56583632Y-86540769D01*
X56572000Y-86599251D01*
X56572000Y-90438748D01*
X56583632Y-90497230D01*
X56583633Y-90497232D01*
X56627947Y-90563552D01*
X56694267Y-90607866D01*
X56694269Y-90607867D01*
X56752752Y-90619500D01*
X58792248Y-90619500D01*
X58850731Y-90607867D01*
X58917052Y-90563552D01*
X58927955Y-90547234D01*
X58967729Y-90520657D01*
X59014645Y-90529989D01*
X59024117Y-90537762D01*
X61018694Y-92532339D01*
X61037000Y-92576533D01*
X61037000Y-92904213D01*
X61047208Y-92974283D01*
X61047210Y-92974290D01*
X61100048Y-93082371D01*
X61100050Y-93082374D01*
X61100051Y-93082375D01*
X61185125Y-93167449D01*
X61188261Y-93168982D01*
X61219926Y-93204836D01*
X61223313Y-93225132D01*
X61223313Y-93281000D01*
X61205007Y-93325194D01*
X61160813Y-93343500D01*
X60950234Y-93343500D01*
X60940624Y-93344401D01*
X60919803Y-93346353D01*
X60919798Y-93346354D01*
X60791617Y-93391207D01*
X60791616Y-93391207D01*
X60682350Y-93471850D01*
X60601707Y-93581116D01*
X60601707Y-93581117D01*
X60556854Y-93709298D01*
X60556853Y-93709303D01*
X60554000Y-93739737D01*
X60554000Y-95998262D01*
X60556853Y-96028696D01*
X60556854Y-96028701D01*
X60601707Y-96156882D01*
X60601707Y-96156883D01*
X60622285Y-96184765D01*
X60682350Y-96266150D01*
X60791618Y-96346793D01*
X60919801Y-96391646D01*
X60950234Y-96394500D01*
X61806967Y-96394500D01*
X61851161Y-96412806D01*
X63967338Y-98528983D01*
X63975463Y-98538987D01*
X63984760Y-98553217D01*
X64013966Y-98575949D01*
X64016854Y-98578499D01*
X64020954Y-98582599D01*
X64039772Y-98596034D01*
X64062810Y-98613966D01*
X64082645Y-98629405D01*
X64082647Y-98629406D01*
X64082651Y-98629409D01*
X64082654Y-98629410D01*
X64087204Y-98631872D01*
X64087169Y-98631935D01*
X64091815Y-98634326D01*
X64091847Y-98634263D01*
X64096495Y-98636535D01*
X64096497Y-98636535D01*
X64096499Y-98636537D01*
X64148569Y-98652039D01*
X64199976Y-98669687D01*
X64199979Y-98669687D01*
X64205086Y-98670540D01*
X64205074Y-98670609D01*
X64210246Y-98671363D01*
X64210255Y-98671292D01*
X64215386Y-98671932D01*
X64215388Y-98671931D01*
X64215389Y-98671932D01*
X64269671Y-98669687D01*
X69130755Y-98669687D01*
X69174949Y-98687993D01*
X69185875Y-98702725D01*
X69268086Y-98856532D01*
X69268090Y-98856538D01*
X69393117Y-99008883D01*
X69545462Y-99133910D01*
X69545464Y-99133911D01*
X69545467Y-99133913D01*
X69575339Y-99149880D01*
X69605686Y-99186857D01*
X69600997Y-99234462D01*
X69564020Y-99264809D01*
X69545877Y-99267500D01*
X53744360Y-99267500D01*
X53700166Y-99249194D01*
X52577727Y-98126755D01*
X50436480Y-95903152D01*
X50419000Y-95859799D01*
X50419000Y-95359622D01*
X50437306Y-95315428D01*
X50481500Y-95297122D01*
X50517349Y-95308425D01*
X50630426Y-95387603D01*
X50844503Y-95487428D01*
X50844519Y-95487434D01*
X51057997Y-95544635D01*
X51057999Y-95544634D01*
X51057999Y-94649501D01*
X51165685Y-94698680D01*
X51272237Y-94714000D01*
X51343763Y-94714000D01*
X51450315Y-94698680D01*
X51558000Y-94649501D01*
X51558000Y-95544634D01*
X51558001Y-95544635D01*
X51771480Y-95487434D01*
X51771496Y-95487428D01*
X51985573Y-95387603D01*
X52179081Y-95252107D01*
X52346107Y-95085081D01*
X52481601Y-94891575D01*
X52581431Y-94677489D01*
X52581432Y-94677487D01*
X52638636Y-94464001D01*
X52638636Y-94464000D01*
X51741686Y-94464000D01*
X51767493Y-94423844D01*
X51808000Y-94285889D01*
X51808000Y-94214000D01*
X52792417Y-94214000D01*
X52812699Y-94419930D01*
X52812700Y-94419935D01*
X52872766Y-94617949D01*
X52872768Y-94617954D01*
X52970311Y-94800444D01*
X52970319Y-94800455D01*
X53101588Y-94960408D01*
X53101591Y-94960411D01*
X53144193Y-94995373D01*
X53261550Y-95091685D01*
X53261553Y-95091686D01*
X53261555Y-95091688D01*
X53312652Y-95119000D01*
X53444046Y-95189232D01*
X53642066Y-95249300D01*
X53848000Y-95269583D01*
X54053934Y-95249300D01*
X54251954Y-95189232D01*
X54434450Y-95091685D01*
X54594410Y-94960410D01*
X54725685Y-94800450D01*
X54823232Y-94617954D01*
X54883300Y-94419934D01*
X54903583Y-94214000D01*
X54883300Y-94008066D01*
X54823484Y-93810877D01*
X54828173Y-93763276D01*
X54839096Y-93748547D01*
X55983987Y-92603656D01*
X55993988Y-92595535D01*
X56008217Y-92586240D01*
X56030946Y-92557036D01*
X56033506Y-92554137D01*
X56037599Y-92550046D01*
X56051034Y-92531227D01*
X56084409Y-92488349D01*
X56084410Y-92488344D01*
X56086874Y-92483793D01*
X56086938Y-92483827D01*
X56089329Y-92479183D01*
X56089263Y-92479151D01*
X56091533Y-92474505D01*
X56091537Y-92474501D01*
X56107039Y-92422430D01*
X56124687Y-92371024D01*
X56125540Y-92365915D01*
X56125609Y-92365926D01*
X56126363Y-92360755D01*
X56126292Y-92360747D01*
X56126932Y-92355614D01*
X56124687Y-92301328D01*
X56124687Y-84578000D01*
X61286331Y-84578000D01*
X61289042Y-84607836D01*
X61289044Y-84607846D01*
X61336726Y-84760861D01*
X61419642Y-84898023D01*
X61532976Y-85011357D01*
X61670138Y-85094273D01*
X61823153Y-85141955D01*
X61889663Y-85148000D01*
X61890500Y-85148000D01*
X61890500Y-84578000D01*
X61286331Y-84578000D01*
X56124687Y-84578000D01*
X56124687Y-82419000D01*
X59276001Y-82419000D01*
X59276001Y-83293987D01*
X59286492Y-83396687D01*
X59286493Y-83396694D01*
X59341641Y-83563121D01*
X59433682Y-83712343D01*
X59557656Y-83836317D01*
X59706878Y-83928358D01*
X59873308Y-83983507D01*
X59976018Y-83993999D01*
X60175998Y-83993999D01*
X60175999Y-83993998D01*
X60176000Y-82419000D01*
X60676000Y-82419000D01*
X60676000Y-83993999D01*
X60875976Y-83993999D01*
X60875987Y-83993998D01*
X60978687Y-83983507D01*
X60978694Y-83983506D01*
X61145121Y-83928358D01*
X61227322Y-83877656D01*
X61274546Y-83870036D01*
X61313328Y-83898040D01*
X61320948Y-83945264D01*
X61319803Y-83949445D01*
X61289044Y-84048153D01*
X61289042Y-84048163D01*
X61286331Y-84078000D01*
X61890500Y-84078000D01*
X61890500Y-83508000D01*
X61889663Y-83508000D01*
X61823153Y-83514044D01*
X61670138Y-83561726D01*
X61615843Y-83594548D01*
X61568552Y-83601745D01*
X61530023Y-83573394D01*
X61522826Y-83526103D01*
X61524182Y-83521402D01*
X61565507Y-83396691D01*
X61575999Y-83293986D01*
X61576000Y-83293977D01*
X61576000Y-82419000D01*
X60676000Y-82419000D01*
X60176000Y-82419000D01*
X59276001Y-82419000D01*
X56124687Y-82419000D01*
X56124687Y-81919000D01*
X59276000Y-81919000D01*
X60175999Y-81919000D01*
X60175999Y-80344000D01*
X60676000Y-80344000D01*
X60676000Y-81919000D01*
X61575999Y-81919000D01*
X61575999Y-81044023D01*
X61575998Y-81044012D01*
X61565507Y-80941312D01*
X61565506Y-80941305D01*
X61510358Y-80774878D01*
X61418317Y-80625656D01*
X61294343Y-80501682D01*
X61145121Y-80409641D01*
X60978691Y-80354492D01*
X60875986Y-80344000D01*
X60676000Y-80344000D01*
X60175999Y-80344000D01*
X59976024Y-80344000D01*
X59976012Y-80344001D01*
X59873312Y-80354492D01*
X59873305Y-80354493D01*
X59706878Y-80409641D01*
X59557656Y-80501682D01*
X59433682Y-80625656D01*
X59341641Y-80774878D01*
X59286492Y-80941308D01*
X59276000Y-81044013D01*
X59276000Y-81919000D01*
X56124687Y-81919000D01*
X56124687Y-79079500D01*
X62807000Y-79079500D01*
X62807000Y-79080337D01*
X62813044Y-79146846D01*
X62860726Y-79299861D01*
X62943642Y-79437023D01*
X63056976Y-79550357D01*
X63194138Y-79633273D01*
X63347154Y-79680955D01*
X63377000Y-79683667D01*
X63377000Y-79079500D01*
X63877000Y-79079500D01*
X63877000Y-79683666D01*
X63906845Y-79680955D01*
X64059862Y-79633273D01*
X64059867Y-79633271D01*
X64102664Y-79607398D01*
X64149954Y-79600199D01*
X64167333Y-79607397D01*
X64210137Y-79633273D01*
X64363154Y-79680955D01*
X64363155Y-79680956D01*
X64392999Y-79683667D01*
X64392999Y-79683666D01*
X64892999Y-79683666D01*
X64922845Y-79680955D01*
X65075861Y-79633273D01*
X65213023Y-79550357D01*
X65326357Y-79437023D01*
X65409273Y-79299861D01*
X65456955Y-79146846D01*
X65463000Y-79080337D01*
X65463000Y-79079500D01*
X64893000Y-79079500D01*
X64892999Y-79683666D01*
X64392999Y-79683666D01*
X64393000Y-79079500D01*
X63877000Y-79079500D01*
X63377000Y-79079500D01*
X62807000Y-79079500D01*
X56124687Y-79079500D01*
X56124687Y-76761187D01*
X56142993Y-76716993D01*
X56187187Y-76698687D01*
X60211068Y-76698687D01*
X60255262Y-76716993D01*
X60270060Y-76740542D01*
X60280884Y-76771475D01*
X60359289Y-76877711D01*
X60413184Y-76917487D01*
X60465523Y-76956115D01*
X60465524Y-76956115D01*
X60465525Y-76956116D01*
X60590151Y-76999725D01*
X60619744Y-77002500D01*
X60619747Y-77002500D01*
X61300253Y-77002500D01*
X61300256Y-77002500D01*
X61329849Y-76999725D01*
X61454475Y-76956116D01*
X61560711Y-76877711D01*
X61639116Y-76771475D01*
X61682725Y-76646849D01*
X61685500Y-76617256D01*
X61685500Y-76617252D01*
X61984500Y-76617252D01*
X61987274Y-76646846D01*
X61987274Y-76646847D01*
X61987275Y-76646849D01*
X61993222Y-76663844D01*
X62030884Y-76771476D01*
X62070086Y-76824592D01*
X62109289Y-76877711D01*
X62163184Y-76917487D01*
X62215523Y-76956115D01*
X62215524Y-76956115D01*
X62215525Y-76956116D01*
X62340151Y-76999725D01*
X62369744Y-77002500D01*
X62369747Y-77002500D01*
X63050253Y-77002500D01*
X63050256Y-77002500D01*
X63079849Y-76999725D01*
X63172170Y-76967420D01*
X63219929Y-76970102D01*
X63251805Y-77005770D01*
X63255312Y-77026412D01*
X63255313Y-77112973D01*
X63237008Y-77157168D01*
X63237007Y-77157168D01*
X63169551Y-77224624D01*
X63169548Y-77224628D01*
X63116709Y-77332712D01*
X63116709Y-77332713D01*
X63106501Y-77402778D01*
X63106500Y-77402792D01*
X63106500Y-77866213D01*
X63116708Y-77936283D01*
X63116710Y-77936289D01*
X63143013Y-77990091D01*
X63145978Y-78037834D01*
X63119199Y-78071027D01*
X63056973Y-78108645D01*
X62943642Y-78221976D01*
X62860726Y-78359138D01*
X62813044Y-78512153D01*
X62807000Y-78578662D01*
X62807000Y-78579500D01*
X65463000Y-78579500D01*
X65463000Y-78578662D01*
X65456955Y-78512153D01*
X65409273Y-78359138D01*
X65326357Y-78221976D01*
X65213024Y-78108643D01*
X65150801Y-78071028D01*
X65122451Y-78032499D01*
X65126985Y-77990093D01*
X65153291Y-77936286D01*
X65163500Y-77866215D01*
X65163499Y-77402786D01*
X65153291Y-77332714D01*
X65153289Y-77332709D01*
X65100451Y-77224628D01*
X65100448Y-77224624D01*
X65032993Y-77157168D01*
X65014687Y-77112974D01*
X65014687Y-75483029D01*
X65016017Y-75470202D01*
X65019504Y-75453573D01*
X65019504Y-75453571D01*
X65014927Y-75416853D01*
X65014687Y-75412984D01*
X65014687Y-75407208D01*
X65014687Y-75407203D01*
X65010882Y-75384402D01*
X65004161Y-75330478D01*
X65004161Y-75330477D01*
X65002684Y-75325515D01*
X65002752Y-75325494D01*
X65001160Y-75320523D01*
X65001092Y-75320547D01*
X64999409Y-75315645D01*
X64984318Y-75287760D01*
X64973549Y-75267860D01*
X64949680Y-75219035D01*
X64949678Y-75219033D01*
X64949678Y-75219032D01*
X64946671Y-75214821D01*
X64946729Y-75214779D01*
X64943605Y-75210589D01*
X64943548Y-75210634D01*
X64940368Y-75206547D01*
X64900401Y-75169756D01*
X64175661Y-74445016D01*
X64167531Y-74435005D01*
X64158239Y-74420782D01*
X64129037Y-74398053D01*
X64126139Y-74395494D01*
X64122046Y-74391401D01*
X64103227Y-74377965D01*
X64076920Y-74357489D01*
X64060348Y-74344590D01*
X64055793Y-74342125D01*
X64055826Y-74342062D01*
X64051185Y-74339673D01*
X64051154Y-74339738D01*
X64046495Y-74337460D01*
X63994430Y-74321960D01*
X63994429Y-74321960D01*
X63943024Y-74304313D01*
X63943023Y-74304313D01*
X63943020Y-74304312D01*
X63937914Y-74303460D01*
X63937925Y-74303390D01*
X63932753Y-74302636D01*
X63932745Y-74302708D01*
X63927613Y-74302067D01*
X63873329Y-74304313D01*
X63458932Y-74304313D01*
X63414738Y-74286007D01*
X63399939Y-74262456D01*
X63393760Y-74244798D01*
X63389116Y-74231525D01*
X63310711Y-74125289D01*
X63257593Y-74086086D01*
X63204476Y-74046884D01*
X63142161Y-74025079D01*
X63079849Y-74003275D01*
X63079847Y-74003274D01*
X63079846Y-74003274D01*
X63058578Y-74001280D01*
X63050256Y-74000500D01*
X62369744Y-74000500D01*
X62362135Y-74001213D01*
X62340153Y-74003274D01*
X62340151Y-74003275D01*
X62215523Y-74046884D01*
X62109289Y-74125289D01*
X62030884Y-74231523D01*
X61987275Y-74356151D01*
X61987274Y-74356153D01*
X61984500Y-74385747D01*
X61984500Y-74966252D01*
X61987274Y-74995846D01*
X61987274Y-74995847D01*
X61987275Y-74995849D01*
X61989952Y-75003499D01*
X62030884Y-75120476D01*
X62060615Y-75160760D01*
X62109289Y-75226711D01*
X62181260Y-75279828D01*
X62215523Y-75305115D01*
X62215524Y-75305115D01*
X62215525Y-75305116D01*
X62340151Y-75348725D01*
X62369744Y-75351500D01*
X62369747Y-75351500D01*
X63050253Y-75351500D01*
X63050256Y-75351500D01*
X63079849Y-75348725D01*
X63204475Y-75305116D01*
X63310711Y-75226711D01*
X63389116Y-75120475D01*
X63399939Y-75089543D01*
X63431814Y-75053876D01*
X63458932Y-75047687D01*
X63701154Y-75047687D01*
X63745348Y-75065993D01*
X64253007Y-75573651D01*
X64271313Y-75617845D01*
X64271313Y-77112974D01*
X64253007Y-77157168D01*
X64181889Y-77228287D01*
X64180892Y-77227290D01*
X64145283Y-77249515D01*
X64098679Y-77238730D01*
X64088173Y-77228224D01*
X64088111Y-77228287D01*
X64016993Y-77157168D01*
X63998687Y-77112974D01*
X63998687Y-76880028D01*
X64000017Y-76867201D01*
X64003504Y-76850572D01*
X64003504Y-76850570D01*
X63998927Y-76813855D01*
X63998687Y-76809985D01*
X63998687Y-76804208D01*
X63998687Y-76804203D01*
X63994880Y-76781391D01*
X63988160Y-76727477D01*
X63988158Y-76727473D01*
X63986681Y-76722509D01*
X63986750Y-76722488D01*
X63985160Y-76717524D01*
X63985092Y-76717548D01*
X63983408Y-76712643D01*
X63957547Y-76664856D01*
X63940049Y-76629064D01*
X63933680Y-76616035D01*
X63933678Y-76616033D01*
X63933678Y-76616032D01*
X63930671Y-76611821D01*
X63930729Y-76611779D01*
X63927605Y-76607589D01*
X63927548Y-76607634D01*
X63924368Y-76603547D01*
X63884401Y-76566756D01*
X63453806Y-76136160D01*
X63435500Y-76091966D01*
X63435500Y-76036747D01*
X63432725Y-76007153D01*
X63432725Y-76007151D01*
X63389116Y-75882525D01*
X63369425Y-75855845D01*
X63350319Y-75829957D01*
X63310711Y-75776289D01*
X63217628Y-75707591D01*
X63204476Y-75697884D01*
X63142161Y-75676079D01*
X63079849Y-75654275D01*
X63079847Y-75654274D01*
X63079846Y-75654274D01*
X63058577Y-75652280D01*
X63050256Y-75651500D01*
X62369744Y-75651500D01*
X62362135Y-75652213D01*
X62340153Y-75654274D01*
X62340151Y-75654275D01*
X62215523Y-75697884D01*
X62109289Y-75776289D01*
X62030884Y-75882523D01*
X61987275Y-76007151D01*
X61987274Y-76007153D01*
X61984500Y-76036747D01*
X61984500Y-76617252D01*
X61685500Y-76617252D01*
X61685500Y-76036744D01*
X61682725Y-76007151D01*
X61639116Y-75882525D01*
X61619425Y-75855845D01*
X61600319Y-75829957D01*
X61560711Y-75776289D01*
X61467628Y-75707591D01*
X61454476Y-75697884D01*
X61392162Y-75676079D01*
X61329849Y-75654275D01*
X61329847Y-75654274D01*
X61329846Y-75654274D01*
X61308577Y-75652280D01*
X61300256Y-75651500D01*
X60619744Y-75651500D01*
X60612135Y-75652213D01*
X60590153Y-75654274D01*
X60590151Y-75654275D01*
X60465523Y-75697884D01*
X60359289Y-75776289D01*
X60297681Y-75859766D01*
X60280884Y-75882525D01*
X60272402Y-75906767D01*
X60270061Y-75913456D01*
X60238186Y-75949124D01*
X60211068Y-75955313D01*
X56187187Y-75955313D01*
X56142993Y-75937007D01*
X56124687Y-75892813D01*
X56124687Y-75617845D01*
X56142992Y-75573652D01*
X56750392Y-74966252D01*
X60234500Y-74966252D01*
X60237274Y-74995846D01*
X60237274Y-74995847D01*
X60237275Y-74995849D01*
X60239952Y-75003499D01*
X60280884Y-75120476D01*
X60310615Y-75160760D01*
X60359289Y-75226711D01*
X60431260Y-75279827D01*
X60465523Y-75305115D01*
X60465524Y-75305115D01*
X60465525Y-75305116D01*
X60590151Y-75348725D01*
X60619744Y-75351500D01*
X60619747Y-75351500D01*
X61300253Y-75351500D01*
X61300256Y-75351500D01*
X61329849Y-75348725D01*
X61454475Y-75305116D01*
X61560711Y-75226711D01*
X61639116Y-75120475D01*
X61682725Y-74995849D01*
X61685500Y-74966256D01*
X61685500Y-74385744D01*
X61682725Y-74356151D01*
X61639116Y-74231525D01*
X61634151Y-74224798D01*
X61560710Y-74125288D01*
X61484073Y-74068727D01*
X61459385Y-74027755D01*
X61458687Y-74018440D01*
X61458687Y-71402000D01*
X61476993Y-71357806D01*
X61521187Y-71339500D01*
X61589812Y-71339500D01*
X61753758Y-71304652D01*
X61800793Y-71313369D01*
X61810947Y-71321592D01*
X66301006Y-75811651D01*
X66319312Y-75855845D01*
X66319312Y-78824153D01*
X66301006Y-78868347D01*
X64704905Y-80464448D01*
X64695587Y-80471398D01*
X64695631Y-80471454D01*
X64691548Y-80474631D01*
X64673152Y-80494614D01*
X64654756Y-80514598D01*
X64566226Y-80603128D01*
X64362925Y-80806428D01*
X64318731Y-80824734D01*
X64274537Y-80806428D01*
X64268446Y-80799351D01*
X64248150Y-80771850D01*
X64242379Y-80767591D01*
X64138882Y-80691207D01*
X64010701Y-80646354D01*
X64010696Y-80646353D01*
X63990699Y-80644478D01*
X63980266Y-80643500D01*
X63071734Y-80643500D01*
X63062124Y-80644401D01*
X63041303Y-80646353D01*
X63041298Y-80646354D01*
X62913117Y-80691207D01*
X62913116Y-80691207D01*
X62803850Y-80771850D01*
X62723207Y-80881116D01*
X62723207Y-80881117D01*
X62678354Y-81009298D01*
X62678353Y-81009303D01*
X62677913Y-81014000D01*
X62675500Y-81039734D01*
X62675500Y-83298266D01*
X62676478Y-83308699D01*
X62678353Y-83328696D01*
X62678354Y-83328701D01*
X62718187Y-83442536D01*
X62723207Y-83456882D01*
X62766132Y-83515043D01*
X62777646Y-83561472D01*
X62752958Y-83602445D01*
X62706529Y-83613959D01*
X62683511Y-83605643D01*
X62610866Y-83561728D01*
X62610862Y-83561726D01*
X62457846Y-83514044D01*
X62391337Y-83508000D01*
X62390500Y-83508000D01*
X62390500Y-85148000D01*
X62391337Y-85148000D01*
X62457846Y-85141955D01*
X62610861Y-85094273D01*
X62748023Y-85011357D01*
X62861357Y-84898023D01*
X62898970Y-84835802D01*
X62937499Y-84807451D01*
X62979906Y-84811985D01*
X63033714Y-84838291D01*
X63074823Y-84844280D01*
X63115917Y-84868766D01*
X63128313Y-84906127D01*
X63128313Y-85206000D01*
X63110007Y-85250194D01*
X63065813Y-85268500D01*
X63052752Y-85268500D01*
X62994269Y-85280132D01*
X62994267Y-85280133D01*
X62927947Y-85324447D01*
X62883633Y-85390767D01*
X62883632Y-85390769D01*
X62872000Y-85449251D01*
X62872000Y-86988748D01*
X62883632Y-87047230D01*
X62883633Y-87047232D01*
X62927947Y-87113552D01*
X62994267Y-87157866D01*
X62994269Y-87157867D01*
X63052752Y-87169500D01*
X65092248Y-87169500D01*
X65150731Y-87157867D01*
X65217052Y-87113552D01*
X65261367Y-87047231D01*
X65273000Y-86988748D01*
X65273000Y-85449252D01*
X65261367Y-85390769D01*
X65247766Y-85370414D01*
X65217052Y-85324447D01*
X65150732Y-85280133D01*
X65150730Y-85280132D01*
X65092248Y-85268500D01*
X63934187Y-85268500D01*
X63889993Y-85250194D01*
X63871687Y-85206000D01*
X63871687Y-84630481D01*
X63878038Y-84603031D01*
X63883291Y-84592286D01*
X63893500Y-84522215D01*
X63893499Y-84222151D01*
X63896887Y-84201854D01*
X63897686Y-84199526D01*
X63897687Y-84199524D01*
X63897687Y-84199520D01*
X63898539Y-84194416D01*
X63898609Y-84194427D01*
X63899363Y-84189255D01*
X63899292Y-84189247D01*
X63899932Y-84184114D01*
X63897687Y-84129828D01*
X63897687Y-83920076D01*
X66166475Y-83920076D01*
X66290459Y-83986347D01*
X66478967Y-84043531D01*
X66675000Y-84062839D01*
X66871032Y-84043531D01*
X67059536Y-83986348D01*
X67183523Y-83920076D01*
X66675000Y-83411553D01*
X66166475Y-83920076D01*
X63897687Y-83920076D01*
X63897687Y-83757000D01*
X63915993Y-83712806D01*
X63960187Y-83694500D01*
X63980262Y-83694500D01*
X63980266Y-83694500D01*
X64010699Y-83691646D01*
X64138882Y-83646793D01*
X64248150Y-83566150D01*
X64328793Y-83456882D01*
X64373646Y-83328699D01*
X64376500Y-83298266D01*
X64376500Y-83058000D01*
X65670161Y-83058000D01*
X65689468Y-83254032D01*
X65746650Y-83442536D01*
X65812922Y-83566523D01*
X66321445Y-83058000D01*
X67028553Y-83058000D01*
X67537076Y-83566523D01*
X67603348Y-83442536D01*
X67660531Y-83254032D01*
X67679839Y-83058000D01*
X67679839Y-83057999D01*
X67660531Y-82861967D01*
X67603347Y-82673459D01*
X67537076Y-82549475D01*
X67028553Y-83057999D01*
X67028553Y-83058000D01*
X66321445Y-83058000D01*
X66321445Y-83057999D01*
X65812922Y-82549475D01*
X65746650Y-82673463D01*
X65689468Y-82861967D01*
X65670161Y-83057999D01*
X65670161Y-83058000D01*
X64376500Y-83058000D01*
X64376500Y-82195922D01*
X66166475Y-82195922D01*
X66674999Y-82704446D01*
X67183523Y-82195922D01*
X67059536Y-82129650D01*
X66871032Y-82072468D01*
X66675000Y-82053161D01*
X66478967Y-82072468D01*
X66290463Y-82129650D01*
X66166475Y-82195922D01*
X64376500Y-82195922D01*
X64376500Y-81870032D01*
X64394806Y-81825838D01*
X65058652Y-81161993D01*
X65102846Y-81143687D01*
X66047583Y-81143687D01*
X66091777Y-81161993D01*
X66099015Y-81170677D01*
X66146817Y-81239929D01*
X66274148Y-81352734D01*
X66424775Y-81431790D01*
X66589944Y-81472500D01*
X66589946Y-81472500D01*
X66760054Y-81472500D01*
X66760056Y-81472500D01*
X66925225Y-81431790D01*
X67075852Y-81352734D01*
X67203183Y-81239929D01*
X67299818Y-81099930D01*
X67360140Y-80940872D01*
X67376465Y-80806428D01*
X67380645Y-80772003D01*
X67380645Y-80771996D01*
X67360141Y-80603135D01*
X67360140Y-80603129D01*
X67343316Y-80558768D01*
X67299818Y-80444070D01*
X67282563Y-80419072D01*
X67203188Y-80304077D01*
X67203181Y-80304069D01*
X67075851Y-80191265D01*
X66925226Y-80112210D01*
X66760059Y-80071500D01*
X66760056Y-80071500D01*
X66589944Y-80071500D01*
X66589940Y-80071500D01*
X66424773Y-80112210D01*
X66274148Y-80191265D01*
X66146818Y-80304069D01*
X66146816Y-80304071D01*
X66146817Y-80304071D01*
X66099018Y-80373317D01*
X66058849Y-80399289D01*
X66047583Y-80400313D01*
X65971220Y-80400313D01*
X65927026Y-80382007D01*
X65908720Y-80337813D01*
X65927026Y-80293619D01*
X66171062Y-80049583D01*
X66921987Y-79298656D01*
X66931988Y-79290535D01*
X66946217Y-79281240D01*
X66968946Y-79252036D01*
X66971506Y-79249137D01*
X66975599Y-79245046D01*
X66989034Y-79226227D01*
X67022409Y-79183349D01*
X67022410Y-79183344D01*
X67024874Y-79178793D01*
X67024938Y-79178827D01*
X67027329Y-79174183D01*
X67027263Y-79174151D01*
X67029533Y-79169505D01*
X67029537Y-79169501D01*
X67045039Y-79117430D01*
X67062687Y-79066024D01*
X67063540Y-79060915D01*
X67063609Y-79060926D01*
X67064362Y-79055756D01*
X67064291Y-79055748D01*
X67064929Y-79050618D01*
X67064932Y-79050611D01*
X67062686Y-78996328D01*
X67062686Y-76724216D01*
X67080992Y-76680025D01*
X67125186Y-76661719D01*
X67169380Y-76680025D01*
X67555338Y-77065983D01*
X67563463Y-77075987D01*
X67572760Y-77090217D01*
X67601966Y-77112949D01*
X67604854Y-77115499D01*
X67608955Y-77119600D01*
X67608956Y-77119601D01*
X67627779Y-77133040D01*
X67670649Y-77166408D01*
X67675205Y-77168873D01*
X67675170Y-77168936D01*
X67679816Y-77171328D01*
X67679848Y-77171264D01*
X67684499Y-77173538D01*
X67736591Y-77189046D01*
X67787975Y-77206687D01*
X67793085Y-77207540D01*
X67793073Y-77207609D01*
X67798246Y-77208363D01*
X67798255Y-77208293D01*
X67803385Y-77208932D01*
X67803385Y-77208931D01*
X67803389Y-77208933D01*
X67845417Y-77207194D01*
X67890329Y-77223658D01*
X67910447Y-77267057D01*
X67910500Y-77269641D01*
X67910500Y-77704748D01*
X67922132Y-77763230D01*
X67922133Y-77763232D01*
X67966447Y-77829552D01*
X68032767Y-77873866D01*
X68032769Y-77873867D01*
X68091252Y-77885500D01*
X69830748Y-77885500D01*
X69889231Y-77873867D01*
X69955552Y-77829552D01*
X69999867Y-77763231D01*
X70011500Y-77704748D01*
X70011500Y-76835000D01*
X70445417Y-76835000D01*
X70465699Y-77040930D01*
X70465700Y-77040935D01*
X70525766Y-77238949D01*
X70525768Y-77238954D01*
X70623311Y-77421444D01*
X70623319Y-77421455D01*
X70753122Y-77579622D01*
X70754590Y-77581410D01*
X70914550Y-77712685D01*
X70914553Y-77712686D01*
X70914555Y-77712688D01*
X70947718Y-77730414D01*
X71097046Y-77810232D01*
X71295066Y-77870300D01*
X71501000Y-77890583D01*
X71706934Y-77870300D01*
X71904954Y-77810232D01*
X72087450Y-77712685D01*
X72247410Y-77581410D01*
X72378685Y-77421450D01*
X72476232Y-77238954D01*
X72536300Y-77040934D01*
X72556583Y-76835000D01*
X72536300Y-76629066D01*
X72476232Y-76431046D01*
X72378685Y-76248550D01*
X72339622Y-76200951D01*
X72247411Y-76088591D01*
X72247408Y-76088588D01*
X72087455Y-75957319D01*
X72087453Y-75957318D01*
X72087450Y-75957315D01*
X72087448Y-75957313D01*
X72087444Y-75957311D01*
X71905725Y-75860180D01*
X71875378Y-75823203D01*
X71872687Y-75805060D01*
X71872687Y-75744846D01*
X71890993Y-75700652D01*
X77859652Y-69731993D01*
X77903846Y-69713687D01*
X81227154Y-69713687D01*
X81271348Y-69731993D01*
X82429007Y-70889651D01*
X82447313Y-70933845D01*
X82447313Y-75805060D01*
X82429007Y-75849254D01*
X82414275Y-75860180D01*
X82232555Y-75957311D01*
X82232544Y-75957319D01*
X82072591Y-76088588D01*
X82072588Y-76088591D01*
X81941319Y-76248544D01*
X81941311Y-76248555D01*
X81843768Y-76431045D01*
X81843766Y-76431050D01*
X81783700Y-76629064D01*
X81783699Y-76629069D01*
X81763417Y-76834999D01*
X81763417Y-76835000D01*
X81783699Y-77040930D01*
X81783700Y-77040935D01*
X81843766Y-77238949D01*
X81843768Y-77238954D01*
X81941311Y-77421444D01*
X81941319Y-77421455D01*
X82071122Y-77579622D01*
X82072590Y-77581410D01*
X82232550Y-77712685D01*
X82232553Y-77712686D01*
X82232555Y-77712688D01*
X82265718Y-77730414D01*
X82415046Y-77810232D01*
X82613066Y-77870300D01*
X82767382Y-77885499D01*
X82818999Y-77890583D01*
X82818999Y-77890582D01*
X82819000Y-77890583D01*
X83024934Y-77870300D01*
X83222954Y-77810232D01*
X83405450Y-77712685D01*
X83565410Y-77581410D01*
X83696685Y-77421450D01*
X83794232Y-77238954D01*
X83854300Y-77040934D01*
X83874583Y-76835000D01*
X84303417Y-76835000D01*
X84323699Y-77040930D01*
X84323700Y-77040935D01*
X84383766Y-77238949D01*
X84383768Y-77238954D01*
X84481311Y-77421444D01*
X84481319Y-77421455D01*
X84611122Y-77579622D01*
X84612590Y-77581410D01*
X84772550Y-77712685D01*
X84772553Y-77712686D01*
X84772555Y-77712688D01*
X84805718Y-77730414D01*
X84955046Y-77810232D01*
X85153066Y-77870300D01*
X85307382Y-77885499D01*
X85358999Y-77890583D01*
X85358999Y-77890582D01*
X85359000Y-77890583D01*
X85564934Y-77870300D01*
X85762954Y-77810232D01*
X85945450Y-77712685D01*
X86105410Y-77581410D01*
X86236685Y-77421450D01*
X86334232Y-77238954D01*
X86394300Y-77040934D01*
X86414583Y-76835000D01*
X86394300Y-76629066D01*
X86341195Y-76454000D01*
X88098417Y-76454000D01*
X88118699Y-76659930D01*
X88118700Y-76659935D01*
X88178766Y-76857949D01*
X88178768Y-76857954D01*
X88276311Y-77040444D01*
X88276319Y-77040455D01*
X88407588Y-77200408D01*
X88407591Y-77200411D01*
X88441482Y-77228224D01*
X88567550Y-77331685D01*
X88567553Y-77331686D01*
X88567555Y-77331688D01*
X88642912Y-77371967D01*
X88750046Y-77429232D01*
X88948066Y-77489300D01*
X89154000Y-77509583D01*
X89359934Y-77489300D01*
X89557954Y-77429232D01*
X89740450Y-77331685D01*
X89900410Y-77200410D01*
X90031685Y-77040450D01*
X90129232Y-76857954D01*
X90189300Y-76659934D01*
X90209583Y-76454000D01*
X90189300Y-76248066D01*
X90129232Y-76050046D01*
X90067204Y-75934000D01*
X90031688Y-75867555D01*
X90031686Y-75867553D01*
X90031685Y-75867550D01*
X89956899Y-75776422D01*
X89900411Y-75707591D01*
X89900408Y-75707588D01*
X89740455Y-75576319D01*
X89740453Y-75576318D01*
X89740450Y-75576315D01*
X89740448Y-75576313D01*
X89740444Y-75576311D01*
X89557954Y-75478768D01*
X89557949Y-75478766D01*
X89359935Y-75418700D01*
X89359930Y-75418699D01*
X89154000Y-75398417D01*
X88948069Y-75418699D01*
X88948064Y-75418700D01*
X88750050Y-75478766D01*
X88750045Y-75478768D01*
X88567555Y-75576311D01*
X88567544Y-75576319D01*
X88407591Y-75707588D01*
X88407588Y-75707591D01*
X88276319Y-75867544D01*
X88276311Y-75867555D01*
X88178768Y-76050045D01*
X88178766Y-76050050D01*
X88118700Y-76248064D01*
X88118699Y-76248069D01*
X88098417Y-76453999D01*
X88098417Y-76454000D01*
X86341195Y-76454000D01*
X86334232Y-76431046D01*
X86236685Y-76248550D01*
X86197622Y-76200951D01*
X86105411Y-76088591D01*
X86105408Y-76088588D01*
X85945455Y-75957319D01*
X85945453Y-75957318D01*
X85945450Y-75957315D01*
X85945448Y-75957313D01*
X85945444Y-75957311D01*
X85763725Y-75860180D01*
X85733378Y-75823203D01*
X85730687Y-75805060D01*
X85730687Y-75348846D01*
X85748993Y-75304652D01*
X87139645Y-73914000D01*
X88098417Y-73914000D01*
X88118699Y-74119930D01*
X88118700Y-74119935D01*
X88178766Y-74317949D01*
X88178768Y-74317954D01*
X88276311Y-74500444D01*
X88276319Y-74500455D01*
X88407588Y-74660408D01*
X88407591Y-74660411D01*
X88519951Y-74752622D01*
X88567550Y-74791685D01*
X88567553Y-74791686D01*
X88567555Y-74791688D01*
X88642912Y-74831967D01*
X88750046Y-74889232D01*
X88948066Y-74949300D01*
X89154000Y-74969583D01*
X89359934Y-74949300D01*
X89557954Y-74889232D01*
X89740450Y-74791685D01*
X89900410Y-74660410D01*
X90031685Y-74500450D01*
X90129232Y-74317954D01*
X90189300Y-74119934D01*
X90209583Y-73914000D01*
X90189300Y-73708066D01*
X90129232Y-73510046D01*
X90031685Y-73327550D01*
X89900410Y-73167590D01*
X89882176Y-73152626D01*
X89740455Y-73036319D01*
X89740453Y-73036318D01*
X89740450Y-73036315D01*
X89740448Y-73036313D01*
X89740444Y-73036311D01*
X89557954Y-72938768D01*
X89557949Y-72938766D01*
X89359935Y-72878700D01*
X89359930Y-72878699D01*
X89154000Y-72858417D01*
X88948069Y-72878699D01*
X88948064Y-72878700D01*
X88750050Y-72938766D01*
X88750045Y-72938768D01*
X88567555Y-73036311D01*
X88567544Y-73036319D01*
X88407591Y-73167588D01*
X88407588Y-73167591D01*
X88276319Y-73327544D01*
X88276311Y-73327555D01*
X88178768Y-73510045D01*
X88178766Y-73510050D01*
X88118700Y-73708064D01*
X88118699Y-73708069D01*
X88098417Y-73913999D01*
X88098417Y-73914000D01*
X87139645Y-73914000D01*
X88610839Y-72442806D01*
X88655033Y-72424500D01*
X89808262Y-72424500D01*
X89808266Y-72424500D01*
X89838699Y-72421646D01*
X89966882Y-72376793D01*
X90076150Y-72296150D01*
X90156793Y-72186882D01*
X90201646Y-72058699D01*
X90204500Y-72028266D01*
X90204500Y-70719734D01*
X90201646Y-70689301D01*
X90156793Y-70561118D01*
X90137544Y-70535037D01*
X90108965Y-70496313D01*
X90076150Y-70451850D01*
X89966882Y-70371207D01*
X89933274Y-70359447D01*
X89838701Y-70326354D01*
X89838696Y-70326353D01*
X89818699Y-70324478D01*
X89808266Y-70323500D01*
X88499734Y-70323500D01*
X88490124Y-70324401D01*
X88469303Y-70326353D01*
X88469298Y-70326354D01*
X88341117Y-70371207D01*
X88341116Y-70371207D01*
X88231850Y-70451850D01*
X88151207Y-70561116D01*
X88151207Y-70561117D01*
X88106354Y-70689298D01*
X88106353Y-70689303D01*
X88103500Y-70719737D01*
X88103500Y-71872966D01*
X88085194Y-71917160D01*
X85128016Y-74874337D01*
X85118010Y-74882464D01*
X85103782Y-74891760D01*
X85103780Y-74891762D01*
X85081057Y-74920956D01*
X85078496Y-74923856D01*
X85074407Y-74927946D01*
X85074404Y-74927950D01*
X85060964Y-74946772D01*
X85027590Y-74989651D01*
X85025127Y-74994204D01*
X85025066Y-74994171D01*
X85022675Y-74998817D01*
X85022737Y-74998848D01*
X85020462Y-75003501D01*
X85004960Y-75055569D01*
X84987312Y-75106977D01*
X84986460Y-75112086D01*
X84986390Y-75112074D01*
X84985637Y-75117246D01*
X84985708Y-75117255D01*
X84985067Y-75122386D01*
X84987313Y-75176671D01*
X84987313Y-75805060D01*
X84969007Y-75849254D01*
X84954275Y-75860180D01*
X84772555Y-75957311D01*
X84772544Y-75957319D01*
X84612591Y-76088588D01*
X84612588Y-76088591D01*
X84481319Y-76248544D01*
X84481311Y-76248555D01*
X84383768Y-76431045D01*
X84383766Y-76431050D01*
X84323700Y-76629064D01*
X84323699Y-76629069D01*
X84303417Y-76834999D01*
X84303417Y-76835000D01*
X83874583Y-76835000D01*
X83854300Y-76629066D01*
X83794232Y-76431046D01*
X83696685Y-76248550D01*
X83657622Y-76200951D01*
X83565411Y-76088591D01*
X83565408Y-76088588D01*
X83405455Y-75957319D01*
X83405453Y-75957318D01*
X83405450Y-75957315D01*
X83405448Y-75957313D01*
X83405444Y-75957311D01*
X83223725Y-75860180D01*
X83193378Y-75823203D01*
X83190687Y-75805060D01*
X83190687Y-70799029D01*
X83192017Y-70786202D01*
X83195504Y-70769573D01*
X83195504Y-70769571D01*
X83190927Y-70732853D01*
X83190687Y-70728984D01*
X83190687Y-70723208D01*
X83190687Y-70723203D01*
X83186882Y-70700402D01*
X83180161Y-70646478D01*
X83180161Y-70646477D01*
X83178684Y-70641515D01*
X83178752Y-70641494D01*
X83177160Y-70636523D01*
X83177092Y-70636547D01*
X83175409Y-70631645D01*
X83149546Y-70583855D01*
X83125681Y-70535037D01*
X83122671Y-70530822D01*
X83122728Y-70530780D01*
X83119605Y-70526591D01*
X83119549Y-70526636D01*
X83116372Y-70522555D01*
X83116369Y-70522549D01*
X83099081Y-70506634D01*
X83076389Y-70485744D01*
X82411026Y-69820381D01*
X82392720Y-69776187D01*
X82411026Y-69731993D01*
X82455220Y-69713687D01*
X90625154Y-69713687D01*
X90669348Y-69731993D01*
X91260484Y-70323129D01*
X91278790Y-70367323D01*
X91260484Y-70411517D01*
X91245753Y-70422443D01*
X91107552Y-70496313D01*
X91107544Y-70496319D01*
X90947591Y-70627588D01*
X90947588Y-70627591D01*
X90816319Y-70787544D01*
X90816311Y-70787555D01*
X90718768Y-70970045D01*
X90718766Y-70970050D01*
X90658700Y-71168064D01*
X90658699Y-71168069D01*
X90638417Y-71373999D01*
X90638417Y-71374000D01*
X90658699Y-71579930D01*
X90658700Y-71579935D01*
X90718766Y-71777949D01*
X90718768Y-71777954D01*
X90816311Y-71960444D01*
X90816319Y-71960455D01*
X90931176Y-72100410D01*
X90947590Y-72120410D01*
X91107550Y-72251685D01*
X91107553Y-72251686D01*
X91107555Y-72251688D01*
X91164695Y-72282230D01*
X91290046Y-72349232D01*
X91488066Y-72409300D01*
X91694000Y-72429583D01*
X91899934Y-72409300D01*
X92097954Y-72349232D01*
X92280450Y-72251685D01*
X92440410Y-72120410D01*
X92571685Y-71960450D01*
X92669232Y-71777954D01*
X92729300Y-71579934D01*
X92749583Y-71374000D01*
X92729300Y-71168066D01*
X92669232Y-70970046D01*
X92601777Y-70843848D01*
X92571688Y-70787555D01*
X92571686Y-70787553D01*
X92571685Y-70787550D01*
X92518868Y-70723192D01*
X92440411Y-70627591D01*
X92440408Y-70627588D01*
X92280455Y-70496319D01*
X92280453Y-70496318D01*
X92280450Y-70496315D01*
X92280448Y-70496313D01*
X92280444Y-70496311D01*
X92098725Y-70399180D01*
X92068378Y-70362203D01*
X92065687Y-70344060D01*
X92065687Y-70276029D01*
X92067017Y-70263202D01*
X92070504Y-70246573D01*
X92070504Y-70246571D01*
X92065927Y-70209853D01*
X92065687Y-70205984D01*
X92065687Y-70200208D01*
X92065687Y-70200203D01*
X92061882Y-70177403D01*
X92055161Y-70123477D01*
X92055159Y-70123474D01*
X92053682Y-70118509D01*
X92053751Y-70118488D01*
X92052160Y-70113521D01*
X92052091Y-70113545D01*
X92050409Y-70108648D01*
X92050409Y-70108645D01*
X92024551Y-70060865D01*
X92000680Y-70012035D01*
X92000678Y-70012033D01*
X92000678Y-70012032D01*
X91997671Y-70007821D01*
X91997729Y-70007779D01*
X91994605Y-70003589D01*
X91994548Y-70003634D01*
X91991368Y-69999547D01*
X91951401Y-69962756D01*
X91099661Y-69111016D01*
X91091531Y-69101005D01*
X91082239Y-69086782D01*
X91053037Y-69064053D01*
X91050139Y-69061494D01*
X91046046Y-69057401D01*
X91027227Y-69043965D01*
X90984349Y-69010591D01*
X90984348Y-69010590D01*
X90979793Y-69008125D01*
X90979826Y-69008062D01*
X90975185Y-69005673D01*
X90975154Y-69005738D01*
X90970495Y-69003460D01*
X90918430Y-68987960D01*
X90906443Y-68983845D01*
X90867024Y-68970313D01*
X90867023Y-68970313D01*
X90867020Y-68970312D01*
X90861914Y-68969460D01*
X90861925Y-68969390D01*
X90856753Y-68968636D01*
X90856745Y-68968708D01*
X90851613Y-68968067D01*
X90797329Y-68970313D01*
X81470257Y-68970313D01*
X81458753Y-68968636D01*
X81458745Y-68968708D01*
X81453613Y-68968067D01*
X81399329Y-68970313D01*
X77769029Y-68970313D01*
X77756203Y-68968983D01*
X77754891Y-68968708D01*
X77739573Y-68965496D01*
X77739570Y-68965495D01*
X77707772Y-68969460D01*
X77702852Y-68970073D01*
X77698986Y-68970313D01*
X77693203Y-68970313D01*
X77670390Y-68974119D01*
X77616477Y-68980840D01*
X77616473Y-68980841D01*
X77611515Y-68982318D01*
X77611495Y-68982251D01*
X77606516Y-68983845D01*
X77606539Y-68983911D01*
X77601642Y-68985591D01*
X77553856Y-69011452D01*
X77505035Y-69035319D01*
X77500820Y-69038329D01*
X77500780Y-69038273D01*
X77496588Y-69041399D01*
X77496631Y-69041454D01*
X77492548Y-69044631D01*
X77475765Y-69062863D01*
X77455756Y-69084598D01*
X75908709Y-70631645D01*
X71270016Y-75270337D01*
X71260010Y-75278464D01*
X71245782Y-75287760D01*
X71245780Y-75287762D01*
X71223057Y-75316956D01*
X71220496Y-75319856D01*
X71216407Y-75323946D01*
X71216404Y-75323950D01*
X71202964Y-75342772D01*
X71169590Y-75385651D01*
X71167127Y-75390204D01*
X71167066Y-75390171D01*
X71164675Y-75394817D01*
X71164737Y-75394848D01*
X71162462Y-75399501D01*
X71146960Y-75451569D01*
X71129312Y-75502977D01*
X71128460Y-75508086D01*
X71128390Y-75508074D01*
X71127637Y-75513246D01*
X71127708Y-75513255D01*
X71127067Y-75518386D01*
X71129313Y-75572671D01*
X71129313Y-75805060D01*
X71111007Y-75849254D01*
X71096275Y-75860180D01*
X70914555Y-75957311D01*
X70914544Y-75957319D01*
X70754591Y-76088588D01*
X70754588Y-76088591D01*
X70623319Y-76248544D01*
X70623311Y-76248555D01*
X70525768Y-76431045D01*
X70525766Y-76431050D01*
X70465700Y-76629064D01*
X70465699Y-76629069D01*
X70445417Y-76834999D01*
X70445417Y-76835000D01*
X70011500Y-76835000D01*
X70011500Y-75965252D01*
X70009920Y-75957311D01*
X69999867Y-75906769D01*
X69999866Y-75906767D01*
X69955552Y-75840447D01*
X69889232Y-75796133D01*
X69889230Y-75796132D01*
X69830748Y-75784500D01*
X68091252Y-75784500D01*
X68032769Y-75796132D01*
X68032767Y-75796133D01*
X67966447Y-75840447D01*
X67922133Y-75906767D01*
X67922132Y-75906769D01*
X67910500Y-75965251D01*
X67910500Y-76218967D01*
X67892194Y-76263161D01*
X67848000Y-76281467D01*
X67803806Y-76263161D01*
X66998552Y-75457907D01*
X66991605Y-75448589D01*
X66991548Y-75448634D01*
X66988367Y-75444547D01*
X66948402Y-75407756D01*
X66923256Y-75382611D01*
X66923255Y-75382611D01*
X66923253Y-75382609D01*
X62334124Y-70793479D01*
X62315818Y-70749285D01*
X62318875Y-70729977D01*
X62340431Y-70663639D01*
X62359207Y-70485000D01*
X62640793Y-70485000D01*
X62659569Y-70663641D01*
X62715072Y-70834465D01*
X62715074Y-70834469D01*
X62715075Y-70834471D01*
X62761180Y-70914326D01*
X62804886Y-70990027D01*
X62804885Y-70990027D01*
X62925077Y-71123514D01*
X62925077Y-71123515D01*
X63070390Y-71229091D01*
X63070396Y-71229095D01*
X63234490Y-71302154D01*
X63410188Y-71339500D01*
X63589812Y-71339500D01*
X63765510Y-71302154D01*
X63929604Y-71229095D01*
X64074922Y-71123515D01*
X64195113Y-70990029D01*
X64284925Y-70834471D01*
X64309658Y-70758346D01*
X64340724Y-70721974D01*
X64388412Y-70718220D01*
X64424786Y-70749286D01*
X64429469Y-70761484D01*
X64470424Y-70914328D01*
X64562897Y-71112638D01*
X64688402Y-71291878D01*
X64843121Y-71446597D01*
X64908330Y-71492256D01*
X65022361Y-71572102D01*
X65022360Y-71572102D01*
X65121515Y-71618338D01*
X65220670Y-71664575D01*
X65220672Y-71664575D01*
X65220673Y-71664576D01*
X65432010Y-71721204D01*
X65432016Y-71721205D01*
X65432023Y-71721207D01*
X65562809Y-71732648D01*
X65649998Y-71740277D01*
X65650000Y-71740277D01*
X65650002Y-71740277D01*
X65722659Y-71733920D01*
X65867977Y-71721207D01*
X65867986Y-71721204D01*
X65867989Y-71721204D01*
X66079326Y-71664576D01*
X66079325Y-71664576D01*
X66079330Y-71664575D01*
X66277639Y-71572102D01*
X66456877Y-71446598D01*
X66611598Y-71291877D01*
X66737102Y-71112639D01*
X66829575Y-70914330D01*
X66878974Y-70729970D01*
X66886204Y-70702989D01*
X66886204Y-70702986D01*
X66886207Y-70702977D01*
X66898920Y-70557658D01*
X66905277Y-70485002D01*
X66905277Y-70484997D01*
X66891398Y-70326354D01*
X66886207Y-70267023D01*
X66885183Y-70263202D01*
X66829576Y-70055673D01*
X66829575Y-70055671D01*
X66809227Y-70012035D01*
X66737102Y-69857362D01*
X66675526Y-69769422D01*
X66611597Y-69678121D01*
X66456878Y-69523402D01*
X66342846Y-69443556D01*
X66277639Y-69397898D01*
X66277637Y-69397897D01*
X66277639Y-69397897D01*
X66079328Y-69305424D01*
X66079326Y-69305423D01*
X65867989Y-69248795D01*
X65867973Y-69248792D01*
X65650002Y-69229723D01*
X65649998Y-69229723D01*
X65432026Y-69248792D01*
X65432010Y-69248795D01*
X65220673Y-69305423D01*
X65220671Y-69305424D01*
X65022362Y-69397897D01*
X64843121Y-69523402D01*
X64688402Y-69678121D01*
X64562897Y-69857362D01*
X64470424Y-70055671D01*
X64429469Y-70208515D01*
X64400349Y-70246465D01*
X64352922Y-70252708D01*
X64314972Y-70223588D01*
X64309658Y-70211652D01*
X64284925Y-70135529D01*
X64195113Y-69979971D01*
X64074922Y-69846485D01*
X64074922Y-69846484D01*
X63929609Y-69740908D01*
X63929606Y-69740906D01*
X63929604Y-69740905D01*
X63788593Y-69678123D01*
X63765513Y-69667847D01*
X63765510Y-69667846D01*
X63765508Y-69667845D01*
X63765506Y-69667845D01*
X63589812Y-69630500D01*
X63410188Y-69630500D01*
X63234493Y-69667845D01*
X63234478Y-69667850D01*
X63070398Y-69740904D01*
X63070392Y-69740907D01*
X62925078Y-69846484D01*
X62925072Y-69846490D01*
X62804886Y-69979972D01*
X62715072Y-70135534D01*
X62659569Y-70306358D01*
X62640793Y-70485000D01*
X62359207Y-70485000D01*
X62340431Y-70306361D01*
X62328469Y-70269546D01*
X62284927Y-70135534D01*
X62284926Y-70135532D01*
X62284925Y-70135529D01*
X62195113Y-69979971D01*
X62074922Y-69846485D01*
X62074922Y-69846484D01*
X61929609Y-69740908D01*
X61929606Y-69740906D01*
X61929604Y-69740905D01*
X61788593Y-69678123D01*
X61765513Y-69667847D01*
X61765510Y-69667846D01*
X61765508Y-69667845D01*
X61765506Y-69667845D01*
X61589812Y-69630500D01*
X61410188Y-69630500D01*
X61234493Y-69667845D01*
X61234478Y-69667850D01*
X61070398Y-69740904D01*
X61070392Y-69740907D01*
X60925078Y-69846484D01*
X60925072Y-69846490D01*
X60804886Y-69979972D01*
X60715072Y-70135534D01*
X60659569Y-70306358D01*
X60640793Y-70485000D01*
X60659569Y-70663641D01*
X60710848Y-70821463D01*
X60713427Y-70848509D01*
X60713067Y-70851388D01*
X60715219Y-70903425D01*
X60715312Y-70905671D01*
X60715312Y-72442806D01*
X60715313Y-73938000D01*
X60697007Y-73982194D01*
X60652813Y-74000500D01*
X60619744Y-74000500D01*
X60612135Y-74001213D01*
X60590153Y-74003274D01*
X60590151Y-74003275D01*
X60465523Y-74046884D01*
X60359289Y-74125289D01*
X60280884Y-74231523D01*
X60237275Y-74356151D01*
X60237274Y-74356153D01*
X60234500Y-74385747D01*
X60234500Y-74966252D01*
X56750392Y-74966252D01*
X59730987Y-71985656D01*
X59740988Y-71977535D01*
X59755217Y-71968240D01*
X59777946Y-71939036D01*
X59780506Y-71936137D01*
X59784599Y-71932046D01*
X59798034Y-71913227D01*
X59831409Y-71870349D01*
X59831410Y-71870344D01*
X59833874Y-71865793D01*
X59833938Y-71865827D01*
X59836329Y-71861183D01*
X59836263Y-71861151D01*
X59838533Y-71856505D01*
X59838537Y-71856501D01*
X59854039Y-71804430D01*
X59871687Y-71753025D01*
X59872540Y-71747913D01*
X59872612Y-71747925D01*
X59873364Y-71742759D01*
X59873291Y-71742750D01*
X59873930Y-71737616D01*
X59873932Y-71737611D01*
X59871687Y-71683329D01*
X59871687Y-71295468D01*
X59889993Y-71251275D01*
X59908766Y-71238373D01*
X59915615Y-71235322D01*
X59929604Y-71229095D01*
X60074922Y-71123515D01*
X60195113Y-70990029D01*
X60284925Y-70834471D01*
X60340431Y-70663639D01*
X60359207Y-70485000D01*
X60340431Y-70306361D01*
X60328469Y-70269546D01*
X60284927Y-70135534D01*
X60284926Y-70135532D01*
X60284925Y-70135529D01*
X60195113Y-69979971D01*
X60074922Y-69846485D01*
X60074922Y-69846484D01*
X59929609Y-69740908D01*
X59929606Y-69740906D01*
X59929604Y-69740905D01*
X59788593Y-69678123D01*
X59765513Y-69667847D01*
X59765510Y-69667846D01*
X59765508Y-69667845D01*
X59765506Y-69667845D01*
X59589812Y-69630500D01*
X59410188Y-69630500D01*
X59234493Y-69667845D01*
X59234478Y-69667850D01*
X59070398Y-69740904D01*
X59070392Y-69740907D01*
X58925078Y-69846484D01*
X58925072Y-69846490D01*
X58804886Y-69979972D01*
X58766269Y-70046859D01*
X58722034Y-70123477D01*
X58715073Y-70135533D01*
X58690341Y-70211652D01*
X58659274Y-70248026D01*
X58611586Y-70251779D01*
X58575212Y-70220712D01*
X58570530Y-70208514D01*
X58529576Y-70055673D01*
X58529575Y-70055671D01*
X58509227Y-70012035D01*
X58437102Y-69857362D01*
X58375526Y-69769422D01*
X58311597Y-69678121D01*
X58156878Y-69523402D01*
X58042846Y-69443556D01*
X57977639Y-69397898D01*
X57977637Y-69397897D01*
X57977639Y-69397897D01*
X57779328Y-69305424D01*
X57779326Y-69305423D01*
X57567989Y-69248795D01*
X57567973Y-69248792D01*
X57350002Y-69229723D01*
X57349998Y-69229723D01*
X57132026Y-69248792D01*
X57132010Y-69248795D01*
X56920673Y-69305423D01*
X56920671Y-69305424D01*
X56722362Y-69397897D01*
X56543121Y-69523402D01*
X56388402Y-69678121D01*
X56262897Y-69857362D01*
X56170424Y-70055671D01*
X56170423Y-70055673D01*
X56113795Y-70267010D01*
X56113792Y-70267026D01*
X56094723Y-70484997D01*
X56094723Y-70485002D01*
X56113792Y-70702973D01*
X56113795Y-70702989D01*
X56170423Y-70914326D01*
X56170424Y-70914328D01*
X56262897Y-71112638D01*
X56388402Y-71291878D01*
X56543121Y-71446597D01*
X56608330Y-71492256D01*
X56722361Y-71572102D01*
X56722360Y-71572102D01*
X56821515Y-71618338D01*
X56920670Y-71664575D01*
X56920672Y-71664575D01*
X56920673Y-71664576D01*
X57132010Y-71721204D01*
X57132016Y-71721205D01*
X57132023Y-71721207D01*
X57262809Y-71732648D01*
X57349998Y-71740277D01*
X57350000Y-71740277D01*
X57350002Y-71740277D01*
X57422659Y-71733920D01*
X57567977Y-71721207D01*
X57567986Y-71721204D01*
X57567989Y-71721204D01*
X57779326Y-71664576D01*
X57779325Y-71664576D01*
X57779330Y-71664575D01*
X57977639Y-71572102D01*
X58156877Y-71446598D01*
X58311598Y-71291877D01*
X58437102Y-71112639D01*
X58529575Y-70914330D01*
X58562207Y-70792546D01*
X58570530Y-70761485D01*
X58599650Y-70723534D01*
X58647076Y-70717291D01*
X58685027Y-70746411D01*
X58690341Y-70758348D01*
X58715072Y-70834465D01*
X58715074Y-70834469D01*
X58715075Y-70834471D01*
X58761180Y-70914326D01*
X58804886Y-70990027D01*
X58804885Y-70990027D01*
X58925077Y-71123514D01*
X58925077Y-71123515D01*
X59070391Y-71229092D01*
X59070393Y-71229093D01*
X59070396Y-71229095D01*
X59080923Y-71233781D01*
X59091234Y-71238373D01*
X59124162Y-71273071D01*
X59128313Y-71295469D01*
X59128313Y-71511153D01*
X59110007Y-71555347D01*
X55522016Y-75143337D01*
X55512010Y-75151464D01*
X55497782Y-75160760D01*
X55497780Y-75160762D01*
X55475057Y-75189956D01*
X55472496Y-75192856D01*
X55468407Y-75196946D01*
X55468404Y-75196950D01*
X55454964Y-75215772D01*
X55421590Y-75258651D01*
X55419127Y-75263204D01*
X55419066Y-75263171D01*
X55416675Y-75267817D01*
X55416737Y-75267848D01*
X55414462Y-75272501D01*
X55398960Y-75324569D01*
X55381312Y-75375977D01*
X55380460Y-75381086D01*
X55380390Y-75381074D01*
X55379637Y-75386246D01*
X55379708Y-75386255D01*
X55379067Y-75391386D01*
X55381313Y-75445671D01*
X55381313Y-76517742D01*
X55379637Y-76529246D01*
X55379708Y-76529255D01*
X55379067Y-76534386D01*
X55381313Y-76588671D01*
X55381313Y-92129152D01*
X55363007Y-92173346D01*
X54313454Y-93222899D01*
X54269260Y-93241205D01*
X54251118Y-93238514D01*
X54053935Y-93178700D01*
X54053930Y-93178699D01*
X53848000Y-93158417D01*
X53642069Y-93178699D01*
X53642064Y-93178700D01*
X53444050Y-93238766D01*
X53444045Y-93238768D01*
X53261555Y-93336311D01*
X53261544Y-93336319D01*
X53101591Y-93467588D01*
X53101588Y-93467591D01*
X52970319Y-93627544D01*
X52970311Y-93627555D01*
X52872768Y-93810045D01*
X52872766Y-93810050D01*
X52812700Y-94008064D01*
X52812699Y-94008069D01*
X52792417Y-94213999D01*
X52792417Y-94214000D01*
X51808000Y-94214000D01*
X51808000Y-94142111D01*
X51767493Y-94004156D01*
X51741686Y-93964000D01*
X52638636Y-93964000D01*
X52638636Y-93963998D01*
X52581432Y-93750512D01*
X52581431Y-93750510D01*
X52481600Y-93536422D01*
X52346109Y-93342920D01*
X52179081Y-93175892D01*
X51985573Y-93040396D01*
X51900322Y-93000644D01*
X51868004Y-92965377D01*
X51870091Y-92917587D01*
X51900322Y-92887356D01*
X51985573Y-92847603D01*
X52179081Y-92712107D01*
X52346107Y-92545081D01*
X52481601Y-92351575D01*
X52581431Y-92137489D01*
X52581432Y-92137487D01*
X52638636Y-91924001D01*
X52638636Y-91924000D01*
X51741686Y-91924000D01*
X51767493Y-91883844D01*
X51808000Y-91745889D01*
X51808000Y-91674000D01*
X52792417Y-91674000D01*
X52812699Y-91879930D01*
X52812700Y-91879935D01*
X52872766Y-92077949D01*
X52872768Y-92077954D01*
X52970311Y-92260444D01*
X52970319Y-92260455D01*
X53101588Y-92420408D01*
X53101591Y-92420411D01*
X53175304Y-92480905D01*
X53261550Y-92551685D01*
X53261553Y-92551686D01*
X53261555Y-92551688D01*
X53308037Y-92576533D01*
X53444046Y-92649232D01*
X53642066Y-92709300D01*
X53796516Y-92724512D01*
X53847999Y-92729583D01*
X53847999Y-92729582D01*
X53848000Y-92729583D01*
X54053934Y-92709300D01*
X54251954Y-92649232D01*
X54434450Y-92551685D01*
X54594410Y-92420410D01*
X54725685Y-92260450D01*
X54823232Y-92077954D01*
X54883300Y-91879934D01*
X54903583Y-91674000D01*
X54902880Y-91666867D01*
X54891984Y-91556232D01*
X54883300Y-91468066D01*
X54823232Y-91270046D01*
X54744457Y-91122670D01*
X54725688Y-91087555D01*
X54725686Y-91087553D01*
X54725685Y-91087550D01*
X54610824Y-90947591D01*
X54594411Y-90927591D01*
X54594408Y-90927588D01*
X54434455Y-90796319D01*
X54434453Y-90796318D01*
X54434450Y-90796315D01*
X54434448Y-90796313D01*
X54434444Y-90796311D01*
X54251954Y-90698768D01*
X54251949Y-90698766D01*
X54053935Y-90638700D01*
X54053930Y-90638699D01*
X53848000Y-90618417D01*
X53642069Y-90638699D01*
X53642064Y-90638700D01*
X53444050Y-90698766D01*
X53444045Y-90698768D01*
X53261555Y-90796311D01*
X53261544Y-90796319D01*
X53101591Y-90927588D01*
X53101588Y-90927591D01*
X52970319Y-91087544D01*
X52970311Y-91087555D01*
X52872768Y-91270045D01*
X52872766Y-91270050D01*
X52812700Y-91468064D01*
X52812699Y-91468069D01*
X52792417Y-91673999D01*
X52792417Y-91674000D01*
X51808000Y-91674000D01*
X51808000Y-91602111D01*
X51767493Y-91464156D01*
X51741686Y-91424000D01*
X52638636Y-91424000D01*
X52638636Y-91423998D01*
X52581432Y-91210512D01*
X52581431Y-91210510D01*
X52481600Y-90996422D01*
X52346109Y-90802920D01*
X52179081Y-90635892D01*
X51985573Y-90500396D01*
X51900322Y-90460644D01*
X51868004Y-90425377D01*
X51870091Y-90377587D01*
X51900322Y-90347356D01*
X51985573Y-90307603D01*
X52179081Y-90172107D01*
X52346107Y-90005081D01*
X52481601Y-89811575D01*
X52581431Y-89597489D01*
X52581432Y-89597487D01*
X52638636Y-89384001D01*
X52638636Y-89384000D01*
X51741686Y-89384000D01*
X51767493Y-89343844D01*
X51808000Y-89205889D01*
X51808000Y-89134000D01*
X52792417Y-89134000D01*
X52812699Y-89339930D01*
X52812700Y-89339935D01*
X52872766Y-89537949D01*
X52872768Y-89537954D01*
X52970311Y-89720444D01*
X52970319Y-89720455D01*
X53101588Y-89880408D01*
X53101591Y-89880411D01*
X53155251Y-89924448D01*
X53261550Y-90011685D01*
X53261553Y-90011686D01*
X53261555Y-90011688D01*
X53331830Y-90049251D01*
X53444046Y-90109232D01*
X53642066Y-90169300D01*
X53796516Y-90184512D01*
X53847999Y-90189583D01*
X53847999Y-90189582D01*
X53848000Y-90189583D01*
X54053934Y-90169300D01*
X54251954Y-90109232D01*
X54434450Y-90011685D01*
X54594410Y-89880410D01*
X54725685Y-89720450D01*
X54823232Y-89537954D01*
X54883300Y-89339934D01*
X54903583Y-89134000D01*
X54901303Y-89110856D01*
X54895699Y-89053957D01*
X54883300Y-88928066D01*
X54823232Y-88730046D01*
X54754429Y-88601326D01*
X54725688Y-88547555D01*
X54725686Y-88547553D01*
X54725685Y-88547550D01*
X54610824Y-88407591D01*
X54594411Y-88387591D01*
X54594408Y-88387588D01*
X54434455Y-88256319D01*
X54434453Y-88256318D01*
X54434450Y-88256315D01*
X54434448Y-88256313D01*
X54434444Y-88256311D01*
X54251954Y-88158768D01*
X54251949Y-88158766D01*
X54053935Y-88098700D01*
X54053930Y-88098699D01*
X53848000Y-88078417D01*
X53642069Y-88098699D01*
X53642064Y-88098700D01*
X53444050Y-88158766D01*
X53444045Y-88158768D01*
X53261555Y-88256311D01*
X53261544Y-88256319D01*
X53101591Y-88387588D01*
X53101588Y-88387591D01*
X52970319Y-88547544D01*
X52970311Y-88547555D01*
X52872768Y-88730045D01*
X52872766Y-88730050D01*
X52812700Y-88928064D01*
X52812699Y-88928069D01*
X52792417Y-89133999D01*
X52792417Y-89134000D01*
X51808000Y-89134000D01*
X51808000Y-89062111D01*
X51767493Y-88924156D01*
X51741686Y-88884000D01*
X52638636Y-88884000D01*
X52638636Y-88883998D01*
X52581432Y-88670512D01*
X52581431Y-88670510D01*
X52481600Y-88456422D01*
X52346109Y-88262920D01*
X52179081Y-88095892D01*
X51985573Y-87960396D01*
X51900322Y-87920644D01*
X51868004Y-87885377D01*
X51870091Y-87837587D01*
X51900322Y-87807356D01*
X51985573Y-87767603D01*
X52179081Y-87632107D01*
X52346107Y-87465081D01*
X52481601Y-87271575D01*
X52581431Y-87057489D01*
X52581432Y-87057487D01*
X52638636Y-86844001D01*
X52638636Y-86844000D01*
X51741686Y-86844000D01*
X51767493Y-86803844D01*
X51808000Y-86665889D01*
X51808000Y-86594000D01*
X52792417Y-86594000D01*
X52812699Y-86799930D01*
X52812700Y-86799935D01*
X52872766Y-86997949D01*
X52872768Y-86997954D01*
X52970311Y-87180444D01*
X52970319Y-87180455D01*
X53101588Y-87340408D01*
X53101591Y-87340411D01*
X53208745Y-87428349D01*
X53261550Y-87471685D01*
X53261553Y-87471686D01*
X53261555Y-87471688D01*
X53336912Y-87511967D01*
X53444046Y-87569232D01*
X53642066Y-87629300D01*
X53848000Y-87649583D01*
X54053934Y-87629300D01*
X54251954Y-87569232D01*
X54434450Y-87471685D01*
X54594410Y-87340410D01*
X54725685Y-87180450D01*
X54823232Y-86997954D01*
X54883300Y-86799934D01*
X54903583Y-86594000D01*
X54883300Y-86388066D01*
X54823232Y-86190046D01*
X54749941Y-86052930D01*
X54725688Y-86007555D01*
X54725686Y-86007553D01*
X54725685Y-86007550D01*
X54677143Y-85948401D01*
X54594411Y-85847591D01*
X54594408Y-85847588D01*
X54434455Y-85716319D01*
X54434453Y-85716318D01*
X54434450Y-85716315D01*
X54434448Y-85716313D01*
X54434444Y-85716311D01*
X54251954Y-85618768D01*
X54251949Y-85618766D01*
X54053935Y-85558700D01*
X54053930Y-85558699D01*
X53848000Y-85538417D01*
X53642069Y-85558699D01*
X53642064Y-85558700D01*
X53444050Y-85618766D01*
X53444045Y-85618768D01*
X53261555Y-85716311D01*
X53261544Y-85716319D01*
X53101591Y-85847588D01*
X53101588Y-85847591D01*
X52970319Y-86007544D01*
X52970311Y-86007555D01*
X52872768Y-86190045D01*
X52872766Y-86190050D01*
X52812700Y-86388064D01*
X52812699Y-86388069D01*
X52792417Y-86593999D01*
X52792417Y-86594000D01*
X51808000Y-86594000D01*
X51808000Y-86522111D01*
X51767493Y-86384156D01*
X51741686Y-86344000D01*
X52638636Y-86344000D01*
X52638636Y-86343998D01*
X52581432Y-86130512D01*
X52581431Y-86130510D01*
X52481600Y-85916422D01*
X52346109Y-85722920D01*
X52179081Y-85555892D01*
X51985573Y-85420396D01*
X51900322Y-85380644D01*
X51868004Y-85345377D01*
X51870091Y-85297587D01*
X51900322Y-85267356D01*
X51985573Y-85227603D01*
X52179081Y-85092107D01*
X52346107Y-84925081D01*
X52481601Y-84731575D01*
X52581431Y-84517489D01*
X52581432Y-84517487D01*
X52638636Y-84304001D01*
X52638636Y-84304000D01*
X51741686Y-84304000D01*
X51767493Y-84263844D01*
X51808000Y-84125889D01*
X51808000Y-84054000D01*
X52792417Y-84054000D01*
X52812699Y-84259930D01*
X52812700Y-84259935D01*
X52872766Y-84457949D01*
X52872768Y-84457954D01*
X52970311Y-84640444D01*
X52970319Y-84640455D01*
X53101588Y-84800408D01*
X53101591Y-84800411D01*
X53213951Y-84892622D01*
X53261550Y-84931685D01*
X53261553Y-84931686D01*
X53261555Y-84931688D01*
X53300888Y-84952712D01*
X53444046Y-85029232D01*
X53642066Y-85089300D01*
X53848000Y-85109583D01*
X54053934Y-85089300D01*
X54251954Y-85029232D01*
X54434450Y-84931685D01*
X54594410Y-84800410D01*
X54725685Y-84640450D01*
X54823232Y-84457954D01*
X54883300Y-84259934D01*
X54903583Y-84054000D01*
X54883300Y-83848066D01*
X54823232Y-83650046D01*
X54736378Y-83487555D01*
X54725688Y-83467555D01*
X54725686Y-83467553D01*
X54725685Y-83467550D01*
X54610824Y-83327591D01*
X54594411Y-83307591D01*
X54594408Y-83307588D01*
X54434455Y-83176319D01*
X54434453Y-83176318D01*
X54434450Y-83176315D01*
X54434448Y-83176313D01*
X54434444Y-83176311D01*
X54251954Y-83078768D01*
X54251949Y-83078766D01*
X54053935Y-83018700D01*
X54053930Y-83018699D01*
X53848000Y-82998417D01*
X53642069Y-83018699D01*
X53642064Y-83018700D01*
X53444050Y-83078766D01*
X53444045Y-83078768D01*
X53261555Y-83176311D01*
X53261544Y-83176319D01*
X53101591Y-83307588D01*
X53101588Y-83307591D01*
X52970319Y-83467544D01*
X52970311Y-83467555D01*
X52872768Y-83650045D01*
X52872766Y-83650050D01*
X52812700Y-83848064D01*
X52812699Y-83848069D01*
X52792417Y-84053999D01*
X52792417Y-84054000D01*
X51808000Y-84054000D01*
X51808000Y-83982111D01*
X51767493Y-83844156D01*
X51741686Y-83804000D01*
X52638636Y-83804000D01*
X52638636Y-83803998D01*
X52581432Y-83590512D01*
X52581431Y-83590510D01*
X52481600Y-83376422D01*
X52346109Y-83182920D01*
X52179081Y-83015892D01*
X51985573Y-82880396D01*
X51900322Y-82840644D01*
X51868004Y-82805377D01*
X51870091Y-82757587D01*
X51900322Y-82727356D01*
X51985573Y-82687603D01*
X52179081Y-82552107D01*
X52346107Y-82385081D01*
X52481601Y-82191575D01*
X52581431Y-81977489D01*
X52581432Y-81977487D01*
X52638636Y-81764001D01*
X52638636Y-81764000D01*
X51741686Y-81764000D01*
X51767493Y-81723844D01*
X51808000Y-81585889D01*
X51808000Y-81514000D01*
X52792417Y-81514000D01*
X52812699Y-81719930D01*
X52812700Y-81719935D01*
X52872766Y-81917949D01*
X52872768Y-81917954D01*
X52970311Y-82100444D01*
X52970319Y-82100455D01*
X53101588Y-82260408D01*
X53101591Y-82260411D01*
X53144193Y-82295373D01*
X53261550Y-82391685D01*
X53261553Y-82391686D01*
X53261555Y-82391688D01*
X53312652Y-82419000D01*
X53444046Y-82489232D01*
X53642066Y-82549300D01*
X53796516Y-82564512D01*
X53847999Y-82569583D01*
X53847999Y-82569582D01*
X53848000Y-82569583D01*
X54053934Y-82549300D01*
X54251954Y-82489232D01*
X54434450Y-82391685D01*
X54594410Y-82260410D01*
X54725685Y-82100450D01*
X54823232Y-81917954D01*
X54883300Y-81719934D01*
X54903583Y-81514000D01*
X54883300Y-81308066D01*
X54823232Y-81110046D01*
X54736378Y-80947555D01*
X54725688Y-80927555D01*
X54725686Y-80927553D01*
X54725685Y-80927550D01*
X54610824Y-80787591D01*
X54594411Y-80767591D01*
X54594408Y-80767588D01*
X54434455Y-80636319D01*
X54434453Y-80636318D01*
X54434450Y-80636315D01*
X54434448Y-80636313D01*
X54434444Y-80636311D01*
X54251954Y-80538768D01*
X54251949Y-80538766D01*
X54053935Y-80478700D01*
X54053930Y-80478699D01*
X53848000Y-80458417D01*
X53642069Y-80478699D01*
X53642064Y-80478700D01*
X53444050Y-80538766D01*
X53444045Y-80538768D01*
X53261555Y-80636311D01*
X53261544Y-80636319D01*
X53101591Y-80767588D01*
X53101588Y-80767591D01*
X52970319Y-80927544D01*
X52970311Y-80927555D01*
X52872768Y-81110045D01*
X52872766Y-81110050D01*
X52812700Y-81308064D01*
X52812699Y-81308069D01*
X52792417Y-81513999D01*
X52792417Y-81514000D01*
X51808000Y-81514000D01*
X51808000Y-81442111D01*
X51767493Y-81304156D01*
X51741686Y-81264000D01*
X52638636Y-81264000D01*
X52638636Y-81263998D01*
X52581432Y-81050512D01*
X52581431Y-81050510D01*
X52481600Y-80836422D01*
X52346109Y-80642920D01*
X52179081Y-80475892D01*
X51985573Y-80340396D01*
X51900322Y-80300644D01*
X51868004Y-80265377D01*
X51870091Y-80217587D01*
X51900322Y-80187356D01*
X51985573Y-80147603D01*
X52179081Y-80012107D01*
X52346107Y-79845081D01*
X52481601Y-79651575D01*
X52581431Y-79437489D01*
X52581432Y-79437487D01*
X52638636Y-79224001D01*
X52638636Y-79224000D01*
X51741686Y-79224000D01*
X51767493Y-79183844D01*
X51808000Y-79045889D01*
X51808000Y-78974000D01*
X52792417Y-78974000D01*
X52812699Y-79179930D01*
X52812700Y-79179935D01*
X52872766Y-79377949D01*
X52872768Y-79377954D01*
X52970311Y-79560444D01*
X52970319Y-79560455D01*
X53101588Y-79720408D01*
X53101591Y-79720411D01*
X53144193Y-79755373D01*
X53261550Y-79851685D01*
X53261553Y-79851686D01*
X53261555Y-79851688D01*
X53336912Y-79891967D01*
X53444046Y-79949232D01*
X53642066Y-80009300D01*
X53796516Y-80024512D01*
X53847999Y-80029583D01*
X53847999Y-80029582D01*
X53848000Y-80029583D01*
X54053934Y-80009300D01*
X54251954Y-79949232D01*
X54434450Y-79851685D01*
X54594410Y-79720410D01*
X54725685Y-79560450D01*
X54823232Y-79377954D01*
X54883300Y-79179934D01*
X54903583Y-78974000D01*
X54883300Y-78768066D01*
X54823232Y-78570046D01*
X54736378Y-78407555D01*
X54725688Y-78387555D01*
X54725686Y-78387553D01*
X54725685Y-78387550D01*
X54610824Y-78247591D01*
X54594411Y-78227591D01*
X54594408Y-78227588D01*
X54434455Y-78096319D01*
X54434453Y-78096318D01*
X54434450Y-78096315D01*
X54434448Y-78096313D01*
X54434444Y-78096311D01*
X54251954Y-77998768D01*
X54251949Y-77998766D01*
X54053935Y-77938700D01*
X54053930Y-77938699D01*
X53848000Y-77918417D01*
X53642069Y-77938699D01*
X53642064Y-77938700D01*
X53444050Y-77998766D01*
X53444045Y-77998768D01*
X53261555Y-78096311D01*
X53261544Y-78096319D01*
X53101591Y-78227588D01*
X53101588Y-78227591D01*
X52970319Y-78387544D01*
X52970311Y-78387555D01*
X52872768Y-78570045D01*
X52872766Y-78570050D01*
X52812700Y-78768064D01*
X52812699Y-78768069D01*
X52792417Y-78973999D01*
X52792417Y-78974000D01*
X51808000Y-78974000D01*
X51808000Y-78902111D01*
X51767493Y-78764156D01*
X51741686Y-78724000D01*
X52638636Y-78724000D01*
X52638636Y-78723998D01*
X52581432Y-78510512D01*
X52581431Y-78510510D01*
X52481600Y-78296422D01*
X52346109Y-78102920D01*
X52179081Y-77935892D01*
X51985573Y-77800396D01*
X51900322Y-77760644D01*
X51868004Y-77725377D01*
X51870091Y-77677587D01*
X51900322Y-77647356D01*
X51985573Y-77607603D01*
X52179081Y-77472107D01*
X52346107Y-77305081D01*
X52481601Y-77111575D01*
X52581431Y-76897489D01*
X52581432Y-76897487D01*
X52638636Y-76684001D01*
X52638636Y-76684000D01*
X51741686Y-76684000D01*
X51767493Y-76643844D01*
X51808000Y-76505889D01*
X51808000Y-76434000D01*
X52792417Y-76434000D01*
X52812699Y-76639930D01*
X52812700Y-76639935D01*
X52872766Y-76837949D01*
X52872768Y-76837954D01*
X52970311Y-77020444D01*
X52970319Y-77020455D01*
X53101588Y-77180408D01*
X53101591Y-77180411D01*
X53172920Y-77238949D01*
X53261550Y-77311685D01*
X53261553Y-77311686D01*
X53261555Y-77311688D01*
X53300888Y-77332712D01*
X53444046Y-77409232D01*
X53642066Y-77469300D01*
X53848000Y-77489583D01*
X54053934Y-77469300D01*
X54251954Y-77409232D01*
X54434450Y-77311685D01*
X54594410Y-77180410D01*
X54725685Y-77020450D01*
X54823232Y-76837954D01*
X54883300Y-76639934D01*
X54903583Y-76434000D01*
X54903292Y-76431050D01*
X54896502Y-76362111D01*
X54883300Y-76228066D01*
X54823232Y-76030046D01*
X54760913Y-75913456D01*
X54725688Y-75847555D01*
X54725686Y-75847553D01*
X54725685Y-75847550D01*
X54610824Y-75707591D01*
X54594411Y-75687591D01*
X54594408Y-75687588D01*
X54434455Y-75556319D01*
X54434453Y-75556318D01*
X54434450Y-75556315D01*
X54434448Y-75556313D01*
X54434444Y-75556311D01*
X54251954Y-75458768D01*
X54251949Y-75458766D01*
X54053935Y-75398700D01*
X54053930Y-75398699D01*
X53848000Y-75378417D01*
X53642069Y-75398699D01*
X53642064Y-75398700D01*
X53444050Y-75458766D01*
X53444045Y-75458768D01*
X53261555Y-75556311D01*
X53261544Y-75556319D01*
X53101591Y-75687588D01*
X53101588Y-75687591D01*
X52970319Y-75847544D01*
X52970311Y-75847555D01*
X52872768Y-76030045D01*
X52872766Y-76030050D01*
X52812700Y-76228064D01*
X52812699Y-76228069D01*
X52792417Y-76433999D01*
X52792417Y-76434000D01*
X51808000Y-76434000D01*
X51808000Y-76362111D01*
X51767493Y-76224156D01*
X51741686Y-76184000D01*
X52638636Y-76184000D01*
X52638636Y-76183998D01*
X52581432Y-75970512D01*
X52581431Y-75970510D01*
X52481600Y-75756422D01*
X52346109Y-75562920D01*
X52179081Y-75395892D01*
X51985573Y-75260396D01*
X51900322Y-75220644D01*
X51868004Y-75185377D01*
X51870091Y-75137587D01*
X51900322Y-75107356D01*
X51985573Y-75067603D01*
X52179081Y-74932107D01*
X52346107Y-74765081D01*
X52481601Y-74571575D01*
X52581431Y-74357489D01*
X52581432Y-74357487D01*
X52638636Y-74144001D01*
X52638636Y-74144000D01*
X51741686Y-74144000D01*
X51767493Y-74103844D01*
X51808000Y-73965889D01*
X51808000Y-73894000D01*
X52792417Y-73894000D01*
X52812699Y-74099930D01*
X52812700Y-74099935D01*
X52872766Y-74297949D01*
X52872768Y-74297954D01*
X52970311Y-74480444D01*
X52970319Y-74480455D01*
X53101588Y-74640408D01*
X53101591Y-74640411D01*
X53144193Y-74675373D01*
X53261550Y-74771685D01*
X53261553Y-74771686D01*
X53261555Y-74771688D01*
X53336912Y-74811967D01*
X53444046Y-74869232D01*
X53642066Y-74929300D01*
X53848000Y-74949583D01*
X54053934Y-74929300D01*
X54251954Y-74869232D01*
X54434450Y-74771685D01*
X54594410Y-74640410D01*
X54725685Y-74480450D01*
X54823232Y-74297954D01*
X54883300Y-74099934D01*
X54903583Y-73894000D01*
X54883300Y-73688066D01*
X54823232Y-73490046D01*
X54736378Y-73327555D01*
X54725688Y-73307555D01*
X54725686Y-73307553D01*
X54725685Y-73307550D01*
X54610824Y-73167591D01*
X54594411Y-73147591D01*
X54594408Y-73147588D01*
X54434455Y-73016319D01*
X54434453Y-73016318D01*
X54434450Y-73016315D01*
X54434448Y-73016313D01*
X54434444Y-73016311D01*
X54251954Y-72918768D01*
X54251949Y-72918766D01*
X54053935Y-72858700D01*
X54053930Y-72858699D01*
X53848000Y-72838417D01*
X53642069Y-72858699D01*
X53642064Y-72858700D01*
X53444050Y-72918766D01*
X53444045Y-72918768D01*
X53261555Y-73016311D01*
X53261544Y-73016319D01*
X53101591Y-73147588D01*
X53101588Y-73147591D01*
X52970319Y-73307544D01*
X52970311Y-73307555D01*
X52872768Y-73490045D01*
X52872766Y-73490050D01*
X52812700Y-73688064D01*
X52812699Y-73688069D01*
X52792417Y-73893999D01*
X52792417Y-73894000D01*
X51808000Y-73894000D01*
X51808000Y-73822111D01*
X51767493Y-73684156D01*
X51741686Y-73644000D01*
X52638636Y-73644000D01*
X52638636Y-73643998D01*
X52581432Y-73430512D01*
X52581431Y-73430510D01*
X52481600Y-73216422D01*
X52346109Y-73022920D01*
X52179081Y-72855892D01*
X51985575Y-72720398D01*
X51771489Y-72620568D01*
X51771487Y-72620567D01*
X51558001Y-72563363D01*
X51558000Y-72563364D01*
X51558000Y-73458498D01*
X51450315Y-73409320D01*
X51343763Y-73394000D01*
X51272237Y-73394000D01*
X51165685Y-73409320D01*
X51057999Y-73458498D01*
X51057999Y-72563364D01*
X51057997Y-72563363D01*
X50844512Y-72620567D01*
X50844510Y-72620568D01*
X50630422Y-72720399D01*
X50517347Y-72799574D01*
X50470645Y-72809927D01*
X50430302Y-72784225D01*
X50419000Y-72748380D01*
X50419000Y-72101338D01*
X50437306Y-72057144D01*
X50481500Y-72038838D01*
X50525694Y-72057144D01*
X50529800Y-72061673D01*
X50561590Y-72100410D01*
X50721550Y-72231685D01*
X50721553Y-72231686D01*
X50721555Y-72231688D01*
X50796912Y-72271967D01*
X50904046Y-72329232D01*
X51102066Y-72389300D01*
X51308000Y-72409583D01*
X51513934Y-72389300D01*
X51711954Y-72329232D01*
X51894450Y-72231685D01*
X51904121Y-72223748D01*
X52797500Y-72223748D01*
X52809132Y-72282230D01*
X52809133Y-72282232D01*
X52853447Y-72348552D01*
X52919767Y-72392866D01*
X52919769Y-72392867D01*
X52978252Y-72404500D01*
X54717748Y-72404500D01*
X54776231Y-72392867D01*
X54842552Y-72348552D01*
X54886867Y-72282231D01*
X54898500Y-72223748D01*
X54898500Y-70484252D01*
X54886867Y-70425769D01*
X54869101Y-70399180D01*
X54842552Y-70359447D01*
X54776232Y-70315133D01*
X54776230Y-70315132D01*
X54717748Y-70303500D01*
X52978252Y-70303500D01*
X52919769Y-70315132D01*
X52919767Y-70315133D01*
X52853447Y-70359447D01*
X52809133Y-70425767D01*
X52809132Y-70425769D01*
X52797500Y-70484251D01*
X52797500Y-72223748D01*
X51904121Y-72223748D01*
X52054410Y-72100410D01*
X52185685Y-71940450D01*
X52283232Y-71757954D01*
X52343300Y-71559934D01*
X52363583Y-71354000D01*
X52343300Y-71148066D01*
X52283232Y-70950046D01*
X52202511Y-70799029D01*
X52185688Y-70767555D01*
X52185686Y-70767553D01*
X52185685Y-70767550D01*
X52082234Y-70641494D01*
X52054411Y-70607591D01*
X52054408Y-70607588D01*
X51894455Y-70476319D01*
X51894453Y-70476318D01*
X51894450Y-70476315D01*
X51894448Y-70476313D01*
X51894444Y-70476311D01*
X51711954Y-70378768D01*
X51711949Y-70378766D01*
X51513935Y-70318700D01*
X51513930Y-70318699D01*
X51308000Y-70298417D01*
X51102069Y-70318699D01*
X51102064Y-70318700D01*
X50904050Y-70378766D01*
X50904045Y-70378768D01*
X50721555Y-70476311D01*
X50721544Y-70476319D01*
X50561592Y-70607587D01*
X50545176Y-70627591D01*
X50537846Y-70636523D01*
X50529813Y-70646311D01*
X50487626Y-70668860D01*
X50441850Y-70654974D01*
X50419301Y-70612787D01*
X50419000Y-70606661D01*
X50419000Y-70046859D01*
X50437306Y-70002665D01*
X54081165Y-66358806D01*
X54125359Y-66340500D01*
X56533000Y-66340500D01*
X56577194Y-66358806D01*
G37*
%TD.AperFunction*%
%TA.AperFunction,Conductor*%
G36*
X51557999Y-93778498D02*
G01*
X51450315Y-93729320D01*
X51343763Y-93714000D01*
X51272237Y-93714000D01*
X51165685Y-93729320D01*
X51058000Y-93778498D01*
X51058000Y-92109501D01*
X51165685Y-92158680D01*
X51272237Y-92174000D01*
X51343763Y-92174000D01*
X51450315Y-92158680D01*
X51557999Y-92109501D01*
X51557999Y-93778498D01*
G37*
%TD.AperFunction*%
%TA.AperFunction,Conductor*%
G36*
X51557999Y-91238498D02*
G01*
X51450315Y-91189320D01*
X51343763Y-91174000D01*
X51272237Y-91174000D01*
X51165685Y-91189320D01*
X51058000Y-91238498D01*
X51058000Y-89569501D01*
X51165685Y-89618680D01*
X51272237Y-89634000D01*
X51343763Y-89634000D01*
X51450315Y-89618680D01*
X51557999Y-89569501D01*
X51557999Y-91238498D01*
G37*
%TD.AperFunction*%
%TA.AperFunction,Conductor*%
G36*
X51557999Y-88698498D02*
G01*
X51450315Y-88649320D01*
X51343763Y-88634000D01*
X51272237Y-88634000D01*
X51165685Y-88649320D01*
X51058000Y-88698498D01*
X51058000Y-87029501D01*
X51165685Y-87078680D01*
X51272237Y-87094000D01*
X51343763Y-87094000D01*
X51450315Y-87078680D01*
X51557999Y-87029501D01*
X51557999Y-88698498D01*
G37*
%TD.AperFunction*%
%TA.AperFunction,Conductor*%
G36*
X51557999Y-86158498D02*
G01*
X51450315Y-86109320D01*
X51343763Y-86094000D01*
X51272237Y-86094000D01*
X51165685Y-86109320D01*
X51058000Y-86158498D01*
X51058000Y-84489501D01*
X51165685Y-84538680D01*
X51272237Y-84554000D01*
X51343763Y-84554000D01*
X51450315Y-84538680D01*
X51557999Y-84489501D01*
X51557999Y-86158498D01*
G37*
%TD.AperFunction*%
%TA.AperFunction,Conductor*%
G36*
X51557999Y-83618498D02*
G01*
X51450315Y-83569320D01*
X51343763Y-83554000D01*
X51272237Y-83554000D01*
X51165685Y-83569320D01*
X51058000Y-83618498D01*
X51058000Y-81949501D01*
X51165685Y-81998680D01*
X51272237Y-82014000D01*
X51343763Y-82014000D01*
X51450315Y-81998680D01*
X51557999Y-81949501D01*
X51557999Y-83618498D01*
G37*
%TD.AperFunction*%
%TA.AperFunction,Conductor*%
G36*
X51557999Y-81078498D02*
G01*
X51450315Y-81029320D01*
X51343763Y-81014000D01*
X51272237Y-81014000D01*
X51165685Y-81029320D01*
X51058000Y-81078498D01*
X51058000Y-79409501D01*
X51165685Y-79458680D01*
X51272237Y-79474000D01*
X51343763Y-79474000D01*
X51450315Y-79458680D01*
X51557999Y-79409501D01*
X51557999Y-81078498D01*
G37*
%TD.AperFunction*%
%TA.AperFunction,Conductor*%
G36*
X51557999Y-78538498D02*
G01*
X51450315Y-78489320D01*
X51343763Y-78474000D01*
X51272237Y-78474000D01*
X51165685Y-78489320D01*
X51058000Y-78538498D01*
X51058000Y-76869501D01*
X51165685Y-76918680D01*
X51272237Y-76934000D01*
X51343763Y-76934000D01*
X51450315Y-76918680D01*
X51557999Y-76869501D01*
X51557999Y-78538498D01*
G37*
%TD.AperFunction*%
%TA.AperFunction,Conductor*%
G36*
X51557999Y-75998498D02*
G01*
X51450315Y-75949320D01*
X51343763Y-75934000D01*
X51272237Y-75934000D01*
X51165685Y-75949320D01*
X51058000Y-75998498D01*
X51058000Y-74329501D01*
X51165685Y-74378680D01*
X51272237Y-74394000D01*
X51343763Y-74394000D01*
X51450315Y-74378680D01*
X51557999Y-74329501D01*
X51557999Y-75998498D01*
G37*
%TD.AperFunction*%
%TD*%
M02*
