%TF.GenerationSoftware,KiCad,Pcbnew,7.0.6*%
%TF.CreationDate,2024-02-05T23:01:20+08:00*%
%TF.ProjectId,jlink_power,6a6c696e-6b5f-4706-9f77-65722e6b6963,rev?*%
%TF.SameCoordinates,Original*%
%TF.FileFunction,Copper,L2,Bot*%
%TF.FilePolarity,Positive*%
%FSLAX46Y46*%
G04 Gerber Fmt 4.6, Leading zero omitted, Abs format (unit mm)*
G04 Created by KiCad (PCBNEW 7.0.6) date 2024-02-05 23:01:20*
%MOMM*%
%LPD*%
G01*
G04 APERTURE LIST*
G04 Aperture macros list*
%AMRoundRect*
0 Rectangle with rounded corners*
0 $1 Rounding radius*
0 $2 $3 $4 $5 $6 $7 $8 $9 X,Y pos of 4 corners*
0 Add a 4 corners polygon primitive as box body*
4,1,4,$2,$3,$4,$5,$6,$7,$8,$9,$2,$3,0*
0 Add four circle primitives for the rounded corners*
1,1,$1+$1,$2,$3*
1,1,$1+$1,$4,$5*
1,1,$1+$1,$6,$7*
1,1,$1+$1,$8,$9*
0 Add four rect primitives between the rounded corners*
20,1,$1+$1,$2,$3,$4,$5,0*
20,1,$1+$1,$4,$5,$6,$7,0*
20,1,$1+$1,$6,$7,$8,$9,0*
20,1,$1+$1,$8,$9,$2,$3,0*%
G04 Aperture macros list end*
%TA.AperFunction,ComponentPad*%
%ADD10O,1.700000X1.700000*%
%TD*%
%TA.AperFunction,ComponentPad*%
%ADD11R,1.700000X1.700000*%
%TD*%
%TA.AperFunction,ComponentPad*%
%ADD12C,1.700000*%
%TD*%
%TA.AperFunction,ComponentPad*%
%ADD13RoundRect,0.250000X-0.600000X-0.600000X0.600000X-0.600000X0.600000X0.600000X-0.600000X0.600000X0*%
%TD*%
%TA.AperFunction,ComponentPad*%
%ADD14C,2.100000*%
%TD*%
%TA.AperFunction,ComponentPad*%
%ADD15C,1.308000*%
%TD*%
%TA.AperFunction,ComponentPad*%
%ADD16R,1.600000X1.600000*%
%TD*%
%TA.AperFunction,ComponentPad*%
%ADD17O,1.600000X1.600000*%
%TD*%
%TA.AperFunction,ViaPad*%
%ADD18C,0.800000*%
%TD*%
%TA.AperFunction,Conductor*%
%ADD19C,0.342374*%
%TD*%
G04 APERTURE END LIST*
D10*
%TO.P,J4,3,Pin_3*%
%TO.N,/VTref*%
X85359000Y-76835000D03*
%TO.P,J4,2,Pin_2*%
%TO.N,/VCC*%
X82819000Y-76835000D03*
D11*
%TO.P,J4,1,Pin_1*%
%TO.N,unconnected-(J4-Pin_1-Pad1)*%
X80279000Y-76835000D03*
%TD*%
D12*
%TO.P,J2,20,Pin_20*%
%TO.N,GND*%
X91694000Y-94234000D03*
%TO.P,J2,19,Pin_19*%
%TO.N,/5V*%
X89154000Y-94234000D03*
%TO.P,J2,18,Pin_18*%
%TO.N,GND*%
X91694000Y-91694000D03*
%TO.P,J2,17,Pin_17*%
%TO.N,/DBGRQ*%
X89154000Y-91694000D03*
%TO.P,J2,16,Pin_16*%
%TO.N,GND*%
X91694000Y-89154000D03*
%TO.P,J2,15,Pin_15*%
%TO.N,/nSRST*%
X89154000Y-89154000D03*
%TO.P,J2,14,Pin_14*%
%TO.N,GND*%
X91694000Y-86614000D03*
%TO.P,J2,13,Pin_13*%
%TO.N,/TDO*%
X89154000Y-86614000D03*
%TO.P,J2,12,Pin_12*%
%TO.N,GND*%
X91694000Y-84074000D03*
%TO.P,J2,11,Pin_11*%
%TO.N,/RTCK*%
X89154000Y-84074000D03*
%TO.P,J2,10,Pin_10*%
%TO.N,GND*%
X91694000Y-81534000D03*
%TO.P,J2,9,Pin_9*%
%TO.N,/TCK*%
X89154000Y-81534000D03*
%TO.P,J2,8,Pin_8*%
%TO.N,GND*%
X91694000Y-78994000D03*
%TO.P,J2,7,Pin_7*%
%TO.N,/TMS*%
X89154000Y-78994000D03*
%TO.P,J2,6,Pin_6*%
%TO.N,GND*%
X91694000Y-76454000D03*
%TO.P,J2,5,Pin_5*%
%TO.N,/TDI*%
X89154000Y-76454000D03*
%TO.P,J2,4,Pin_4*%
%TO.N,GND*%
X91694000Y-73914000D03*
%TO.P,J2,3,Pin_3*%
%TO.N,/nTRST*%
X89154000Y-73914000D03*
%TO.P,J2,2,Pin_2*%
%TO.N,/VCC*%
X91694000Y-71374000D03*
D13*
%TO.P,J2,1,Pin_1*%
%TO.N,/VTref*%
X89154000Y-71374000D03*
%TD*%
D14*
%TO.P,U1,M2*%
%TO.N,N/C*%
X57350000Y-70485000D03*
%TO.P,U1,M1*%
X65650000Y-70485000D03*
D15*
%TO.P,U1,COM,COM*%
%TO.N,/5V_SW*%
X61500000Y-70485000D03*
%TO.P,U1,2,2*%
%TO.N,/5V*%
X59500000Y-70485000D03*
%TO.P,U1,1,1*%
%TO.N,unconnected-(U1-Pad1)*%
X63500000Y-70485000D03*
%TD*%
D16*
%TO.P,SW2,1*%
%TO.N,Net-(R1-Pad1)*%
X82804000Y-90678000D03*
D17*
%TO.P,SW2,2*%
%TO.N,Net-(R2-Pad1)*%
X80264000Y-90678000D03*
%TO.P,SW2,3*%
%TO.N,Net-(R3-Pad1)*%
X77724000Y-90678000D03*
%TO.P,SW2,4*%
%TO.N,Net-(R4-Pad1)*%
X75184000Y-90678000D03*
%TO.P,SW2,5*%
%TO.N,Net-(R5-Pad1)*%
X72644000Y-90678000D03*
%TO.P,SW2,6*%
%TO.N,/V_FB*%
X70104000Y-90678000D03*
%TO.P,SW2,7*%
%TO.N,/LDO_OUT*%
X70104000Y-98298000D03*
%TO.P,SW2,8*%
X72644000Y-98298000D03*
%TO.P,SW2,9*%
X75184000Y-98298000D03*
%TO.P,SW2,10*%
X77724000Y-98298000D03*
%TO.P,SW2,11*%
X80264000Y-98298000D03*
%TO.P,SW2,12*%
X82804000Y-98298000D03*
%TD*%
D10*
%TO.P,J3,4,Pin_4*%
%TO.N,unconnected-(J3-Pin_4-Pad4)*%
X76581000Y-76835000D03*
%TO.P,J3,3,Pin_3*%
%TO.N,/LDO_OUT*%
X74041000Y-76835000D03*
%TO.P,J3,2,Pin_2*%
%TO.N,/VCC*%
X71501000Y-76835000D03*
D11*
%TO.P,J3,1,Pin_1*%
%TO.N,/5V_SW*%
X68961000Y-76835000D03*
%TD*%
%TO.P,J1,1,Pin_1*%
%TO.N,/VTref*%
X53848000Y-71354000D03*
D10*
%TO.P,J1,2,Pin_2*%
%TO.N,/NC*%
X51308000Y-71354000D03*
%TO.P,J1,3,Pin_3*%
%TO.N,/nTRST*%
X53848000Y-73894000D03*
%TO.P,J1,4,Pin_4*%
%TO.N,GND*%
X51308000Y-73894000D03*
%TO.P,J1,5,Pin_5*%
%TO.N,/TDI*%
X53848000Y-76434000D03*
%TO.P,J1,6,Pin_6*%
%TO.N,GND*%
X51308000Y-76434000D03*
%TO.P,J1,7,Pin_7*%
%TO.N,/TMS*%
X53848000Y-78974000D03*
%TO.P,J1,8,Pin_8*%
%TO.N,GND*%
X51308000Y-78974000D03*
%TO.P,J1,9,Pin_9*%
%TO.N,/TCK*%
X53848000Y-81514000D03*
%TO.P,J1,10,Pin_10*%
%TO.N,GND*%
X51308000Y-81514000D03*
%TO.P,J1,11,Pin_11*%
%TO.N,/RTCK*%
X53848000Y-84054000D03*
%TO.P,J1,12,Pin_12*%
%TO.N,GND*%
X51308000Y-84054000D03*
%TO.P,J1,13,Pin_13*%
%TO.N,/TDO*%
X53848000Y-86594000D03*
%TO.P,J1,14,Pin_14*%
%TO.N,GND*%
X51308000Y-86594000D03*
%TO.P,J1,15,Pin_15*%
%TO.N,/nSRST*%
X53848000Y-89134000D03*
%TO.P,J1,16,Pin_16*%
%TO.N,GND*%
X51308000Y-89134000D03*
%TO.P,J1,17,Pin_17*%
%TO.N,/DBGRQ*%
X53848000Y-91674000D03*
%TO.P,J1,18,Pin_18*%
%TO.N,GND*%
X51308000Y-91674000D03*
%TO.P,J1,19,Pin_19*%
%TO.N,/5V*%
X53848000Y-94214000D03*
%TO.P,J1,20,Pin_20*%
%TO.N,GND*%
X51308000Y-94214000D03*
%TD*%
D18*
%TO.N,GND*%
X74168000Y-85217000D03*
X64516000Y-92710000D03*
X57023000Y-85344000D03*
X59055000Y-79121000D03*
X57277000Y-82804000D03*
%TD*%
D19*
%TO.N,/VTref*%
X71374000Y-71374000D02*
X89154000Y-71374000D01*
X70231000Y-72517000D02*
X71374000Y-71374000D01*
X55011000Y-72517000D02*
X70231000Y-72517000D01*
X53848000Y-71354000D02*
X55011000Y-72517000D01*
%TO.N,/nTRST*%
X85090000Y-73914000D02*
X89154000Y-73914000D01*
X84455000Y-73279000D02*
X85090000Y-73914000D01*
X80899000Y-73279000D02*
X84455000Y-73279000D01*
X79248000Y-74930000D02*
X80899000Y-73279000D01*
X54884000Y-74930000D02*
X79248000Y-74930000D01*
X53848000Y-73894000D02*
X54884000Y-74930000D01*
%TO.N,/TDI*%
X55646000Y-78232000D02*
X53848000Y-76434000D01*
X87376000Y-78232000D02*
X55646000Y-78232000D01*
%TO.N,/TCK*%
X89134000Y-81514000D02*
X89154000Y-81534000D01*
%TO.N,/RTCK*%
X89154000Y-84074000D02*
X53868000Y-84074000D01*
%TO.N,/TDO*%
X88963813Y-86423813D02*
X89154000Y-86614000D01*
X53848000Y-86594000D02*
X54018187Y-86423813D01*
%TO.N,/nSRST*%
X88138000Y-88138000D02*
X89154000Y-89154000D01*
%TO.N,/TCK*%
X53848000Y-81514000D02*
X89134000Y-81514000D01*
%TO.N,/nSRST*%
X56990624Y-89134000D02*
X57986624Y-88138000D01*
X53848000Y-89134000D02*
X56990624Y-89134000D01*
%TO.N,/DBGRQ*%
X82042000Y-95504000D02*
X85852000Y-91694000D01*
X53955000Y-91674000D02*
X57785000Y-95504000D01*
%TO.N,/5V*%
X56261000Y-96774000D02*
X84582000Y-96774000D01*
%TO.N,/TMS*%
X89154000Y-78994000D02*
X88138000Y-80010000D01*
%TO.N,/5V*%
X53848000Y-94361000D02*
X56261000Y-96774000D01*
X87122000Y-94234000D02*
X89154000Y-94234000D01*
X53848000Y-94214000D02*
X53848000Y-94361000D01*
%TO.N,/DBGRQ*%
X85852000Y-91694000D02*
X89154000Y-91694000D01*
X53848000Y-91674000D02*
X53955000Y-91674000D01*
%TO.N,/RTCK*%
X53868000Y-84074000D02*
X53848000Y-84054000D01*
%TO.N,/TMS*%
X54884000Y-80010000D02*
X53848000Y-78974000D01*
%TO.N,/TDO*%
X54018187Y-86423813D02*
X88963813Y-86423813D01*
%TO.N,/DBGRQ*%
X57785000Y-95504000D02*
X82042000Y-95504000D01*
%TO.N,/nSRST*%
X57986624Y-88138000D02*
X88138000Y-88138000D01*
%TO.N,/TMS*%
X88138000Y-80010000D02*
X54884000Y-80010000D01*
%TO.N,/TDI*%
X89154000Y-76454000D02*
X87376000Y-78232000D01*
%TO.N,/5V*%
X84582000Y-96774000D02*
X87122000Y-94234000D01*
%TD*%
%TA.AperFunction,Conductor*%
%TO.N,GND*%
G36*
X56577194Y-66358806D02*
G01*
X56595500Y-66403000D01*
X56595500Y-68148364D01*
X56593114Y-68165467D01*
X56591598Y-68170793D01*
X56592925Y-68185108D01*
X56595367Y-68211464D01*
X56595500Y-68214333D01*
X56595500Y-68226846D01*
X56597797Y-68239138D01*
X56598196Y-68241996D01*
X56601964Y-68282657D01*
X56601966Y-68282663D01*
X56604435Y-68287623D01*
X56609920Y-68303986D01*
X56610938Y-68309431D01*
X56610940Y-68309435D01*
X56632434Y-68344150D01*
X56633837Y-68346668D01*
X56635442Y-68349890D01*
X56642000Y-68377760D01*
X56642000Y-68453000D01*
X56708114Y-68453000D01*
X56730695Y-68457222D01*
X56740234Y-68460918D01*
X56755315Y-68469318D01*
X56757718Y-68471132D01*
X56759736Y-68472656D01*
X56799026Y-68483834D01*
X56801717Y-68484735D01*
X56827520Y-68494732D01*
X56839825Y-68499500D01*
X56839827Y-68499500D01*
X56845365Y-68499500D01*
X56862467Y-68501885D01*
X56867793Y-68503401D01*
X56908464Y-68499632D01*
X56911334Y-68499500D01*
X65989365Y-68499500D01*
X66006467Y-68501885D01*
X66011793Y-68503401D01*
X66052464Y-68499632D01*
X66055334Y-68499500D01*
X66067842Y-68499500D01*
X66067844Y-68499500D01*
X66080138Y-68497201D01*
X66082985Y-68496803D01*
X66123660Y-68493035D01*
X66128618Y-68490565D01*
X66144993Y-68485078D01*
X66146768Y-68484746D01*
X66150433Y-68484061D01*
X66185168Y-68462552D01*
X66187654Y-68461168D01*
X66190913Y-68459545D01*
X66218758Y-68453000D01*
X66294000Y-68453000D01*
X66294000Y-68386887D01*
X66298218Y-68364315D01*
X66299914Y-68359934D01*
X66299916Y-68359933D01*
X66301917Y-68354765D01*
X66310318Y-68339683D01*
X66313656Y-68335264D01*
X66324830Y-68295986D01*
X66325746Y-68293255D01*
X66327928Y-68287623D01*
X66340500Y-68255173D01*
X66340500Y-68249636D01*
X66342886Y-68232532D01*
X66344401Y-68227206D01*
X66343074Y-68212891D01*
X66340632Y-68186535D01*
X66340500Y-68183666D01*
X66340500Y-66403000D01*
X66358806Y-66358806D01*
X66403000Y-66340500D01*
X102126000Y-66340500D01*
X102170194Y-66358806D01*
X102188500Y-66403000D01*
X102188500Y-99205000D01*
X102170194Y-99249194D01*
X102126000Y-99267500D01*
X83362123Y-99267500D01*
X83317929Y-99249194D01*
X83299623Y-99205000D01*
X83317929Y-99160806D01*
X83332661Y-99149880D01*
X83362532Y-99133913D01*
X83362538Y-99133910D01*
X83514883Y-99008883D01*
X83639910Y-98856538D01*
X83732814Y-98682727D01*
X83790024Y-98494132D01*
X83809341Y-98298000D01*
X83790024Y-98101868D01*
X83732814Y-97913273D01*
X83639910Y-97739462D01*
X83514883Y-97587117D01*
X83362538Y-97462090D01*
X83362532Y-97462086D01*
X83253018Y-97403550D01*
X83188727Y-97369186D01*
X83068184Y-97332619D01*
X83000130Y-97311975D01*
X82804000Y-97292659D01*
X82607869Y-97311975D01*
X82487325Y-97348542D01*
X82419273Y-97369186D01*
X82419271Y-97369186D01*
X82419271Y-97369187D01*
X82245467Y-97462086D01*
X82245461Y-97462090D01*
X82093117Y-97587117D01*
X81968090Y-97739461D01*
X81968086Y-97739467D01*
X81875187Y-97913271D01*
X81817975Y-98101869D01*
X81798659Y-98297999D01*
X81798659Y-98298000D01*
X81817975Y-98494130D01*
X81817976Y-98494132D01*
X81875186Y-98682727D01*
X81875187Y-98682728D01*
X81968086Y-98856532D01*
X81968090Y-98856538D01*
X82093117Y-99008883D01*
X82245462Y-99133910D01*
X82245464Y-99133911D01*
X82245467Y-99133913D01*
X82275339Y-99149880D01*
X82305686Y-99186857D01*
X82300997Y-99234462D01*
X82264020Y-99264809D01*
X82245877Y-99267500D01*
X80822123Y-99267500D01*
X80777929Y-99249194D01*
X80759623Y-99205000D01*
X80777929Y-99160806D01*
X80792661Y-99149880D01*
X80822532Y-99133913D01*
X80822538Y-99133910D01*
X80974883Y-99008883D01*
X81099910Y-98856538D01*
X81192814Y-98682727D01*
X81250024Y-98494132D01*
X81269341Y-98298000D01*
X81250024Y-98101868D01*
X81192814Y-97913273D01*
X81099910Y-97739462D01*
X80974883Y-97587117D01*
X80822538Y-97462090D01*
X80822532Y-97462086D01*
X80713018Y-97403550D01*
X80648727Y-97369186D01*
X80528184Y-97332619D01*
X80460130Y-97311975D01*
X80264000Y-97292659D01*
X80067869Y-97311975D01*
X79947325Y-97348542D01*
X79879273Y-97369186D01*
X79879271Y-97369186D01*
X79879271Y-97369187D01*
X79705467Y-97462086D01*
X79705461Y-97462090D01*
X79553117Y-97587117D01*
X79428090Y-97739461D01*
X79428086Y-97739467D01*
X79335187Y-97913271D01*
X79277975Y-98101869D01*
X79258659Y-98297999D01*
X79258659Y-98298000D01*
X79277975Y-98494130D01*
X79277976Y-98494132D01*
X79335186Y-98682727D01*
X79335187Y-98682728D01*
X79428086Y-98856532D01*
X79428090Y-98856538D01*
X79553117Y-99008883D01*
X79705462Y-99133910D01*
X79705464Y-99133911D01*
X79705467Y-99133913D01*
X79735339Y-99149880D01*
X79765686Y-99186857D01*
X79760997Y-99234462D01*
X79724020Y-99264809D01*
X79705877Y-99267500D01*
X78282123Y-99267500D01*
X78237929Y-99249194D01*
X78219623Y-99205000D01*
X78237929Y-99160806D01*
X78252661Y-99149880D01*
X78282532Y-99133913D01*
X78282538Y-99133910D01*
X78434883Y-99008883D01*
X78559910Y-98856538D01*
X78652814Y-98682727D01*
X78710024Y-98494132D01*
X78729341Y-98298000D01*
X78710024Y-98101868D01*
X78652814Y-97913273D01*
X78559910Y-97739462D01*
X78434883Y-97587117D01*
X78282538Y-97462090D01*
X78282532Y-97462086D01*
X78173018Y-97403550D01*
X78108727Y-97369186D01*
X77988184Y-97332619D01*
X77920130Y-97311975D01*
X77724000Y-97292659D01*
X77527869Y-97311975D01*
X77407325Y-97348542D01*
X77339273Y-97369186D01*
X77339271Y-97369186D01*
X77339271Y-97369187D01*
X77165467Y-97462086D01*
X77165461Y-97462090D01*
X77013117Y-97587117D01*
X76888090Y-97739461D01*
X76888086Y-97739467D01*
X76795187Y-97913271D01*
X76737975Y-98101869D01*
X76718659Y-98297999D01*
X76718659Y-98298000D01*
X76737975Y-98494130D01*
X76737976Y-98494132D01*
X76795186Y-98682727D01*
X76795187Y-98682728D01*
X76888086Y-98856532D01*
X76888090Y-98856538D01*
X77013117Y-99008883D01*
X77165462Y-99133910D01*
X77165464Y-99133911D01*
X77165467Y-99133913D01*
X77195339Y-99149880D01*
X77225686Y-99186857D01*
X77220997Y-99234462D01*
X77184020Y-99264809D01*
X77165877Y-99267500D01*
X75742123Y-99267500D01*
X75697929Y-99249194D01*
X75679623Y-99205000D01*
X75697929Y-99160806D01*
X75712661Y-99149880D01*
X75742532Y-99133913D01*
X75742538Y-99133910D01*
X75894883Y-99008883D01*
X76019910Y-98856538D01*
X76112814Y-98682727D01*
X76170024Y-98494132D01*
X76189341Y-98298000D01*
X76170024Y-98101868D01*
X76112814Y-97913273D01*
X76019910Y-97739462D01*
X75894883Y-97587117D01*
X75742538Y-97462090D01*
X75742532Y-97462086D01*
X75633018Y-97403550D01*
X75568727Y-97369186D01*
X75448184Y-97332619D01*
X75380130Y-97311975D01*
X75184000Y-97292659D01*
X74987869Y-97311975D01*
X74867325Y-97348542D01*
X74799273Y-97369186D01*
X74799271Y-97369186D01*
X74799271Y-97369187D01*
X74625467Y-97462086D01*
X74625461Y-97462090D01*
X74473117Y-97587117D01*
X74348090Y-97739461D01*
X74348086Y-97739467D01*
X74255187Y-97913271D01*
X74197975Y-98101869D01*
X74178659Y-98297999D01*
X74178659Y-98298000D01*
X74197975Y-98494130D01*
X74197976Y-98494132D01*
X74255186Y-98682727D01*
X74255187Y-98682728D01*
X74348086Y-98856532D01*
X74348090Y-98856538D01*
X74473117Y-99008883D01*
X74625462Y-99133910D01*
X74625464Y-99133911D01*
X74625467Y-99133913D01*
X74655339Y-99149880D01*
X74685686Y-99186857D01*
X74680997Y-99234462D01*
X74644020Y-99264809D01*
X74625877Y-99267500D01*
X73202123Y-99267500D01*
X73157929Y-99249194D01*
X73139623Y-99205000D01*
X73157929Y-99160806D01*
X73172661Y-99149880D01*
X73202532Y-99133913D01*
X73202538Y-99133910D01*
X73354883Y-99008883D01*
X73479910Y-98856538D01*
X73572814Y-98682727D01*
X73630024Y-98494132D01*
X73649341Y-98298000D01*
X73630024Y-98101868D01*
X73572814Y-97913273D01*
X73479910Y-97739462D01*
X73354883Y-97587117D01*
X73202538Y-97462090D01*
X73202532Y-97462086D01*
X73093018Y-97403550D01*
X73028727Y-97369186D01*
X72908184Y-97332619D01*
X72840130Y-97311975D01*
X72644000Y-97292659D01*
X72447869Y-97311975D01*
X72327325Y-97348542D01*
X72259273Y-97369186D01*
X72259271Y-97369186D01*
X72259271Y-97369187D01*
X72085467Y-97462086D01*
X72085461Y-97462090D01*
X71933117Y-97587117D01*
X71808090Y-97739461D01*
X71808086Y-97739467D01*
X71715187Y-97913271D01*
X71657975Y-98101869D01*
X71638659Y-98297999D01*
X71638659Y-98298000D01*
X71657975Y-98494130D01*
X71657976Y-98494132D01*
X71715186Y-98682727D01*
X71715187Y-98682728D01*
X71808086Y-98856532D01*
X71808090Y-98856538D01*
X71933117Y-99008883D01*
X72085462Y-99133910D01*
X72085464Y-99133911D01*
X72085467Y-99133913D01*
X72115339Y-99149880D01*
X72145686Y-99186857D01*
X72140997Y-99234462D01*
X72104020Y-99264809D01*
X72085877Y-99267500D01*
X70662123Y-99267500D01*
X70617929Y-99249194D01*
X70599623Y-99205000D01*
X70617929Y-99160806D01*
X70632661Y-99149880D01*
X70662532Y-99133913D01*
X70662538Y-99133910D01*
X70814883Y-99008883D01*
X70939910Y-98856538D01*
X71032814Y-98682727D01*
X71090024Y-98494132D01*
X71109341Y-98298000D01*
X71090024Y-98101868D01*
X71032814Y-97913273D01*
X70939910Y-97739462D01*
X70814883Y-97587117D01*
X70662538Y-97462090D01*
X70662532Y-97462086D01*
X70553018Y-97403550D01*
X70488727Y-97369186D01*
X70368184Y-97332619D01*
X70300130Y-97311975D01*
X70104000Y-97292659D01*
X69907869Y-97311975D01*
X69787325Y-97348542D01*
X69719273Y-97369186D01*
X69719271Y-97369186D01*
X69719271Y-97369187D01*
X69545467Y-97462086D01*
X69545461Y-97462090D01*
X69393117Y-97587117D01*
X69268090Y-97739461D01*
X69268086Y-97739467D01*
X69175187Y-97913271D01*
X69117975Y-98101869D01*
X69098659Y-98297999D01*
X69098659Y-98298000D01*
X69117975Y-98494130D01*
X69117976Y-98494132D01*
X69175186Y-98682727D01*
X69175187Y-98682728D01*
X69268086Y-98856532D01*
X69268090Y-98856538D01*
X69393117Y-99008883D01*
X69545462Y-99133910D01*
X69545464Y-99133911D01*
X69545467Y-99133913D01*
X69575339Y-99149880D01*
X69605686Y-99186857D01*
X69600997Y-99234462D01*
X69564020Y-99264809D01*
X69545877Y-99267500D01*
X53744360Y-99267500D01*
X53700166Y-99249194D01*
X52577727Y-98126755D01*
X50436480Y-95903152D01*
X50419000Y-95859799D01*
X50419000Y-95359622D01*
X50437306Y-95315428D01*
X50481500Y-95297122D01*
X50517349Y-95308425D01*
X50630426Y-95387603D01*
X50844503Y-95487428D01*
X50844519Y-95487434D01*
X51057997Y-95544635D01*
X51057999Y-95544634D01*
X51057999Y-94649501D01*
X51165685Y-94698680D01*
X51272237Y-94714000D01*
X51343763Y-94714000D01*
X51450315Y-94698680D01*
X51558000Y-94649501D01*
X51558000Y-95544634D01*
X51558001Y-95544635D01*
X51771480Y-95487434D01*
X51771496Y-95487428D01*
X51985573Y-95387603D01*
X52179081Y-95252107D01*
X52346107Y-95085081D01*
X52481601Y-94891575D01*
X52581431Y-94677489D01*
X52581432Y-94677487D01*
X52638636Y-94464001D01*
X52638636Y-94464000D01*
X51741686Y-94464000D01*
X51767493Y-94423844D01*
X51808000Y-94285889D01*
X51808000Y-94214000D01*
X52792417Y-94214000D01*
X52812699Y-94419930D01*
X52812700Y-94419935D01*
X52872766Y-94617949D01*
X52872768Y-94617954D01*
X52970311Y-94800444D01*
X52970319Y-94800455D01*
X53101588Y-94960408D01*
X53101591Y-94960411D01*
X53144193Y-94995373D01*
X53261550Y-95091685D01*
X53261553Y-95091686D01*
X53261555Y-95091688D01*
X53303311Y-95114007D01*
X53444046Y-95189232D01*
X53642066Y-95249300D01*
X53848000Y-95269583D01*
X54053934Y-95249300D01*
X54138331Y-95223698D01*
X54185936Y-95228387D01*
X54200668Y-95239313D01*
X55966338Y-97004983D01*
X55974463Y-97014987D01*
X55983760Y-97029217D01*
X56012966Y-97051949D01*
X56015854Y-97054499D01*
X56019954Y-97058599D01*
X56038772Y-97072034D01*
X56061810Y-97089966D01*
X56081645Y-97105405D01*
X56081647Y-97105406D01*
X56081651Y-97105409D01*
X56081654Y-97105410D01*
X56086204Y-97107872D01*
X56086169Y-97107935D01*
X56090815Y-97110326D01*
X56090847Y-97110263D01*
X56095495Y-97112535D01*
X56095497Y-97112535D01*
X56095499Y-97112537D01*
X56147569Y-97128039D01*
X56198976Y-97145687D01*
X56198979Y-97145687D01*
X56204086Y-97146540D01*
X56204074Y-97146609D01*
X56209239Y-97147362D01*
X56209248Y-97147292D01*
X56214384Y-97147932D01*
X56214388Y-97147931D01*
X56214389Y-97147932D01*
X56268660Y-97145687D01*
X84536971Y-97145687D01*
X84549796Y-97147016D01*
X84566427Y-97150504D01*
X84566428Y-97150503D01*
X84566429Y-97150504D01*
X84591633Y-97147362D01*
X84603147Y-97145926D01*
X84607014Y-97145687D01*
X84612791Y-97145687D01*
X84612797Y-97145687D01*
X84635609Y-97141880D01*
X84689523Y-97135160D01*
X84689531Y-97135155D01*
X84694489Y-97133681D01*
X84694509Y-97133751D01*
X84699476Y-97132159D01*
X84699453Y-97132091D01*
X84704345Y-97130410D01*
X84704355Y-97130409D01*
X84752143Y-97104547D01*
X84800965Y-97080680D01*
X84800969Y-97080675D01*
X84805180Y-97077670D01*
X84805222Y-97077730D01*
X84809407Y-97074610D01*
X84809362Y-97074552D01*
X84813449Y-97071370D01*
X84813448Y-97071370D01*
X84813451Y-97071369D01*
X84850243Y-97031401D01*
X87257651Y-94623993D01*
X87301846Y-94605687D01*
X88124060Y-94605687D01*
X88168254Y-94623993D01*
X88179180Y-94638725D01*
X88276311Y-94820444D01*
X88276319Y-94820455D01*
X88407588Y-94980408D01*
X88407591Y-94980411D01*
X88519951Y-95072622D01*
X88567550Y-95111685D01*
X88567553Y-95111686D01*
X88567555Y-95111688D01*
X88571894Y-95114007D01*
X88750046Y-95209232D01*
X88948066Y-95269300D01*
X89154000Y-95289583D01*
X89359934Y-95269300D01*
X89557954Y-95209232D01*
X89740450Y-95111685D01*
X89900410Y-94980410D01*
X90031685Y-94820450D01*
X90129232Y-94637954D01*
X90189300Y-94439934D01*
X90209583Y-94234002D01*
X90338843Y-94234002D01*
X90359430Y-94469317D01*
X90359433Y-94469333D01*
X90420567Y-94697487D01*
X90420568Y-94697489D01*
X90520399Y-94911578D01*
X90579072Y-94995372D01*
X90579072Y-94995373D01*
X91210922Y-94363522D01*
X91234507Y-94443844D01*
X91312239Y-94564798D01*
X91420900Y-94658952D01*
X91551685Y-94718680D01*
X91561466Y-94720086D01*
X90932625Y-95348926D01*
X91016422Y-95407600D01*
X91016420Y-95407600D01*
X91230510Y-95507431D01*
X91230512Y-95507432D01*
X91458666Y-95568566D01*
X91458682Y-95568569D01*
X91693998Y-95589157D01*
X91694002Y-95589157D01*
X91929317Y-95568569D01*
X91929333Y-95568566D01*
X92157487Y-95507432D01*
X92157489Y-95507431D01*
X92371575Y-95407601D01*
X92455372Y-95348925D01*
X91826533Y-94720086D01*
X91836315Y-94718680D01*
X91967100Y-94658952D01*
X92075761Y-94564798D01*
X92153493Y-94443844D01*
X92177076Y-94363523D01*
X92808925Y-94995372D01*
X92867601Y-94911575D01*
X92967431Y-94697489D01*
X92967432Y-94697487D01*
X93028566Y-94469333D01*
X93028569Y-94469317D01*
X93049157Y-94234002D01*
X93049157Y-94233997D01*
X93028569Y-93998682D01*
X93028566Y-93998666D01*
X92967432Y-93770512D01*
X92967431Y-93770510D01*
X92867600Y-93556422D01*
X92808926Y-93472625D01*
X92177076Y-94104475D01*
X92153493Y-94024156D01*
X92075761Y-93903202D01*
X91967100Y-93809048D01*
X91836315Y-93749320D01*
X91826531Y-93747913D01*
X92455373Y-93119072D01*
X92371577Y-93060399D01*
X92371575Y-93060397D01*
X92286322Y-93020644D01*
X92254004Y-92985377D01*
X92256091Y-92937587D01*
X92286322Y-92907356D01*
X92371573Y-92867603D01*
X92455373Y-92808925D01*
X91826533Y-92180086D01*
X91836315Y-92178680D01*
X91967100Y-92118952D01*
X92075761Y-92024798D01*
X92153493Y-91903844D01*
X92177076Y-91823523D01*
X92808925Y-92455372D01*
X92867601Y-92371575D01*
X92967431Y-92157489D01*
X92967432Y-92157487D01*
X93028566Y-91929333D01*
X93028569Y-91929317D01*
X93049157Y-91694002D01*
X93049157Y-91693997D01*
X93028569Y-91458682D01*
X93028566Y-91458666D01*
X92967432Y-91230512D01*
X92967431Y-91230510D01*
X92867600Y-91016422D01*
X92808926Y-90932625D01*
X92177076Y-91564475D01*
X92153493Y-91484156D01*
X92075761Y-91363202D01*
X91967100Y-91269048D01*
X91836315Y-91209320D01*
X91826531Y-91207913D01*
X92455373Y-90579072D01*
X92371577Y-90520399D01*
X92371575Y-90520397D01*
X92286322Y-90480644D01*
X92254004Y-90445377D01*
X92256091Y-90397587D01*
X92286322Y-90367356D01*
X92371573Y-90327603D01*
X92455372Y-90268925D01*
X91826533Y-89640086D01*
X91836315Y-89638680D01*
X91967100Y-89578952D01*
X92075761Y-89484798D01*
X92153493Y-89363844D01*
X92177076Y-89283523D01*
X92808925Y-89915372D01*
X92867601Y-89831575D01*
X92967431Y-89617489D01*
X92967432Y-89617487D01*
X93028566Y-89389333D01*
X93028569Y-89389317D01*
X93049157Y-89154002D01*
X93049157Y-89153997D01*
X93028569Y-88918682D01*
X93028566Y-88918666D01*
X92967432Y-88690512D01*
X92967431Y-88690510D01*
X92867600Y-88476422D01*
X92808926Y-88392625D01*
X92177076Y-89024475D01*
X92153493Y-88944156D01*
X92075761Y-88823202D01*
X91967100Y-88729048D01*
X91836315Y-88669320D01*
X91826531Y-88667913D01*
X92455373Y-88039072D01*
X92371577Y-87980399D01*
X92371575Y-87980397D01*
X92286322Y-87940644D01*
X92254004Y-87905377D01*
X92256091Y-87857587D01*
X92286322Y-87827356D01*
X92371573Y-87787603D01*
X92455372Y-87728925D01*
X91826533Y-87100086D01*
X91836315Y-87098680D01*
X91967100Y-87038952D01*
X92075761Y-86944798D01*
X92153493Y-86823844D01*
X92177076Y-86743523D01*
X92808925Y-87375372D01*
X92867601Y-87291575D01*
X92967431Y-87077489D01*
X92967432Y-87077487D01*
X93028566Y-86849333D01*
X93028569Y-86849317D01*
X93049157Y-86614002D01*
X93049157Y-86613997D01*
X93028569Y-86378682D01*
X93028566Y-86378666D01*
X92967432Y-86150512D01*
X92967431Y-86150510D01*
X92867600Y-85936422D01*
X92808926Y-85852625D01*
X92177076Y-86484475D01*
X92153493Y-86404156D01*
X92075761Y-86283202D01*
X91967100Y-86189048D01*
X91836315Y-86129320D01*
X91826531Y-86127913D01*
X92455373Y-85499072D01*
X92371577Y-85440399D01*
X92371575Y-85440397D01*
X92286322Y-85400644D01*
X92254004Y-85365377D01*
X92256091Y-85317587D01*
X92286322Y-85287356D01*
X92371573Y-85247603D01*
X92455372Y-85188925D01*
X91826533Y-84560086D01*
X91836315Y-84558680D01*
X91967100Y-84498952D01*
X92075761Y-84404798D01*
X92153493Y-84283844D01*
X92177076Y-84203523D01*
X92808925Y-84835372D01*
X92867601Y-84751575D01*
X92967431Y-84537489D01*
X92967432Y-84537487D01*
X93028566Y-84309333D01*
X93028569Y-84309317D01*
X93049157Y-84074002D01*
X93049157Y-84073997D01*
X93028569Y-83838682D01*
X93028566Y-83838666D01*
X92967432Y-83610512D01*
X92967431Y-83610510D01*
X92867600Y-83396422D01*
X92808926Y-83312625D01*
X92177076Y-83944475D01*
X92153493Y-83864156D01*
X92075761Y-83743202D01*
X91967100Y-83649048D01*
X91836315Y-83589320D01*
X91826531Y-83587913D01*
X92455373Y-82959072D01*
X92371577Y-82900399D01*
X92371575Y-82900397D01*
X92286322Y-82860644D01*
X92254004Y-82825377D01*
X92256091Y-82777587D01*
X92286322Y-82747356D01*
X92371573Y-82707603D01*
X92455372Y-82648925D01*
X91826533Y-82020086D01*
X91836315Y-82018680D01*
X91967100Y-81958952D01*
X92075761Y-81864798D01*
X92153493Y-81743844D01*
X92177076Y-81663523D01*
X92808925Y-82295372D01*
X92867601Y-82211575D01*
X92967431Y-81997489D01*
X92967432Y-81997487D01*
X93028566Y-81769333D01*
X93028569Y-81769317D01*
X93049157Y-81534002D01*
X93049157Y-81533997D01*
X93028569Y-81298682D01*
X93028566Y-81298666D01*
X92967432Y-81070512D01*
X92967431Y-81070510D01*
X92867600Y-80856422D01*
X92808926Y-80772625D01*
X92177076Y-81404475D01*
X92153493Y-81324156D01*
X92075761Y-81203202D01*
X91967100Y-81109048D01*
X91836315Y-81049320D01*
X91826531Y-81047913D01*
X92455373Y-80419072D01*
X92371577Y-80360399D01*
X92371575Y-80360397D01*
X92286322Y-80320644D01*
X92254004Y-80285377D01*
X92256091Y-80237587D01*
X92286322Y-80207356D01*
X92371573Y-80167603D01*
X92455372Y-80108925D01*
X91826533Y-79480086D01*
X91836315Y-79478680D01*
X91967100Y-79418952D01*
X92075761Y-79324798D01*
X92153493Y-79203844D01*
X92177076Y-79123523D01*
X92808925Y-79755372D01*
X92867601Y-79671575D01*
X92967431Y-79457489D01*
X92967432Y-79457487D01*
X93028566Y-79229333D01*
X93028569Y-79229317D01*
X93049157Y-78994002D01*
X93049157Y-78993997D01*
X93028569Y-78758682D01*
X93028566Y-78758666D01*
X92967432Y-78530512D01*
X92967431Y-78530510D01*
X92867600Y-78316422D01*
X92808926Y-78232625D01*
X92177076Y-78864475D01*
X92153493Y-78784156D01*
X92075761Y-78663202D01*
X91967100Y-78569048D01*
X91836315Y-78509320D01*
X91826531Y-78507913D01*
X92455373Y-77879072D01*
X92371577Y-77820399D01*
X92371575Y-77820397D01*
X92286322Y-77780644D01*
X92254004Y-77745377D01*
X92256091Y-77697587D01*
X92286322Y-77667356D01*
X92371573Y-77627603D01*
X92455372Y-77568925D01*
X91826533Y-76940086D01*
X91836315Y-76938680D01*
X91967100Y-76878952D01*
X92075761Y-76784798D01*
X92153493Y-76663844D01*
X92177076Y-76583523D01*
X92808925Y-77215372D01*
X92867601Y-77131575D01*
X92967431Y-76917489D01*
X92967432Y-76917487D01*
X93028566Y-76689333D01*
X93028569Y-76689317D01*
X93049157Y-76454002D01*
X93049157Y-76453997D01*
X93028569Y-76218682D01*
X93028566Y-76218666D01*
X92967432Y-75990512D01*
X92967431Y-75990510D01*
X92867600Y-75776422D01*
X92808926Y-75692625D01*
X92177076Y-76324475D01*
X92153493Y-76244156D01*
X92075761Y-76123202D01*
X91967100Y-76029048D01*
X91836315Y-75969320D01*
X91826531Y-75967913D01*
X92455373Y-75339072D01*
X92371577Y-75280399D01*
X92371575Y-75280397D01*
X92286322Y-75240644D01*
X92254004Y-75205377D01*
X92256091Y-75157587D01*
X92286322Y-75127356D01*
X92371573Y-75087603D01*
X92455372Y-75028925D01*
X91826533Y-74400086D01*
X91836315Y-74398680D01*
X91967100Y-74338952D01*
X92075761Y-74244798D01*
X92153493Y-74123844D01*
X92177076Y-74043523D01*
X92808925Y-74675372D01*
X92867601Y-74591575D01*
X92967431Y-74377489D01*
X92967432Y-74377487D01*
X93028566Y-74149333D01*
X93028569Y-74149317D01*
X93049157Y-73914002D01*
X93049157Y-73913997D01*
X93028569Y-73678682D01*
X93028566Y-73678666D01*
X92967432Y-73450512D01*
X92967431Y-73450510D01*
X92867600Y-73236422D01*
X92808926Y-73152625D01*
X92177076Y-73784475D01*
X92153493Y-73704156D01*
X92075761Y-73583202D01*
X91967100Y-73489048D01*
X91836315Y-73429320D01*
X91826531Y-73427913D01*
X92455373Y-72799072D01*
X92371577Y-72740399D01*
X92371579Y-72740399D01*
X92157489Y-72640568D01*
X92157487Y-72640567D01*
X91929333Y-72579433D01*
X91929317Y-72579430D01*
X91694002Y-72558843D01*
X91693998Y-72558843D01*
X91458682Y-72579430D01*
X91458666Y-72579433D01*
X91230512Y-72640567D01*
X91230510Y-72640568D01*
X91016426Y-72740397D01*
X90932626Y-72799073D01*
X91561466Y-73427913D01*
X91551685Y-73429320D01*
X91420900Y-73489048D01*
X91312239Y-73583202D01*
X91234507Y-73704156D01*
X91210923Y-73784476D01*
X90579073Y-73152626D01*
X90520397Y-73236426D01*
X90420568Y-73450510D01*
X90420567Y-73450512D01*
X90359433Y-73678666D01*
X90359430Y-73678682D01*
X90338843Y-73913997D01*
X90338843Y-73914002D01*
X90359430Y-74149317D01*
X90359433Y-74149333D01*
X90420567Y-74377487D01*
X90420568Y-74377489D01*
X90520399Y-74591578D01*
X90579072Y-74675372D01*
X90579072Y-74675373D01*
X91210922Y-74043522D01*
X91234507Y-74123844D01*
X91312239Y-74244798D01*
X91420900Y-74338952D01*
X91551685Y-74398680D01*
X91561466Y-74400086D01*
X90932625Y-75028926D01*
X91016422Y-75087600D01*
X91016420Y-75087600D01*
X91101677Y-75127356D01*
X91133994Y-75162624D01*
X91131907Y-75210414D01*
X91101677Y-75240644D01*
X91016426Y-75280397D01*
X90932626Y-75339073D01*
X91561466Y-75967913D01*
X91551685Y-75969320D01*
X91420900Y-76029048D01*
X91312239Y-76123202D01*
X91234507Y-76244156D01*
X91210923Y-76324476D01*
X90579073Y-75692626D01*
X90520397Y-75776426D01*
X90420568Y-75990510D01*
X90420567Y-75990512D01*
X90359433Y-76218666D01*
X90359430Y-76218682D01*
X90338843Y-76453997D01*
X90338843Y-76454002D01*
X90359430Y-76689317D01*
X90359433Y-76689333D01*
X90420567Y-76917487D01*
X90420568Y-76917489D01*
X90520399Y-77131578D01*
X90579072Y-77215372D01*
X90579072Y-77215373D01*
X91210922Y-76583522D01*
X91234507Y-76663844D01*
X91312239Y-76784798D01*
X91420900Y-76878952D01*
X91551685Y-76938680D01*
X91561466Y-76940086D01*
X90932625Y-77568926D01*
X91016422Y-77627600D01*
X91016420Y-77627600D01*
X91101677Y-77667356D01*
X91133994Y-77702624D01*
X91131907Y-77750414D01*
X91101677Y-77780644D01*
X91016426Y-77820397D01*
X90932626Y-77879073D01*
X91561466Y-78507913D01*
X91551685Y-78509320D01*
X91420900Y-78569048D01*
X91312239Y-78663202D01*
X91234507Y-78784156D01*
X91210923Y-78864476D01*
X90579073Y-78232626D01*
X90520397Y-78316426D01*
X90420568Y-78530510D01*
X90420567Y-78530512D01*
X90359433Y-78758666D01*
X90359430Y-78758682D01*
X90338843Y-78993997D01*
X90338843Y-78994002D01*
X90359430Y-79229317D01*
X90359433Y-79229333D01*
X90420567Y-79457487D01*
X90420568Y-79457489D01*
X90520399Y-79671578D01*
X90579072Y-79755372D01*
X90579072Y-79755373D01*
X91210922Y-79123522D01*
X91234507Y-79203844D01*
X91312239Y-79324798D01*
X91420900Y-79418952D01*
X91551685Y-79478680D01*
X91561466Y-79480086D01*
X90932625Y-80108926D01*
X91016422Y-80167600D01*
X91016420Y-80167600D01*
X91101677Y-80207356D01*
X91133994Y-80242624D01*
X91131907Y-80290414D01*
X91101677Y-80320644D01*
X91016426Y-80360397D01*
X90932626Y-80419073D01*
X91561466Y-81047913D01*
X91551685Y-81049320D01*
X91420900Y-81109048D01*
X91312239Y-81203202D01*
X91234507Y-81324156D01*
X91210923Y-81404476D01*
X90579073Y-80772626D01*
X90520397Y-80856426D01*
X90420568Y-81070510D01*
X90420567Y-81070512D01*
X90359433Y-81298666D01*
X90359430Y-81298682D01*
X90338843Y-81533997D01*
X90338843Y-81534002D01*
X90359430Y-81769317D01*
X90359433Y-81769333D01*
X90420567Y-81997487D01*
X90420568Y-81997489D01*
X90520399Y-82211578D01*
X90579072Y-82295372D01*
X90579072Y-82295373D01*
X91210922Y-81663522D01*
X91234507Y-81743844D01*
X91312239Y-81864798D01*
X91420900Y-81958952D01*
X91551685Y-82018680D01*
X91561466Y-82020086D01*
X90932625Y-82648926D01*
X91016422Y-82707600D01*
X91016420Y-82707600D01*
X91101677Y-82747356D01*
X91133994Y-82782624D01*
X91131907Y-82830414D01*
X91101677Y-82860644D01*
X91016426Y-82900397D01*
X90932626Y-82959073D01*
X91561466Y-83587913D01*
X91551685Y-83589320D01*
X91420900Y-83649048D01*
X91312239Y-83743202D01*
X91234507Y-83864156D01*
X91210923Y-83944476D01*
X90579073Y-83312626D01*
X90520397Y-83396426D01*
X90420568Y-83610510D01*
X90420567Y-83610512D01*
X90359433Y-83838666D01*
X90359430Y-83838682D01*
X90338843Y-84073997D01*
X90338843Y-84074002D01*
X90359430Y-84309317D01*
X90359433Y-84309333D01*
X90420567Y-84537487D01*
X90420568Y-84537489D01*
X90520399Y-84751578D01*
X90579072Y-84835372D01*
X90579072Y-84835373D01*
X91210922Y-84203522D01*
X91234507Y-84283844D01*
X91312239Y-84404798D01*
X91420900Y-84498952D01*
X91551685Y-84558680D01*
X91561466Y-84560086D01*
X90932625Y-85188926D01*
X91016422Y-85247600D01*
X91016420Y-85247600D01*
X91101677Y-85287356D01*
X91133994Y-85322624D01*
X91131907Y-85370414D01*
X91101677Y-85400644D01*
X91016426Y-85440397D01*
X90932626Y-85499073D01*
X91561466Y-86127913D01*
X91551685Y-86129320D01*
X91420900Y-86189048D01*
X91312239Y-86283202D01*
X91234507Y-86404156D01*
X91210923Y-86484476D01*
X90579073Y-85852626D01*
X90520397Y-85936426D01*
X90420568Y-86150510D01*
X90420567Y-86150512D01*
X90359433Y-86378666D01*
X90359430Y-86378682D01*
X90338843Y-86613997D01*
X90338843Y-86614002D01*
X90359430Y-86849317D01*
X90359433Y-86849333D01*
X90420567Y-87077487D01*
X90420568Y-87077489D01*
X90520399Y-87291578D01*
X90579072Y-87375372D01*
X90579072Y-87375373D01*
X91210922Y-86743522D01*
X91234507Y-86823844D01*
X91312239Y-86944798D01*
X91420900Y-87038952D01*
X91551685Y-87098680D01*
X91561466Y-87100086D01*
X90932625Y-87728926D01*
X91016422Y-87787600D01*
X91016420Y-87787600D01*
X91101677Y-87827356D01*
X91133994Y-87862624D01*
X91131907Y-87910414D01*
X91101677Y-87940644D01*
X91016426Y-87980397D01*
X90932626Y-88039073D01*
X91561466Y-88667913D01*
X91551685Y-88669320D01*
X91420900Y-88729048D01*
X91312239Y-88823202D01*
X91234507Y-88944156D01*
X91210923Y-89024476D01*
X90579073Y-88392626D01*
X90520397Y-88476426D01*
X90420568Y-88690510D01*
X90420567Y-88690512D01*
X90359433Y-88918666D01*
X90359430Y-88918682D01*
X90338843Y-89153997D01*
X90338843Y-89154002D01*
X90359430Y-89389317D01*
X90359433Y-89389333D01*
X90420567Y-89617487D01*
X90420568Y-89617489D01*
X90520399Y-89831578D01*
X90579072Y-89915372D01*
X90579072Y-89915373D01*
X91210922Y-89283522D01*
X91234507Y-89363844D01*
X91312239Y-89484798D01*
X91420900Y-89578952D01*
X91551685Y-89638680D01*
X91561466Y-89640086D01*
X90932625Y-90268926D01*
X91016422Y-90327600D01*
X91016420Y-90327600D01*
X91101677Y-90367356D01*
X91133994Y-90402624D01*
X91131907Y-90450414D01*
X91101677Y-90480644D01*
X91016426Y-90520397D01*
X90932626Y-90579073D01*
X91561466Y-91207913D01*
X91551685Y-91209320D01*
X91420900Y-91269048D01*
X91312239Y-91363202D01*
X91234507Y-91484156D01*
X91210923Y-91564476D01*
X90579073Y-90932626D01*
X90520397Y-91016426D01*
X90420568Y-91230510D01*
X90420567Y-91230512D01*
X90359433Y-91458666D01*
X90359430Y-91458682D01*
X90338843Y-91693997D01*
X90338843Y-91694002D01*
X90359430Y-91929317D01*
X90359433Y-91929333D01*
X90420567Y-92157487D01*
X90420568Y-92157489D01*
X90520399Y-92371578D01*
X90579072Y-92455372D01*
X90579072Y-92455373D01*
X91210922Y-91823522D01*
X91234507Y-91903844D01*
X91312239Y-92024798D01*
X91420900Y-92118952D01*
X91551685Y-92178680D01*
X91561466Y-92180086D01*
X90932625Y-92808926D01*
X91016422Y-92867600D01*
X91016420Y-92867600D01*
X91101677Y-92907356D01*
X91133994Y-92942624D01*
X91131907Y-92990414D01*
X91101677Y-93020644D01*
X91016426Y-93060397D01*
X90932626Y-93119073D01*
X91561466Y-93747913D01*
X91551685Y-93749320D01*
X91420900Y-93809048D01*
X91312239Y-93903202D01*
X91234507Y-94024156D01*
X91210923Y-94104476D01*
X90579073Y-93472626D01*
X90520397Y-93556426D01*
X90420568Y-93770510D01*
X90420567Y-93770512D01*
X90359433Y-93998666D01*
X90359430Y-93998682D01*
X90338843Y-94233997D01*
X90338843Y-94234002D01*
X90209583Y-94234002D01*
X90209583Y-94234000D01*
X90189300Y-94028066D01*
X90129232Y-93830046D01*
X90031685Y-93647550D01*
X89900410Y-93487590D01*
X89882176Y-93472626D01*
X89740455Y-93356319D01*
X89740453Y-93356318D01*
X89740450Y-93356315D01*
X89740448Y-93356313D01*
X89740444Y-93356311D01*
X89557954Y-93258768D01*
X89557949Y-93258766D01*
X89359935Y-93198700D01*
X89359930Y-93198699D01*
X89154000Y-93178417D01*
X88948069Y-93198699D01*
X88948064Y-93198700D01*
X88750050Y-93258766D01*
X88750045Y-93258768D01*
X88567555Y-93356311D01*
X88567544Y-93356319D01*
X88407591Y-93487588D01*
X88407588Y-93487591D01*
X88276319Y-93647544D01*
X88276311Y-93647555D01*
X88179180Y-93829275D01*
X88142203Y-93859622D01*
X88124060Y-93862313D01*
X87167028Y-93862313D01*
X87154202Y-93860983D01*
X87137572Y-93857496D01*
X87137569Y-93857495D01*
X87105557Y-93861486D01*
X87100851Y-93862073D01*
X87096985Y-93862313D01*
X87091203Y-93862313D01*
X87068390Y-93866119D01*
X87068391Y-93866119D01*
X87014479Y-93872839D01*
X87009520Y-93874316D01*
X87009500Y-93874249D01*
X87004516Y-93875845D01*
X87004539Y-93875911D01*
X86999642Y-93877591D01*
X86951856Y-93903452D01*
X86903035Y-93927319D01*
X86898820Y-93930329D01*
X86898780Y-93930273D01*
X86894588Y-93933399D01*
X86894631Y-93933454D01*
X86890548Y-93936631D01*
X86872152Y-93956614D01*
X86853756Y-93976598D01*
X85621124Y-95209231D01*
X84446348Y-96384007D01*
X84402154Y-96402313D01*
X56440846Y-96402313D01*
X56396652Y-96384007D01*
X54788909Y-94776264D01*
X54770603Y-94732070D01*
X54777983Y-94702607D01*
X54791410Y-94677487D01*
X54823232Y-94617954D01*
X54883300Y-94419934D01*
X54903583Y-94214000D01*
X54883300Y-94008066D01*
X54823232Y-93810046D01*
X54736378Y-93647555D01*
X54725688Y-93627555D01*
X54725686Y-93627553D01*
X54725685Y-93627550D01*
X54610824Y-93487591D01*
X54594411Y-93467591D01*
X54594408Y-93467588D01*
X54434455Y-93336319D01*
X54434453Y-93336318D01*
X54434450Y-93336315D01*
X54434448Y-93336313D01*
X54434444Y-93336311D01*
X54251954Y-93238768D01*
X54251949Y-93238766D01*
X54053935Y-93178700D01*
X54053930Y-93178699D01*
X53848000Y-93158417D01*
X53642069Y-93178699D01*
X53642064Y-93178700D01*
X53444050Y-93238766D01*
X53444045Y-93238768D01*
X53261555Y-93336311D01*
X53261544Y-93336319D01*
X53101591Y-93467588D01*
X53101588Y-93467591D01*
X52970319Y-93627544D01*
X52970311Y-93627555D01*
X52872768Y-93810045D01*
X52872766Y-93810050D01*
X52812700Y-94008064D01*
X52812699Y-94008069D01*
X52792417Y-94213999D01*
X52792417Y-94214000D01*
X51808000Y-94214000D01*
X51808000Y-94142111D01*
X51767493Y-94004156D01*
X51741686Y-93964000D01*
X52638636Y-93964000D01*
X52638636Y-93963998D01*
X52581432Y-93750512D01*
X52581431Y-93750510D01*
X52481600Y-93536422D01*
X52346109Y-93342920D01*
X52179081Y-93175892D01*
X51985573Y-93040396D01*
X51900322Y-93000644D01*
X51868004Y-92965377D01*
X51870091Y-92917587D01*
X51900322Y-92887356D01*
X51985573Y-92847603D01*
X52179081Y-92712107D01*
X52346107Y-92545081D01*
X52481601Y-92351575D01*
X52581431Y-92137489D01*
X52581432Y-92137487D01*
X52638636Y-91924001D01*
X52638636Y-91924000D01*
X51741686Y-91924000D01*
X51767493Y-91883844D01*
X51808000Y-91745889D01*
X51808000Y-91674000D01*
X52792417Y-91674000D01*
X52812699Y-91879930D01*
X52812700Y-91879935D01*
X52872766Y-92077949D01*
X52872768Y-92077954D01*
X52970311Y-92260444D01*
X52970319Y-92260455D01*
X53101588Y-92420408D01*
X53101591Y-92420411D01*
X53144193Y-92455373D01*
X53261550Y-92551685D01*
X53261553Y-92551686D01*
X53261555Y-92551688D01*
X53336912Y-92591967D01*
X53444046Y-92649232D01*
X53642066Y-92709300D01*
X53796516Y-92724512D01*
X53847999Y-92729583D01*
X53847999Y-92729582D01*
X53848000Y-92729583D01*
X54053934Y-92709300D01*
X54251954Y-92649232D01*
X54310540Y-92617915D01*
X54358145Y-92613227D01*
X54384197Y-92628842D01*
X57490338Y-95734983D01*
X57498463Y-95744987D01*
X57507760Y-95759217D01*
X57536966Y-95781949D01*
X57539854Y-95784499D01*
X57543954Y-95788599D01*
X57562772Y-95802034D01*
X57585810Y-95819966D01*
X57605645Y-95835405D01*
X57605647Y-95835406D01*
X57605651Y-95835409D01*
X57605654Y-95835410D01*
X57610204Y-95837872D01*
X57610169Y-95837935D01*
X57614815Y-95840326D01*
X57614847Y-95840263D01*
X57619495Y-95842535D01*
X57619497Y-95842535D01*
X57619499Y-95842537D01*
X57671569Y-95858039D01*
X57722976Y-95875687D01*
X57722979Y-95875687D01*
X57728086Y-95876540D01*
X57728074Y-95876609D01*
X57733246Y-95877363D01*
X57733255Y-95877292D01*
X57738386Y-95877932D01*
X57738388Y-95877931D01*
X57738389Y-95877932D01*
X57792671Y-95875687D01*
X81996971Y-95875687D01*
X82009796Y-95877016D01*
X82026427Y-95880504D01*
X82026428Y-95880503D01*
X82026429Y-95880504D01*
X82051625Y-95877363D01*
X82063147Y-95875926D01*
X82067014Y-95875687D01*
X82072791Y-95875687D01*
X82072797Y-95875687D01*
X82095609Y-95871880D01*
X82149523Y-95865160D01*
X82149531Y-95865155D01*
X82154489Y-95863681D01*
X82154509Y-95863751D01*
X82159476Y-95862159D01*
X82159453Y-95862091D01*
X82164345Y-95860410D01*
X82164355Y-95860409D01*
X82212143Y-95834547D01*
X82260965Y-95810680D01*
X82260969Y-95810675D01*
X82265180Y-95807670D01*
X82265222Y-95807730D01*
X82269407Y-95804610D01*
X82269362Y-95804552D01*
X82273449Y-95801370D01*
X82273448Y-95801370D01*
X82273451Y-95801369D01*
X82310243Y-95761401D01*
X85987651Y-92083992D01*
X86031845Y-92065687D01*
X88124060Y-92065687D01*
X88168254Y-92083993D01*
X88179180Y-92098725D01*
X88276311Y-92280444D01*
X88276319Y-92280455D01*
X88407588Y-92440408D01*
X88407591Y-92440411D01*
X88519951Y-92532622D01*
X88567550Y-92571685D01*
X88567553Y-92571686D01*
X88567555Y-92571688D01*
X88613161Y-92596065D01*
X88750046Y-92669232D01*
X88948066Y-92729300D01*
X89154000Y-92749583D01*
X89359934Y-92729300D01*
X89557954Y-92669232D01*
X89740450Y-92571685D01*
X89900410Y-92440410D01*
X90031685Y-92280450D01*
X90129232Y-92097954D01*
X90189300Y-91899934D01*
X90209583Y-91694000D01*
X90206910Y-91666866D01*
X90196014Y-91556231D01*
X90189300Y-91488066D01*
X90129232Y-91290046D01*
X90031685Y-91107550D01*
X89900410Y-90947590D01*
X89882176Y-90932626D01*
X89740455Y-90816319D01*
X89740453Y-90816318D01*
X89740450Y-90816315D01*
X89740448Y-90816313D01*
X89740444Y-90816311D01*
X89557954Y-90718768D01*
X89557949Y-90718766D01*
X89359935Y-90658700D01*
X89359930Y-90658699D01*
X89154000Y-90638417D01*
X88948069Y-90658699D01*
X88948064Y-90658700D01*
X88750050Y-90718766D01*
X88750045Y-90718768D01*
X88567555Y-90816311D01*
X88567544Y-90816319D01*
X88407591Y-90947588D01*
X88407588Y-90947591D01*
X88276319Y-91107544D01*
X88276311Y-91107555D01*
X88179180Y-91289275D01*
X88142203Y-91319622D01*
X88124060Y-91322313D01*
X85897030Y-91322313D01*
X85884204Y-91320983D01*
X85867573Y-91317496D01*
X85867571Y-91317495D01*
X85840397Y-91320883D01*
X85830848Y-91322073D01*
X85826986Y-91322313D01*
X85821203Y-91322313D01*
X85798402Y-91326117D01*
X85744481Y-91332838D01*
X85739521Y-91334315D01*
X85739501Y-91334248D01*
X85734515Y-91335845D01*
X85734538Y-91335911D01*
X85729644Y-91337590D01*
X85694278Y-91356729D01*
X85681860Y-91363450D01*
X85665828Y-91371287D01*
X85633035Y-91387319D01*
X85628820Y-91390329D01*
X85628780Y-91390273D01*
X85624588Y-91393399D01*
X85624631Y-91393454D01*
X85620548Y-91396631D01*
X85602152Y-91416614D01*
X85583756Y-91436598D01*
X83684044Y-93336311D01*
X81906348Y-95114007D01*
X81862154Y-95132313D01*
X57964846Y-95132313D01*
X57920652Y-95114007D01*
X54864003Y-92057358D01*
X54845697Y-92013164D01*
X54848388Y-91995021D01*
X54883300Y-91879934D01*
X54903583Y-91674000D01*
X54902880Y-91666867D01*
X54891984Y-91556232D01*
X54883300Y-91468066D01*
X54823232Y-91270046D01*
X54736378Y-91107555D01*
X54725688Y-91087555D01*
X54725686Y-91087553D01*
X54725685Y-91087550D01*
X54610824Y-90947591D01*
X54594411Y-90927591D01*
X54594408Y-90927588D01*
X54434455Y-90796319D01*
X54434453Y-90796318D01*
X54434450Y-90796315D01*
X54434448Y-90796313D01*
X54434444Y-90796311D01*
X54251954Y-90698768D01*
X54251949Y-90698766D01*
X54183492Y-90678000D01*
X69098659Y-90678000D01*
X69117975Y-90874130D01*
X69117976Y-90874132D01*
X69175186Y-91062727D01*
X69199147Y-91107555D01*
X69268086Y-91236532D01*
X69268090Y-91236538D01*
X69393117Y-91388883D01*
X69545462Y-91513910D01*
X69545464Y-91513911D01*
X69545467Y-91513913D01*
X69590690Y-91538085D01*
X69719273Y-91606814D01*
X69907868Y-91664024D01*
X70104000Y-91683341D01*
X70300132Y-91664024D01*
X70488727Y-91606814D01*
X70662538Y-91513910D01*
X70814883Y-91388883D01*
X70939910Y-91236538D01*
X71032814Y-91062727D01*
X71090024Y-90874132D01*
X71109341Y-90678000D01*
X71638659Y-90678000D01*
X71657975Y-90874130D01*
X71657976Y-90874132D01*
X71715186Y-91062727D01*
X71739147Y-91107555D01*
X71808086Y-91236532D01*
X71808090Y-91236538D01*
X71933117Y-91388883D01*
X72085462Y-91513910D01*
X72085464Y-91513911D01*
X72085467Y-91513913D01*
X72130690Y-91538085D01*
X72259273Y-91606814D01*
X72447868Y-91664024D01*
X72545934Y-91673682D01*
X72643999Y-91683341D01*
X72643999Y-91683340D01*
X72644000Y-91683341D01*
X72840132Y-91664024D01*
X73028727Y-91606814D01*
X73202538Y-91513910D01*
X73354883Y-91388883D01*
X73479910Y-91236538D01*
X73572814Y-91062727D01*
X73630024Y-90874132D01*
X73649341Y-90678000D01*
X74178659Y-90678000D01*
X74197975Y-90874130D01*
X74197976Y-90874132D01*
X74255186Y-91062727D01*
X74279147Y-91107555D01*
X74348086Y-91236532D01*
X74348090Y-91236538D01*
X74473117Y-91388883D01*
X74625462Y-91513910D01*
X74625464Y-91513911D01*
X74625467Y-91513913D01*
X74670690Y-91538085D01*
X74799273Y-91606814D01*
X74987868Y-91664024D01*
X75184000Y-91683341D01*
X75380132Y-91664024D01*
X75568727Y-91606814D01*
X75742538Y-91513910D01*
X75894883Y-91388883D01*
X76019910Y-91236538D01*
X76112814Y-91062727D01*
X76170024Y-90874132D01*
X76189341Y-90678000D01*
X76718659Y-90678000D01*
X76737975Y-90874130D01*
X76737976Y-90874132D01*
X76795186Y-91062727D01*
X76819147Y-91107555D01*
X76888086Y-91236532D01*
X76888090Y-91236538D01*
X77013117Y-91388883D01*
X77165462Y-91513910D01*
X77165464Y-91513911D01*
X77165467Y-91513913D01*
X77210690Y-91538085D01*
X77339273Y-91606814D01*
X77527868Y-91664024D01*
X77724000Y-91683341D01*
X77920132Y-91664024D01*
X78108727Y-91606814D01*
X78282538Y-91513910D01*
X78434883Y-91388883D01*
X78559910Y-91236538D01*
X78652814Y-91062727D01*
X78710024Y-90874132D01*
X78729341Y-90678000D01*
X79258659Y-90678000D01*
X79277975Y-90874130D01*
X79277976Y-90874132D01*
X79335186Y-91062727D01*
X79359147Y-91107555D01*
X79428086Y-91236532D01*
X79428090Y-91236538D01*
X79553117Y-91388883D01*
X79705462Y-91513910D01*
X79705464Y-91513911D01*
X79705467Y-91513913D01*
X79750690Y-91538085D01*
X79879273Y-91606814D01*
X80067868Y-91664024D01*
X80264000Y-91683341D01*
X80460132Y-91664024D01*
X80648727Y-91606814D01*
X80822538Y-91513910D01*
X80842231Y-91497748D01*
X81803500Y-91497748D01*
X81815132Y-91556230D01*
X81815133Y-91556232D01*
X81859447Y-91622552D01*
X81925767Y-91666866D01*
X81925769Y-91666867D01*
X81984252Y-91678500D01*
X83623748Y-91678500D01*
X83682231Y-91666867D01*
X83748552Y-91622552D01*
X83792867Y-91556231D01*
X83804500Y-91497748D01*
X83804500Y-89858252D01*
X83792867Y-89799769D01*
X83759069Y-89749187D01*
X83748552Y-89733447D01*
X83682232Y-89689133D01*
X83682230Y-89689132D01*
X83623748Y-89677500D01*
X81984252Y-89677500D01*
X81925769Y-89689132D01*
X81925767Y-89689133D01*
X81859447Y-89733447D01*
X81815133Y-89799767D01*
X81815132Y-89799769D01*
X81803500Y-89858251D01*
X81803500Y-91497748D01*
X80842231Y-91497748D01*
X80974883Y-91388883D01*
X81099910Y-91236538D01*
X81192814Y-91062727D01*
X81250024Y-90874132D01*
X81269341Y-90678000D01*
X81265442Y-90638417D01*
X81250024Y-90481869D01*
X81250024Y-90481868D01*
X81192814Y-90293273D01*
X81099910Y-90119462D01*
X80974883Y-89967117D01*
X80822538Y-89842090D01*
X80822532Y-89842086D01*
X80713018Y-89783550D01*
X80648727Y-89749186D01*
X80528184Y-89712619D01*
X80460130Y-89691975D01*
X80264000Y-89672659D01*
X80067869Y-89691975D01*
X79947325Y-89728542D01*
X79879273Y-89749186D01*
X79879271Y-89749186D01*
X79879271Y-89749187D01*
X79705467Y-89842086D01*
X79705461Y-89842090D01*
X79553117Y-89967117D01*
X79428090Y-90119461D01*
X79428086Y-90119467D01*
X79335187Y-90293271D01*
X79277975Y-90481869D01*
X79258659Y-90677999D01*
X79258659Y-90678000D01*
X78729341Y-90678000D01*
X78725442Y-90638417D01*
X78710024Y-90481869D01*
X78710024Y-90481868D01*
X78652814Y-90293273D01*
X78559910Y-90119462D01*
X78434883Y-89967117D01*
X78282538Y-89842090D01*
X78282532Y-89842086D01*
X78173018Y-89783550D01*
X78108727Y-89749186D01*
X77988184Y-89712619D01*
X77920130Y-89691975D01*
X77724000Y-89672659D01*
X77527869Y-89691975D01*
X77407325Y-89728542D01*
X77339273Y-89749186D01*
X77339271Y-89749186D01*
X77339271Y-89749187D01*
X77165467Y-89842086D01*
X77165461Y-89842090D01*
X77013117Y-89967117D01*
X76888090Y-90119461D01*
X76888086Y-90119467D01*
X76795187Y-90293271D01*
X76737975Y-90481869D01*
X76718659Y-90677999D01*
X76718659Y-90678000D01*
X76189341Y-90678000D01*
X76185442Y-90638417D01*
X76170024Y-90481869D01*
X76170024Y-90481868D01*
X76112814Y-90293273D01*
X76019910Y-90119462D01*
X75894883Y-89967117D01*
X75742538Y-89842090D01*
X75742532Y-89842086D01*
X75633018Y-89783550D01*
X75568727Y-89749186D01*
X75448184Y-89712619D01*
X75380130Y-89691975D01*
X75184000Y-89672659D01*
X74987869Y-89691975D01*
X74867325Y-89728542D01*
X74799273Y-89749186D01*
X74799271Y-89749186D01*
X74799271Y-89749187D01*
X74625467Y-89842086D01*
X74625461Y-89842090D01*
X74473117Y-89967117D01*
X74348090Y-90119461D01*
X74348086Y-90119467D01*
X74255187Y-90293271D01*
X74197975Y-90481869D01*
X74178659Y-90677999D01*
X74178659Y-90678000D01*
X73649341Y-90678000D01*
X73645442Y-90638417D01*
X73630024Y-90481869D01*
X73630024Y-90481868D01*
X73572814Y-90293273D01*
X73479910Y-90119462D01*
X73354883Y-89967117D01*
X73202538Y-89842090D01*
X73202532Y-89842086D01*
X73093018Y-89783550D01*
X73028727Y-89749186D01*
X72908184Y-89712619D01*
X72840130Y-89691975D01*
X72644000Y-89672659D01*
X72447869Y-89691975D01*
X72327325Y-89728542D01*
X72259273Y-89749186D01*
X72259271Y-89749186D01*
X72259271Y-89749187D01*
X72085467Y-89842086D01*
X72085461Y-89842090D01*
X71933117Y-89967117D01*
X71808090Y-90119461D01*
X71808086Y-90119467D01*
X71715187Y-90293271D01*
X71657975Y-90481869D01*
X71638659Y-90677999D01*
X71638659Y-90678000D01*
X71109341Y-90678000D01*
X71105442Y-90638417D01*
X71090024Y-90481869D01*
X71090024Y-90481868D01*
X71032814Y-90293273D01*
X70939910Y-90119462D01*
X70814883Y-89967117D01*
X70662538Y-89842090D01*
X70662532Y-89842086D01*
X70553018Y-89783550D01*
X70488727Y-89749186D01*
X70368184Y-89712619D01*
X70300130Y-89691975D01*
X70104000Y-89672659D01*
X69907869Y-89691975D01*
X69787325Y-89728542D01*
X69719273Y-89749186D01*
X69719271Y-89749186D01*
X69719271Y-89749187D01*
X69545467Y-89842086D01*
X69545461Y-89842090D01*
X69393117Y-89967117D01*
X69268090Y-90119461D01*
X69268086Y-90119467D01*
X69175187Y-90293271D01*
X69117975Y-90481869D01*
X69098659Y-90677999D01*
X69098659Y-90678000D01*
X54183492Y-90678000D01*
X54053935Y-90638700D01*
X54053930Y-90638699D01*
X53848000Y-90618417D01*
X53642069Y-90638699D01*
X53642064Y-90638700D01*
X53444050Y-90698766D01*
X53444045Y-90698768D01*
X53261555Y-90796311D01*
X53261544Y-90796319D01*
X53101591Y-90927588D01*
X53101588Y-90927591D01*
X52970319Y-91087544D01*
X52970311Y-91087555D01*
X52872768Y-91270045D01*
X52872766Y-91270050D01*
X52812700Y-91468064D01*
X52812699Y-91468069D01*
X52792417Y-91673999D01*
X52792417Y-91674000D01*
X51808000Y-91674000D01*
X51808000Y-91602111D01*
X51767493Y-91464156D01*
X51741686Y-91424000D01*
X52638636Y-91424000D01*
X52638636Y-91423998D01*
X52581432Y-91210512D01*
X52581431Y-91210510D01*
X52481600Y-90996422D01*
X52346109Y-90802920D01*
X52179081Y-90635892D01*
X51985573Y-90500396D01*
X51900322Y-90460644D01*
X51868004Y-90425377D01*
X51870091Y-90377587D01*
X51900322Y-90347356D01*
X51985573Y-90307603D01*
X52179081Y-90172107D01*
X52346107Y-90005081D01*
X52481601Y-89811575D01*
X52581431Y-89597489D01*
X52581432Y-89597487D01*
X52638636Y-89384001D01*
X52638636Y-89384000D01*
X51741686Y-89384000D01*
X51767493Y-89343844D01*
X51808000Y-89205889D01*
X51808000Y-89134000D01*
X52792417Y-89134000D01*
X52812699Y-89339930D01*
X52812700Y-89339935D01*
X52872766Y-89537949D01*
X52872768Y-89537954D01*
X52970311Y-89720444D01*
X52970319Y-89720455D01*
X53101588Y-89880408D01*
X53101591Y-89880411D01*
X53144193Y-89915373D01*
X53261550Y-90011685D01*
X53261553Y-90011686D01*
X53261555Y-90011688D01*
X53336912Y-90051967D01*
X53444046Y-90109232D01*
X53642066Y-90169300D01*
X53796516Y-90184512D01*
X53847999Y-90189583D01*
X53847999Y-90189582D01*
X53848000Y-90189583D01*
X54053934Y-90169300D01*
X54251954Y-90109232D01*
X54434450Y-90011685D01*
X54594410Y-89880410D01*
X54725685Y-89720450D01*
X54822819Y-89538725D01*
X54859797Y-89508378D01*
X54877940Y-89505687D01*
X56945595Y-89505687D01*
X56958420Y-89507016D01*
X56975051Y-89510504D01*
X56975052Y-89510503D01*
X56975053Y-89510504D01*
X56998725Y-89507553D01*
X57011771Y-89505926D01*
X57015638Y-89505687D01*
X57021415Y-89505687D01*
X57021421Y-89505687D01*
X57044233Y-89501880D01*
X57098147Y-89495160D01*
X57098155Y-89495155D01*
X57103113Y-89493681D01*
X57103133Y-89493751D01*
X57108100Y-89492159D01*
X57108077Y-89492091D01*
X57112969Y-89490410D01*
X57112979Y-89490409D01*
X57160767Y-89464547D01*
X57209589Y-89440680D01*
X57209593Y-89440675D01*
X57213804Y-89437670D01*
X57213846Y-89437730D01*
X57218031Y-89434610D01*
X57217986Y-89434552D01*
X57222073Y-89431370D01*
X57222072Y-89431370D01*
X57222075Y-89431369D01*
X57258868Y-89391400D01*
X58122274Y-88527993D01*
X58166469Y-88509687D01*
X87958154Y-88509687D01*
X88002348Y-88527993D01*
X88162899Y-88688544D01*
X88181205Y-88732738D01*
X88178514Y-88750880D01*
X88118700Y-88948064D01*
X88118699Y-88948069D01*
X88098417Y-89153999D01*
X88098417Y-89154000D01*
X88118699Y-89359930D01*
X88118700Y-89359935D01*
X88178766Y-89557949D01*
X88178768Y-89557954D01*
X88276311Y-89740444D01*
X88276319Y-89740455D01*
X88407588Y-89900408D01*
X88407591Y-89900411D01*
X88488873Y-89967117D01*
X88567550Y-90031685D01*
X88567553Y-90031686D01*
X88567555Y-90031688D01*
X88642912Y-90071967D01*
X88750046Y-90129232D01*
X88948066Y-90189300D01*
X89154000Y-90209583D01*
X89359934Y-90189300D01*
X89557954Y-90129232D01*
X89740450Y-90031685D01*
X89900410Y-89900410D01*
X90031685Y-89740450D01*
X90129232Y-89557954D01*
X90189300Y-89359934D01*
X90209583Y-89154000D01*
X90189300Y-88948066D01*
X90129232Y-88750046D01*
X90031685Y-88567550D01*
X89900410Y-88407590D01*
X89882176Y-88392626D01*
X89740455Y-88276319D01*
X89740453Y-88276318D01*
X89740450Y-88276315D01*
X89740448Y-88276313D01*
X89740444Y-88276311D01*
X89557954Y-88178768D01*
X89557949Y-88178766D01*
X89359935Y-88118700D01*
X89359930Y-88118699D01*
X89154000Y-88098417D01*
X88948069Y-88118699D01*
X88948064Y-88118700D01*
X88750880Y-88178514D01*
X88703275Y-88173825D01*
X88688544Y-88162899D01*
X88432661Y-87907016D01*
X88424531Y-87897005D01*
X88416934Y-87885377D01*
X88415240Y-87882783D01*
X88386037Y-87860053D01*
X88383139Y-87857494D01*
X88379046Y-87853401D01*
X88360227Y-87839965D01*
X88317349Y-87806591D01*
X88317348Y-87806590D01*
X88312793Y-87804125D01*
X88312826Y-87804062D01*
X88308185Y-87801673D01*
X88308154Y-87801738D01*
X88303495Y-87799460D01*
X88251430Y-87783960D01*
X88234986Y-87778315D01*
X88200024Y-87766313D01*
X88200023Y-87766313D01*
X88200020Y-87766312D01*
X88194914Y-87765460D01*
X88194925Y-87765390D01*
X88189753Y-87764636D01*
X88189745Y-87764708D01*
X88184613Y-87764067D01*
X88130329Y-87766313D01*
X58031654Y-87766313D01*
X58018828Y-87764983D01*
X58002197Y-87761496D01*
X58002195Y-87761495D01*
X57975021Y-87764883D01*
X57965472Y-87766073D01*
X57961610Y-87766313D01*
X57955827Y-87766313D01*
X57948107Y-87767601D01*
X57933026Y-87770117D01*
X57879105Y-87776838D01*
X57874145Y-87778315D01*
X57874125Y-87778248D01*
X57869139Y-87779845D01*
X57869162Y-87779911D01*
X57864268Y-87781590D01*
X57831249Y-87799460D01*
X57816484Y-87807450D01*
X57800452Y-87815287D01*
X57767659Y-87831319D01*
X57763444Y-87834329D01*
X57763404Y-87834273D01*
X57759212Y-87837399D01*
X57759255Y-87837454D01*
X57755171Y-87840631D01*
X57718380Y-87880598D01*
X56854972Y-88744007D01*
X56810778Y-88762313D01*
X54877940Y-88762313D01*
X54833746Y-88744007D01*
X54822820Y-88729275D01*
X54725688Y-88547555D01*
X54725686Y-88547553D01*
X54725685Y-88547550D01*
X54610824Y-88407591D01*
X54594411Y-88387591D01*
X54594408Y-88387588D01*
X54434455Y-88256319D01*
X54434453Y-88256318D01*
X54434450Y-88256315D01*
X54434448Y-88256313D01*
X54434444Y-88256311D01*
X54251954Y-88158768D01*
X54251949Y-88158766D01*
X54053935Y-88098700D01*
X54053930Y-88098699D01*
X53848000Y-88078417D01*
X53642069Y-88098699D01*
X53642064Y-88098700D01*
X53444050Y-88158766D01*
X53444045Y-88158768D01*
X53261555Y-88256311D01*
X53261544Y-88256319D01*
X53101591Y-88387588D01*
X53101588Y-88387591D01*
X52970319Y-88547544D01*
X52970311Y-88547555D01*
X52872768Y-88730045D01*
X52872766Y-88730050D01*
X52812700Y-88928064D01*
X52812699Y-88928069D01*
X52792417Y-89133999D01*
X52792417Y-89134000D01*
X51808000Y-89134000D01*
X51808000Y-89062111D01*
X51767493Y-88924156D01*
X51741686Y-88884000D01*
X52638636Y-88884000D01*
X52638636Y-88883998D01*
X52581432Y-88670512D01*
X52581431Y-88670510D01*
X52481600Y-88456422D01*
X52346109Y-88262920D01*
X52179081Y-88095892D01*
X51985573Y-87960396D01*
X51900322Y-87920644D01*
X51868004Y-87885377D01*
X51870091Y-87837587D01*
X51900322Y-87807356D01*
X51985573Y-87767603D01*
X52179081Y-87632107D01*
X52346107Y-87465081D01*
X52481601Y-87271575D01*
X52581431Y-87057489D01*
X52581432Y-87057487D01*
X52638636Y-86844001D01*
X52638636Y-86844000D01*
X51741686Y-86844000D01*
X51767493Y-86803844D01*
X51808000Y-86665889D01*
X51808000Y-86594000D01*
X52792417Y-86594000D01*
X52812699Y-86799930D01*
X52812700Y-86799935D01*
X52872766Y-86997949D01*
X52872768Y-86997954D01*
X52970311Y-87180444D01*
X52970319Y-87180455D01*
X53101588Y-87340408D01*
X53101591Y-87340411D01*
X53144193Y-87375373D01*
X53261550Y-87471685D01*
X53261553Y-87471686D01*
X53261555Y-87471688D01*
X53336912Y-87511967D01*
X53444046Y-87569232D01*
X53642066Y-87629300D01*
X53848000Y-87649583D01*
X54053934Y-87629300D01*
X54251954Y-87569232D01*
X54434450Y-87471685D01*
X54594410Y-87340410D01*
X54725685Y-87180450D01*
X54823232Y-86997954D01*
X54869933Y-86844000D01*
X54871190Y-86839857D01*
X54901537Y-86802880D01*
X54930999Y-86795500D01*
X88064935Y-86795500D01*
X88109129Y-86813806D01*
X88124744Y-86839858D01*
X88178766Y-87017949D01*
X88178768Y-87017954D01*
X88276311Y-87200444D01*
X88276319Y-87200455D01*
X88407588Y-87360408D01*
X88407591Y-87360411D01*
X88519951Y-87452622D01*
X88567550Y-87491685D01*
X88567553Y-87491686D01*
X88567555Y-87491688D01*
X88642912Y-87531967D01*
X88750046Y-87589232D01*
X88948066Y-87649300D01*
X89154000Y-87669583D01*
X89359934Y-87649300D01*
X89557954Y-87589232D01*
X89740450Y-87491685D01*
X89900410Y-87360410D01*
X90031685Y-87200450D01*
X90129232Y-87017954D01*
X90189300Y-86819934D01*
X90209583Y-86614000D01*
X90189300Y-86408066D01*
X90129232Y-86210046D01*
X90044821Y-86052126D01*
X90031688Y-86027555D01*
X90031686Y-86027553D01*
X90031685Y-86027550D01*
X89900410Y-85867590D01*
X89882176Y-85852626D01*
X89740455Y-85736319D01*
X89740453Y-85736318D01*
X89740450Y-85736315D01*
X89740448Y-85736313D01*
X89740444Y-85736311D01*
X89557954Y-85638768D01*
X89557949Y-85638766D01*
X89359935Y-85578700D01*
X89359930Y-85578699D01*
X89154000Y-85558417D01*
X88948069Y-85578699D01*
X88948064Y-85578700D01*
X88750050Y-85638766D01*
X88750045Y-85638768D01*
X88567555Y-85736311D01*
X88567544Y-85736319D01*
X88407591Y-85867588D01*
X88407588Y-85867591D01*
X88274899Y-86029275D01*
X88232712Y-86051825D01*
X88226586Y-86052126D01*
X54786973Y-86052126D01*
X54742779Y-86033820D01*
X54731854Y-86019091D01*
X54731244Y-86017950D01*
X54725685Y-86007550D01*
X54725680Y-86007544D01*
X54594411Y-85847591D01*
X54594408Y-85847588D01*
X54434455Y-85716319D01*
X54434453Y-85716318D01*
X54434450Y-85716315D01*
X54434448Y-85716313D01*
X54434444Y-85716311D01*
X54251954Y-85618768D01*
X54251949Y-85618766D01*
X54053935Y-85558700D01*
X54053930Y-85558699D01*
X53848000Y-85538417D01*
X53642069Y-85558699D01*
X53642064Y-85558700D01*
X53444050Y-85618766D01*
X53444045Y-85618768D01*
X53261555Y-85716311D01*
X53261544Y-85716319D01*
X53101591Y-85847588D01*
X53101588Y-85847591D01*
X52970319Y-86007544D01*
X52970311Y-86007555D01*
X52872768Y-86190045D01*
X52872766Y-86190050D01*
X52812700Y-86388064D01*
X52812699Y-86388069D01*
X52792417Y-86593999D01*
X52792417Y-86594000D01*
X51808000Y-86594000D01*
X51808000Y-86522111D01*
X51767493Y-86384156D01*
X51741686Y-86344000D01*
X52638636Y-86344000D01*
X52638636Y-86343998D01*
X52581432Y-86130512D01*
X52581431Y-86130510D01*
X52481600Y-85916422D01*
X52346109Y-85722920D01*
X52179081Y-85555892D01*
X51985573Y-85420396D01*
X51900322Y-85380644D01*
X51868004Y-85345377D01*
X51870091Y-85297587D01*
X51900322Y-85267356D01*
X51985573Y-85227603D01*
X52179081Y-85092107D01*
X52346107Y-84925081D01*
X52481601Y-84731575D01*
X52581431Y-84517489D01*
X52581432Y-84517487D01*
X52638636Y-84304001D01*
X52638636Y-84304000D01*
X51741686Y-84304000D01*
X51767493Y-84263844D01*
X51808000Y-84125889D01*
X51808000Y-84054000D01*
X52792417Y-84054000D01*
X52812699Y-84259930D01*
X52812700Y-84259935D01*
X52872766Y-84457949D01*
X52872768Y-84457954D01*
X52970311Y-84640444D01*
X52970319Y-84640455D01*
X53101588Y-84800408D01*
X53101591Y-84800411D01*
X53144193Y-84835373D01*
X53261550Y-84931685D01*
X53261553Y-84931686D01*
X53261555Y-84931688D01*
X53336912Y-84971967D01*
X53444046Y-85029232D01*
X53642066Y-85089300D01*
X53848000Y-85109583D01*
X54053934Y-85089300D01*
X54251954Y-85029232D01*
X54434450Y-84931685D01*
X54594410Y-84800410D01*
X54725685Y-84640450D01*
X54812130Y-84478724D01*
X54849106Y-84448378D01*
X54867249Y-84445687D01*
X88124060Y-84445687D01*
X88168254Y-84463993D01*
X88179180Y-84478725D01*
X88276311Y-84660444D01*
X88276319Y-84660455D01*
X88407588Y-84820408D01*
X88407591Y-84820411D01*
X88519951Y-84912622D01*
X88567550Y-84951685D01*
X88567553Y-84951686D01*
X88567555Y-84951688D01*
X88642912Y-84991967D01*
X88750046Y-85049232D01*
X88948066Y-85109300D01*
X89154000Y-85129583D01*
X89359934Y-85109300D01*
X89557954Y-85049232D01*
X89740450Y-84951685D01*
X89900410Y-84820410D01*
X90031685Y-84660450D01*
X90129232Y-84477954D01*
X90189300Y-84279934D01*
X90209583Y-84074000D01*
X90189300Y-83868066D01*
X90129232Y-83670046D01*
X90031685Y-83487550D01*
X89900410Y-83327590D01*
X89882176Y-83312626D01*
X89740455Y-83196319D01*
X89740453Y-83196318D01*
X89740450Y-83196315D01*
X89740448Y-83196313D01*
X89740444Y-83196311D01*
X89557954Y-83098768D01*
X89557949Y-83098766D01*
X89359935Y-83038700D01*
X89359930Y-83038699D01*
X89154000Y-83018417D01*
X88948069Y-83038699D01*
X88948064Y-83038700D01*
X88750050Y-83098766D01*
X88750045Y-83098768D01*
X88567555Y-83196311D01*
X88567544Y-83196319D01*
X88407591Y-83327588D01*
X88407588Y-83327591D01*
X88276319Y-83487544D01*
X88276311Y-83487555D01*
X88179180Y-83669275D01*
X88142203Y-83699622D01*
X88124060Y-83702313D01*
X54885440Y-83702313D01*
X54841246Y-83684007D01*
X54825632Y-83657957D01*
X54823232Y-83650047D01*
X54823230Y-83650043D01*
X54822698Y-83649048D01*
X54736378Y-83487555D01*
X54725688Y-83467555D01*
X54725686Y-83467553D01*
X54725685Y-83467550D01*
X54610824Y-83327591D01*
X54594411Y-83307591D01*
X54594408Y-83307588D01*
X54434455Y-83176319D01*
X54434453Y-83176318D01*
X54434450Y-83176315D01*
X54434448Y-83176313D01*
X54434444Y-83176311D01*
X54251954Y-83078768D01*
X54251949Y-83078766D01*
X54053935Y-83018700D01*
X54053930Y-83018699D01*
X53848000Y-82998417D01*
X53642069Y-83018699D01*
X53642064Y-83018700D01*
X53444050Y-83078766D01*
X53444045Y-83078768D01*
X53261555Y-83176311D01*
X53261544Y-83176319D01*
X53101591Y-83307588D01*
X53101588Y-83307591D01*
X52970319Y-83467544D01*
X52970311Y-83467555D01*
X52872768Y-83650045D01*
X52872766Y-83650050D01*
X52812700Y-83848064D01*
X52812699Y-83848069D01*
X52792417Y-84053999D01*
X52792417Y-84054000D01*
X51808000Y-84054000D01*
X51808000Y-83982111D01*
X51767493Y-83844156D01*
X51741686Y-83804000D01*
X52638636Y-83804000D01*
X52638636Y-83803998D01*
X52581432Y-83590512D01*
X52581431Y-83590510D01*
X52481600Y-83376422D01*
X52346109Y-83182920D01*
X52179081Y-83015892D01*
X51985573Y-82880396D01*
X51900322Y-82840644D01*
X51868004Y-82805377D01*
X51870091Y-82757587D01*
X51900322Y-82727356D01*
X51985573Y-82687603D01*
X52179081Y-82552107D01*
X52346107Y-82385081D01*
X52481601Y-82191575D01*
X52581431Y-81977489D01*
X52581432Y-81977487D01*
X52638636Y-81764001D01*
X52638636Y-81764000D01*
X51741686Y-81764000D01*
X51767493Y-81723844D01*
X51808000Y-81585889D01*
X51808000Y-81514000D01*
X52792417Y-81514000D01*
X52812699Y-81719930D01*
X52812700Y-81719935D01*
X52872766Y-81917949D01*
X52872768Y-81917954D01*
X52970311Y-82100444D01*
X52970319Y-82100455D01*
X53101588Y-82260408D01*
X53101591Y-82260411D01*
X53144193Y-82295373D01*
X53261550Y-82391685D01*
X53261553Y-82391686D01*
X53261555Y-82391688D01*
X53336912Y-82431967D01*
X53444046Y-82489232D01*
X53642066Y-82549300D01*
X53796516Y-82564512D01*
X53847999Y-82569583D01*
X53847999Y-82569582D01*
X53848000Y-82569583D01*
X54053934Y-82549300D01*
X54251954Y-82489232D01*
X54434450Y-82391685D01*
X54594410Y-82260410D01*
X54725685Y-82100450D01*
X54822819Y-81918725D01*
X54859797Y-81888378D01*
X54877940Y-81885687D01*
X88116560Y-81885687D01*
X88160754Y-81903993D01*
X88176368Y-81930043D01*
X88178767Y-81937952D01*
X88178769Y-81937956D01*
X88276311Y-82120444D01*
X88276319Y-82120455D01*
X88407588Y-82280408D01*
X88407591Y-82280411D01*
X88519951Y-82372622D01*
X88567550Y-82411685D01*
X88567553Y-82411686D01*
X88567555Y-82411688D01*
X88642912Y-82451967D01*
X88750046Y-82509232D01*
X88948066Y-82569300D01*
X89154000Y-82589583D01*
X89359934Y-82569300D01*
X89557954Y-82509232D01*
X89740450Y-82411685D01*
X89900410Y-82280410D01*
X90031685Y-82120450D01*
X90129232Y-81937954D01*
X90189300Y-81739934D01*
X90209583Y-81534000D01*
X90189300Y-81328066D01*
X90129232Y-81130046D01*
X90031685Y-80947550D01*
X89900410Y-80787590D01*
X89882176Y-80772626D01*
X89740455Y-80656319D01*
X89740453Y-80656318D01*
X89740450Y-80656315D01*
X89740448Y-80656313D01*
X89740444Y-80656311D01*
X89557954Y-80558768D01*
X89557949Y-80558766D01*
X89359935Y-80498700D01*
X89359930Y-80498699D01*
X89154000Y-80478417D01*
X88948069Y-80498699D01*
X88948064Y-80498700D01*
X88750050Y-80558766D01*
X88750045Y-80558768D01*
X88567555Y-80656311D01*
X88567544Y-80656319D01*
X88407591Y-80787588D01*
X88407588Y-80787591D01*
X88276319Y-80947544D01*
X88276311Y-80947555D01*
X88230106Y-81034000D01*
X88189869Y-81109275D01*
X88152894Y-81139622D01*
X88134751Y-81142313D01*
X54877940Y-81142313D01*
X54833746Y-81124007D01*
X54822820Y-81109275D01*
X54725688Y-80927555D01*
X54725686Y-80927553D01*
X54725685Y-80927550D01*
X54610824Y-80787591D01*
X54594411Y-80767591D01*
X54594408Y-80767588D01*
X54434455Y-80636319D01*
X54434453Y-80636318D01*
X54434450Y-80636315D01*
X54434448Y-80636313D01*
X54434444Y-80636311D01*
X54251954Y-80538768D01*
X54251949Y-80538766D01*
X54053935Y-80478700D01*
X54053930Y-80478699D01*
X53848000Y-80458417D01*
X53642069Y-80478699D01*
X53642064Y-80478700D01*
X53444050Y-80538766D01*
X53444045Y-80538768D01*
X53261555Y-80636311D01*
X53261544Y-80636319D01*
X53101591Y-80767588D01*
X53101588Y-80767591D01*
X52970319Y-80927544D01*
X52970311Y-80927555D01*
X52872768Y-81110045D01*
X52872766Y-81110050D01*
X52812700Y-81308064D01*
X52812699Y-81308069D01*
X52792417Y-81513999D01*
X52792417Y-81514000D01*
X51808000Y-81514000D01*
X51808000Y-81442111D01*
X51767493Y-81304156D01*
X51741686Y-81264000D01*
X52638636Y-81264000D01*
X52638636Y-81263998D01*
X52581432Y-81050512D01*
X52581431Y-81050510D01*
X52481600Y-80836422D01*
X52346109Y-80642920D01*
X52179081Y-80475892D01*
X51985573Y-80340396D01*
X51900322Y-80300644D01*
X51868004Y-80265377D01*
X51870091Y-80217587D01*
X51900322Y-80187356D01*
X51985573Y-80147603D01*
X52179081Y-80012107D01*
X52346107Y-79845081D01*
X52481601Y-79651575D01*
X52581431Y-79437489D01*
X52581432Y-79437487D01*
X52638636Y-79224001D01*
X52638636Y-79224000D01*
X51741686Y-79224000D01*
X51767493Y-79183844D01*
X51808000Y-79045889D01*
X51808000Y-78974000D01*
X52792417Y-78974000D01*
X52812699Y-79179930D01*
X52812700Y-79179935D01*
X52872766Y-79377949D01*
X52872768Y-79377954D01*
X52970311Y-79560444D01*
X52970319Y-79560455D01*
X53101588Y-79720408D01*
X53101591Y-79720411D01*
X53144193Y-79755373D01*
X53261550Y-79851685D01*
X53261553Y-79851686D01*
X53261555Y-79851688D01*
X53336912Y-79891967D01*
X53444046Y-79949232D01*
X53642066Y-80009300D01*
X53796516Y-80024512D01*
X53847999Y-80029583D01*
X53847999Y-80029582D01*
X53848000Y-80029583D01*
X54053934Y-80009300D01*
X54251121Y-79949484D01*
X54298722Y-79954173D01*
X54313454Y-79965099D01*
X54589338Y-80240983D01*
X54597463Y-80250987D01*
X54606760Y-80265217D01*
X54606761Y-80265218D01*
X54609566Y-80267401D01*
X54635966Y-80287949D01*
X54638854Y-80290499D01*
X54642954Y-80294599D01*
X54661772Y-80308034D01*
X54677973Y-80320644D01*
X54704645Y-80341405D01*
X54704647Y-80341406D01*
X54704651Y-80341409D01*
X54704654Y-80341410D01*
X54709204Y-80343872D01*
X54709169Y-80343935D01*
X54713815Y-80346326D01*
X54713847Y-80346263D01*
X54718495Y-80348535D01*
X54718497Y-80348535D01*
X54718499Y-80348537D01*
X54770569Y-80364039D01*
X54821976Y-80381687D01*
X54821979Y-80381687D01*
X54827086Y-80382540D01*
X54827074Y-80382609D01*
X54832246Y-80383363D01*
X54832255Y-80383292D01*
X54837386Y-80383932D01*
X54837388Y-80383931D01*
X54837389Y-80383932D01*
X54891671Y-80381687D01*
X88092971Y-80381687D01*
X88105796Y-80383016D01*
X88122427Y-80386504D01*
X88122428Y-80386503D01*
X88122429Y-80386504D01*
X88147625Y-80383363D01*
X88159147Y-80381926D01*
X88163014Y-80381687D01*
X88168791Y-80381687D01*
X88168797Y-80381687D01*
X88191609Y-80377880D01*
X88245523Y-80371160D01*
X88245531Y-80371155D01*
X88250489Y-80369681D01*
X88250509Y-80369751D01*
X88255476Y-80368159D01*
X88255453Y-80368091D01*
X88260345Y-80366410D01*
X88260355Y-80366409D01*
X88308143Y-80340547D01*
X88356965Y-80316680D01*
X88356969Y-80316675D01*
X88361180Y-80313670D01*
X88361222Y-80313730D01*
X88365407Y-80310610D01*
X88365362Y-80310552D01*
X88369449Y-80307370D01*
X88369448Y-80307370D01*
X88369451Y-80307369D01*
X88406243Y-80267401D01*
X88688545Y-79985098D01*
X88732738Y-79966793D01*
X88750872Y-79969482D01*
X88948066Y-80029300D01*
X89154000Y-80049583D01*
X89359934Y-80029300D01*
X89557954Y-79969232D01*
X89740450Y-79871685D01*
X89900410Y-79740410D01*
X90031685Y-79580450D01*
X90129232Y-79397954D01*
X90189300Y-79199934D01*
X90209583Y-78994000D01*
X90189300Y-78788066D01*
X90129232Y-78590046D01*
X90031685Y-78407550D01*
X89900410Y-78247590D01*
X89882176Y-78232626D01*
X89740455Y-78116319D01*
X89740453Y-78116318D01*
X89740450Y-78116315D01*
X89740448Y-78116313D01*
X89740444Y-78116311D01*
X89557954Y-78018768D01*
X89557949Y-78018766D01*
X89359935Y-77958700D01*
X89359930Y-77958699D01*
X89154000Y-77938417D01*
X88948069Y-77958699D01*
X88948064Y-77958700D01*
X88750050Y-78018766D01*
X88750045Y-78018768D01*
X88567555Y-78116311D01*
X88567544Y-78116319D01*
X88407591Y-78247588D01*
X88407588Y-78247591D01*
X88276319Y-78407544D01*
X88276311Y-78407555D01*
X88178768Y-78590045D01*
X88178766Y-78590050D01*
X88118700Y-78788064D01*
X88118699Y-78788069D01*
X88098417Y-78993999D01*
X88098417Y-78994000D01*
X88118699Y-79199930D01*
X88118700Y-79199935D01*
X88178514Y-79397118D01*
X88173825Y-79444723D01*
X88162899Y-79459454D01*
X88002348Y-79620007D01*
X87958154Y-79638313D01*
X55063846Y-79638313D01*
X55019652Y-79620007D01*
X54839099Y-79439454D01*
X54820793Y-79395260D01*
X54823482Y-79377129D01*
X54883300Y-79179934D01*
X54903583Y-78974000D01*
X54883300Y-78768066D01*
X54823232Y-78570046D01*
X54736378Y-78407555D01*
X54725688Y-78387555D01*
X54725686Y-78387553D01*
X54725685Y-78387550D01*
X54610824Y-78247591D01*
X54594411Y-78227591D01*
X54594408Y-78227588D01*
X54434455Y-78096319D01*
X54434453Y-78096318D01*
X54434450Y-78096315D01*
X54434448Y-78096313D01*
X54434444Y-78096311D01*
X54251954Y-77998768D01*
X54251949Y-77998766D01*
X54053935Y-77938700D01*
X54053930Y-77938699D01*
X53848000Y-77918417D01*
X53642069Y-77938699D01*
X53642064Y-77938700D01*
X53444050Y-77998766D01*
X53444045Y-77998768D01*
X53261555Y-78096311D01*
X53261544Y-78096319D01*
X53101591Y-78227588D01*
X53101588Y-78227591D01*
X52970319Y-78387544D01*
X52970311Y-78387555D01*
X52872768Y-78570045D01*
X52872766Y-78570050D01*
X52812700Y-78768064D01*
X52812699Y-78768069D01*
X52792417Y-78973999D01*
X52792417Y-78974000D01*
X51808000Y-78974000D01*
X51808000Y-78902111D01*
X51767493Y-78764156D01*
X51741686Y-78724000D01*
X52638636Y-78724000D01*
X52638636Y-78723998D01*
X52581432Y-78510512D01*
X52581431Y-78510510D01*
X52481600Y-78296422D01*
X52346109Y-78102920D01*
X52179081Y-77935892D01*
X51985573Y-77800396D01*
X51900322Y-77760644D01*
X51868004Y-77725377D01*
X51870091Y-77677587D01*
X51900322Y-77647356D01*
X51985573Y-77607603D01*
X52179081Y-77472107D01*
X52346107Y-77305081D01*
X52481601Y-77111575D01*
X52581431Y-76897489D01*
X52581432Y-76897487D01*
X52638636Y-76684001D01*
X52638636Y-76684000D01*
X51741686Y-76684000D01*
X51767493Y-76643844D01*
X51808000Y-76505889D01*
X51808000Y-76434000D01*
X52792417Y-76434000D01*
X52812699Y-76639930D01*
X52812700Y-76639935D01*
X52872766Y-76837949D01*
X52872768Y-76837954D01*
X52970311Y-77020444D01*
X52970319Y-77020455D01*
X53101588Y-77180408D01*
X53101591Y-77180411D01*
X53144193Y-77215373D01*
X53261550Y-77311685D01*
X53261553Y-77311686D01*
X53261555Y-77311688D01*
X53336912Y-77351967D01*
X53444046Y-77409232D01*
X53642066Y-77469300D01*
X53848000Y-77489583D01*
X54053934Y-77469300D01*
X54251121Y-77409484D01*
X54298722Y-77414173D01*
X54313454Y-77425099D01*
X55351338Y-78462983D01*
X55359463Y-78472987D01*
X55368760Y-78487217D01*
X55397966Y-78509949D01*
X55400854Y-78512499D01*
X55404954Y-78516599D01*
X55423772Y-78530034D01*
X55446810Y-78547966D01*
X55466645Y-78563405D01*
X55466647Y-78563406D01*
X55466651Y-78563409D01*
X55466654Y-78563410D01*
X55471204Y-78565872D01*
X55471169Y-78565935D01*
X55475815Y-78568326D01*
X55475847Y-78568263D01*
X55480495Y-78570535D01*
X55480497Y-78570535D01*
X55480499Y-78570537D01*
X55532569Y-78586039D01*
X55583976Y-78603687D01*
X55583979Y-78603687D01*
X55589086Y-78604540D01*
X55589074Y-78604609D01*
X55594246Y-78605363D01*
X55594255Y-78605292D01*
X55599386Y-78605932D01*
X55599388Y-78605931D01*
X55599389Y-78605932D01*
X55653671Y-78603687D01*
X87330971Y-78603687D01*
X87343796Y-78605016D01*
X87360427Y-78608504D01*
X87360428Y-78608503D01*
X87360429Y-78608504D01*
X87385625Y-78605363D01*
X87397147Y-78603926D01*
X87401014Y-78603687D01*
X87406791Y-78603687D01*
X87406797Y-78603687D01*
X87429609Y-78599880D01*
X87483523Y-78593160D01*
X87483531Y-78593155D01*
X87488489Y-78591681D01*
X87488509Y-78591751D01*
X87493476Y-78590159D01*
X87493453Y-78590091D01*
X87498345Y-78588410D01*
X87498355Y-78588409D01*
X87546143Y-78562547D01*
X87594965Y-78538680D01*
X87594969Y-78538675D01*
X87599180Y-78535670D01*
X87599222Y-78535730D01*
X87603407Y-78532610D01*
X87603362Y-78532552D01*
X87607449Y-78529370D01*
X87607448Y-78529370D01*
X87607451Y-78529369D01*
X87644244Y-78489400D01*
X88688543Y-77445099D01*
X88732736Y-77426794D01*
X88750878Y-77429485D01*
X88871416Y-77466049D01*
X88948066Y-77489300D01*
X89154000Y-77509583D01*
X89359934Y-77489300D01*
X89557954Y-77429232D01*
X89740450Y-77331685D01*
X89900410Y-77200410D01*
X90031685Y-77040450D01*
X90129232Y-76857954D01*
X90189300Y-76659934D01*
X90209583Y-76454000D01*
X90189300Y-76248066D01*
X90129232Y-76050046D01*
X90031685Y-75867550D01*
X89900410Y-75707590D01*
X89882176Y-75692626D01*
X89740455Y-75576319D01*
X89740453Y-75576318D01*
X89740450Y-75576315D01*
X89740448Y-75576313D01*
X89740444Y-75576311D01*
X89557954Y-75478768D01*
X89557949Y-75478766D01*
X89359935Y-75418700D01*
X89359930Y-75418699D01*
X89154000Y-75398417D01*
X88948069Y-75418699D01*
X88948064Y-75418700D01*
X88750050Y-75478766D01*
X88750045Y-75478768D01*
X88567555Y-75576311D01*
X88567544Y-75576319D01*
X88407591Y-75707588D01*
X88407588Y-75707591D01*
X88276319Y-75867544D01*
X88276311Y-75867555D01*
X88178768Y-76050045D01*
X88178766Y-76050050D01*
X88118700Y-76248064D01*
X88118699Y-76248069D01*
X88098417Y-76453999D01*
X88098417Y-76454000D01*
X88118699Y-76659930D01*
X88118700Y-76659935D01*
X88178514Y-76857118D01*
X88173825Y-76904723D01*
X88162899Y-76919454D01*
X87240348Y-77842007D01*
X87196154Y-77860313D01*
X85918772Y-77860313D01*
X85874578Y-77842007D01*
X85856272Y-77797813D01*
X85874578Y-77753619D01*
X85889310Y-77742693D01*
X85945444Y-77712688D01*
X85945442Y-77712688D01*
X85945450Y-77712685D01*
X86105410Y-77581410D01*
X86236685Y-77421450D01*
X86334232Y-77238954D01*
X86394300Y-77040934D01*
X86414583Y-76835000D01*
X86394300Y-76629066D01*
X86334232Y-76431046D01*
X86236685Y-76248550D01*
X86197622Y-76200951D01*
X86105411Y-76088591D01*
X86105408Y-76088588D01*
X85945455Y-75957319D01*
X85945453Y-75957318D01*
X85945450Y-75957315D01*
X85945448Y-75957313D01*
X85945444Y-75957311D01*
X85762954Y-75859768D01*
X85762949Y-75859766D01*
X85564935Y-75799700D01*
X85564930Y-75799699D01*
X85359000Y-75779417D01*
X85153069Y-75799699D01*
X85153064Y-75799700D01*
X84955050Y-75859766D01*
X84955045Y-75859768D01*
X84772555Y-75957311D01*
X84772544Y-75957319D01*
X84612591Y-76088588D01*
X84612588Y-76088591D01*
X84481319Y-76248544D01*
X84481311Y-76248555D01*
X84383768Y-76431045D01*
X84383766Y-76431050D01*
X84323700Y-76629064D01*
X84323699Y-76629069D01*
X84303417Y-76834999D01*
X84303417Y-76835000D01*
X84323699Y-77040930D01*
X84323700Y-77040935D01*
X84383766Y-77238949D01*
X84383768Y-77238954D01*
X84481311Y-77421444D01*
X84481319Y-77421455D01*
X84611122Y-77579622D01*
X84612590Y-77581410D01*
X84772550Y-77712685D01*
X84772553Y-77712686D01*
X84772555Y-77712688D01*
X84828690Y-77742693D01*
X84859037Y-77779670D01*
X84854348Y-77827275D01*
X84817371Y-77857622D01*
X84799228Y-77860313D01*
X83378772Y-77860313D01*
X83334578Y-77842007D01*
X83316272Y-77797813D01*
X83334578Y-77753619D01*
X83349310Y-77742693D01*
X83405444Y-77712688D01*
X83405442Y-77712688D01*
X83405450Y-77712685D01*
X83565410Y-77581410D01*
X83696685Y-77421450D01*
X83794232Y-77238954D01*
X83854300Y-77040934D01*
X83874583Y-76835000D01*
X83854300Y-76629066D01*
X83794232Y-76431046D01*
X83696685Y-76248550D01*
X83657622Y-76200951D01*
X83565411Y-76088591D01*
X83565408Y-76088588D01*
X83405455Y-75957319D01*
X83405453Y-75957318D01*
X83405450Y-75957315D01*
X83405448Y-75957313D01*
X83405444Y-75957311D01*
X83222954Y-75859768D01*
X83222949Y-75859766D01*
X83024935Y-75799700D01*
X83024930Y-75799699D01*
X82819000Y-75779417D01*
X82613069Y-75799699D01*
X82613064Y-75799700D01*
X82415050Y-75859766D01*
X82415045Y-75859768D01*
X82232555Y-75957311D01*
X82232544Y-75957319D01*
X82072591Y-76088588D01*
X82072588Y-76088591D01*
X81941319Y-76248544D01*
X81941311Y-76248555D01*
X81843768Y-76431045D01*
X81843766Y-76431050D01*
X81783700Y-76629064D01*
X81783699Y-76629069D01*
X81763417Y-76834999D01*
X81763417Y-76835000D01*
X81783699Y-77040930D01*
X81783700Y-77040935D01*
X81843766Y-77238949D01*
X81843768Y-77238954D01*
X81941311Y-77421444D01*
X81941319Y-77421455D01*
X82071122Y-77579622D01*
X82072590Y-77581410D01*
X82232550Y-77712685D01*
X82232553Y-77712686D01*
X82232555Y-77712688D01*
X82288690Y-77742693D01*
X82319037Y-77779670D01*
X82314348Y-77827275D01*
X82277371Y-77857622D01*
X82259228Y-77860313D01*
X81369928Y-77860313D01*
X81325734Y-77842007D01*
X81307428Y-77797813D01*
X81316117Y-77769170D01*
X81315511Y-77768919D01*
X81317867Y-77763230D01*
X81329500Y-77704748D01*
X81329500Y-75965252D01*
X81327920Y-75957311D01*
X81317867Y-75906769D01*
X81317866Y-75906767D01*
X81273552Y-75840447D01*
X81207232Y-75796133D01*
X81207230Y-75796132D01*
X81148748Y-75784500D01*
X79409252Y-75784500D01*
X79350769Y-75796132D01*
X79350767Y-75796133D01*
X79284447Y-75840447D01*
X79240133Y-75906767D01*
X79240132Y-75906769D01*
X79228500Y-75965251D01*
X79228500Y-77704748D01*
X79240132Y-77763230D01*
X79242489Y-77768919D01*
X79241295Y-77769413D01*
X79249372Y-77810002D01*
X79222799Y-77849778D01*
X79188072Y-77860313D01*
X77140772Y-77860313D01*
X77096578Y-77842007D01*
X77078272Y-77797813D01*
X77096578Y-77753619D01*
X77111310Y-77742693D01*
X77167444Y-77712688D01*
X77167442Y-77712688D01*
X77167450Y-77712685D01*
X77327410Y-77581410D01*
X77458685Y-77421450D01*
X77556232Y-77238954D01*
X77616300Y-77040934D01*
X77636583Y-76835000D01*
X77616300Y-76629066D01*
X77556232Y-76431046D01*
X77458685Y-76248550D01*
X77419622Y-76200951D01*
X77327411Y-76088591D01*
X77327408Y-76088588D01*
X77167455Y-75957319D01*
X77167453Y-75957318D01*
X77167450Y-75957315D01*
X77167448Y-75957313D01*
X77167444Y-75957311D01*
X76984954Y-75859768D01*
X76984949Y-75859766D01*
X76786935Y-75799700D01*
X76786930Y-75799699D01*
X76581000Y-75779417D01*
X76375069Y-75799699D01*
X76375064Y-75799700D01*
X76177050Y-75859766D01*
X76177045Y-75859768D01*
X75994555Y-75957311D01*
X75994544Y-75957319D01*
X75834591Y-76088588D01*
X75834588Y-76088591D01*
X75703319Y-76248544D01*
X75703311Y-76248555D01*
X75605768Y-76431045D01*
X75605766Y-76431050D01*
X75545700Y-76629064D01*
X75545699Y-76629069D01*
X75525417Y-76834999D01*
X75525417Y-76835000D01*
X75545699Y-77040930D01*
X75545700Y-77040935D01*
X75605766Y-77238949D01*
X75605768Y-77238954D01*
X75703311Y-77421444D01*
X75703319Y-77421455D01*
X75833122Y-77579622D01*
X75834590Y-77581410D01*
X75994550Y-77712685D01*
X75994553Y-77712686D01*
X75994555Y-77712688D01*
X76050690Y-77742693D01*
X76081037Y-77779670D01*
X76076348Y-77827275D01*
X76039371Y-77857622D01*
X76021228Y-77860313D01*
X74600772Y-77860313D01*
X74556578Y-77842007D01*
X74538272Y-77797813D01*
X74556578Y-77753619D01*
X74571310Y-77742693D01*
X74627444Y-77712688D01*
X74627442Y-77712688D01*
X74627450Y-77712685D01*
X74787410Y-77581410D01*
X74918685Y-77421450D01*
X75016232Y-77238954D01*
X75076300Y-77040934D01*
X75096583Y-76835000D01*
X75076300Y-76629066D01*
X75016232Y-76431046D01*
X74918685Y-76248550D01*
X74879622Y-76200951D01*
X74787411Y-76088591D01*
X74787408Y-76088588D01*
X74627455Y-75957319D01*
X74627453Y-75957318D01*
X74627450Y-75957315D01*
X74627448Y-75957313D01*
X74627444Y-75957311D01*
X74444954Y-75859768D01*
X74444949Y-75859766D01*
X74246935Y-75799700D01*
X74246930Y-75799699D01*
X74041000Y-75779417D01*
X73835069Y-75799699D01*
X73835064Y-75799700D01*
X73637050Y-75859766D01*
X73637045Y-75859768D01*
X73454555Y-75957311D01*
X73454544Y-75957319D01*
X73294591Y-76088588D01*
X73294588Y-76088591D01*
X73163319Y-76248544D01*
X73163311Y-76248555D01*
X73065768Y-76431045D01*
X73065766Y-76431050D01*
X73005700Y-76629064D01*
X73005699Y-76629069D01*
X72985417Y-76834999D01*
X72985417Y-76835000D01*
X73005699Y-77040930D01*
X73005700Y-77040935D01*
X73065766Y-77238949D01*
X73065768Y-77238954D01*
X73163311Y-77421444D01*
X73163319Y-77421455D01*
X73293122Y-77579622D01*
X73294590Y-77581410D01*
X73454550Y-77712685D01*
X73454553Y-77712686D01*
X73454555Y-77712688D01*
X73510690Y-77742693D01*
X73541037Y-77779670D01*
X73536348Y-77827275D01*
X73499371Y-77857622D01*
X73481228Y-77860313D01*
X72060772Y-77860313D01*
X72016578Y-77842007D01*
X71998272Y-77797813D01*
X72016578Y-77753619D01*
X72031310Y-77742693D01*
X72087444Y-77712688D01*
X72087442Y-77712688D01*
X72087450Y-77712685D01*
X72247410Y-77581410D01*
X72378685Y-77421450D01*
X72476232Y-77238954D01*
X72536300Y-77040934D01*
X72556583Y-76835000D01*
X72536300Y-76629066D01*
X72476232Y-76431046D01*
X72378685Y-76248550D01*
X72339622Y-76200951D01*
X72247411Y-76088591D01*
X72247408Y-76088588D01*
X72087455Y-75957319D01*
X72087453Y-75957318D01*
X72087450Y-75957315D01*
X72087448Y-75957313D01*
X72087444Y-75957311D01*
X71904954Y-75859768D01*
X71904949Y-75859766D01*
X71706935Y-75799700D01*
X71706930Y-75799699D01*
X71501000Y-75779417D01*
X71295069Y-75799699D01*
X71295064Y-75799700D01*
X71097050Y-75859766D01*
X71097045Y-75859768D01*
X70914555Y-75957311D01*
X70914544Y-75957319D01*
X70754591Y-76088588D01*
X70754588Y-76088591D01*
X70623319Y-76248544D01*
X70623311Y-76248555D01*
X70525768Y-76431045D01*
X70525766Y-76431050D01*
X70465700Y-76629064D01*
X70465699Y-76629069D01*
X70445417Y-76834999D01*
X70445417Y-76835000D01*
X70465699Y-77040930D01*
X70465700Y-77040935D01*
X70525766Y-77238949D01*
X70525768Y-77238954D01*
X70623311Y-77421444D01*
X70623319Y-77421455D01*
X70753122Y-77579622D01*
X70754590Y-77581410D01*
X70914550Y-77712685D01*
X70914553Y-77712686D01*
X70914555Y-77712688D01*
X70970690Y-77742693D01*
X71001037Y-77779670D01*
X70996348Y-77827275D01*
X70959371Y-77857622D01*
X70941228Y-77860313D01*
X70051928Y-77860313D01*
X70007734Y-77842007D01*
X69989428Y-77797813D01*
X69998117Y-77769170D01*
X69997511Y-77768919D01*
X69999867Y-77763230D01*
X70011500Y-77704748D01*
X70011500Y-75965252D01*
X70009920Y-75957311D01*
X69999867Y-75906769D01*
X69999866Y-75906767D01*
X69955552Y-75840447D01*
X69889232Y-75796133D01*
X69889230Y-75796132D01*
X69830748Y-75784500D01*
X68091252Y-75784500D01*
X68032769Y-75796132D01*
X68032767Y-75796133D01*
X67966447Y-75840447D01*
X67922133Y-75906767D01*
X67922132Y-75906769D01*
X67910500Y-75965251D01*
X67910500Y-77704748D01*
X67922132Y-77763230D01*
X67924489Y-77768919D01*
X67923295Y-77769413D01*
X67931372Y-77810002D01*
X67904799Y-77849778D01*
X67870072Y-77860313D01*
X55825846Y-77860313D01*
X55781652Y-77842007D01*
X54839099Y-76899454D01*
X54820793Y-76855260D01*
X54823482Y-76837129D01*
X54883300Y-76639934D01*
X54903583Y-76434000D01*
X54903292Y-76431050D01*
X54885318Y-76248555D01*
X54883300Y-76228066D01*
X54823232Y-76030046D01*
X54765967Y-75922912D01*
X54725688Y-75847555D01*
X54725686Y-75847553D01*
X54725685Y-75847550D01*
X54610824Y-75707591D01*
X54594411Y-75687591D01*
X54594408Y-75687588D01*
X54434455Y-75556319D01*
X54434453Y-75556318D01*
X54434450Y-75556315D01*
X54434448Y-75556313D01*
X54434444Y-75556311D01*
X54251954Y-75458768D01*
X54251949Y-75458766D01*
X54053935Y-75398700D01*
X54053930Y-75398699D01*
X53848000Y-75378417D01*
X53642069Y-75398699D01*
X53642064Y-75398700D01*
X53444050Y-75458766D01*
X53444045Y-75458768D01*
X53261555Y-75556311D01*
X53261544Y-75556319D01*
X53101591Y-75687588D01*
X53101588Y-75687591D01*
X52970319Y-75847544D01*
X52970311Y-75847555D01*
X52872768Y-76030045D01*
X52872766Y-76030050D01*
X52812700Y-76228064D01*
X52812699Y-76228069D01*
X52792417Y-76433999D01*
X52792417Y-76434000D01*
X51808000Y-76434000D01*
X51808000Y-76362111D01*
X51767493Y-76224156D01*
X51741686Y-76184000D01*
X52638636Y-76184000D01*
X52638636Y-76183998D01*
X52581432Y-75970512D01*
X52581431Y-75970510D01*
X52481600Y-75756422D01*
X52346109Y-75562920D01*
X52179081Y-75395892D01*
X51985573Y-75260396D01*
X51900322Y-75220644D01*
X51868004Y-75185377D01*
X51870091Y-75137587D01*
X51900322Y-75107356D01*
X51985573Y-75067603D01*
X52179081Y-74932107D01*
X52346107Y-74765081D01*
X52481601Y-74571575D01*
X52581431Y-74357489D01*
X52581432Y-74357487D01*
X52638636Y-74144001D01*
X52638636Y-74144000D01*
X51741686Y-74144000D01*
X51767493Y-74103844D01*
X51808000Y-73965889D01*
X51808000Y-73894000D01*
X52792417Y-73894000D01*
X52812699Y-74099930D01*
X52812700Y-74099935D01*
X52872766Y-74297949D01*
X52872768Y-74297954D01*
X52970311Y-74480444D01*
X52970319Y-74480455D01*
X53101588Y-74640408D01*
X53101591Y-74640411D01*
X53144193Y-74675373D01*
X53261550Y-74771685D01*
X53261553Y-74771686D01*
X53261555Y-74771688D01*
X53336912Y-74811967D01*
X53444046Y-74869232D01*
X53642066Y-74929300D01*
X53848000Y-74949583D01*
X54053934Y-74929300D01*
X54251121Y-74869484D01*
X54298722Y-74874173D01*
X54313454Y-74885099D01*
X54589338Y-75160983D01*
X54597463Y-75170987D01*
X54606760Y-75185217D01*
X54606761Y-75185218D01*
X54609565Y-75187400D01*
X54635966Y-75207949D01*
X54638854Y-75210499D01*
X54642954Y-75214599D01*
X54661772Y-75228034D01*
X54677973Y-75240644D01*
X54704645Y-75261405D01*
X54704647Y-75261406D01*
X54704651Y-75261409D01*
X54704654Y-75261410D01*
X54709204Y-75263872D01*
X54709169Y-75263935D01*
X54713815Y-75266326D01*
X54713847Y-75266263D01*
X54718495Y-75268535D01*
X54718497Y-75268535D01*
X54718499Y-75268537D01*
X54770569Y-75284039D01*
X54821976Y-75301687D01*
X54821979Y-75301687D01*
X54827086Y-75302540D01*
X54827074Y-75302609D01*
X54832246Y-75303363D01*
X54832255Y-75303292D01*
X54837386Y-75303932D01*
X54837388Y-75303931D01*
X54837389Y-75303932D01*
X54891671Y-75301687D01*
X79202971Y-75301687D01*
X79215796Y-75303016D01*
X79232427Y-75306504D01*
X79232428Y-75306503D01*
X79232429Y-75306504D01*
X79257625Y-75303363D01*
X79269147Y-75301926D01*
X79273014Y-75301687D01*
X79278791Y-75301687D01*
X79278797Y-75301687D01*
X79301609Y-75297880D01*
X79355523Y-75291160D01*
X79355531Y-75291155D01*
X79360489Y-75289681D01*
X79360509Y-75289751D01*
X79365476Y-75288159D01*
X79365453Y-75288091D01*
X79370345Y-75286410D01*
X79370355Y-75286409D01*
X79418143Y-75260547D01*
X79466965Y-75236680D01*
X79466969Y-75236675D01*
X79471180Y-75233670D01*
X79471222Y-75233730D01*
X79475407Y-75230610D01*
X79475362Y-75230552D01*
X79479449Y-75227370D01*
X79479448Y-75227370D01*
X79479451Y-75227369D01*
X79516244Y-75187400D01*
X81034650Y-73668993D01*
X81078845Y-73650687D01*
X84275154Y-73650687D01*
X84319348Y-73668993D01*
X84795336Y-74144980D01*
X84803461Y-74154984D01*
X84812760Y-74169217D01*
X84841970Y-74191952D01*
X84844858Y-74194502D01*
X84848955Y-74198599D01*
X84867767Y-74212031D01*
X84909866Y-74244798D01*
X84910651Y-74245409D01*
X84915203Y-74247872D01*
X84915168Y-74247935D01*
X84919813Y-74250326D01*
X84919845Y-74250263D01*
X84924496Y-74252537D01*
X84976582Y-74268043D01*
X85027975Y-74285687D01*
X85033085Y-74286540D01*
X85033073Y-74286609D01*
X85038246Y-74287363D01*
X85038255Y-74287292D01*
X85043386Y-74287932D01*
X85043388Y-74287931D01*
X85043389Y-74287932D01*
X85097671Y-74285687D01*
X88124060Y-74285687D01*
X88168254Y-74303993D01*
X88179180Y-74318725D01*
X88276311Y-74500444D01*
X88276319Y-74500455D01*
X88407588Y-74660408D01*
X88407591Y-74660411D01*
X88519951Y-74752622D01*
X88567550Y-74791685D01*
X88567553Y-74791686D01*
X88567555Y-74791688D01*
X88642912Y-74831967D01*
X88750046Y-74889232D01*
X88948066Y-74949300D01*
X89154000Y-74969583D01*
X89359934Y-74949300D01*
X89557954Y-74889232D01*
X89740450Y-74791685D01*
X89900410Y-74660410D01*
X90031685Y-74500450D01*
X90129232Y-74317954D01*
X90189300Y-74119934D01*
X90209583Y-73914000D01*
X90189300Y-73708066D01*
X90129232Y-73510046D01*
X90031685Y-73327550D01*
X89900410Y-73167590D01*
X89882176Y-73152626D01*
X89740455Y-73036319D01*
X89740453Y-73036318D01*
X89740450Y-73036315D01*
X89740448Y-73036313D01*
X89740444Y-73036311D01*
X89557954Y-72938768D01*
X89557949Y-72938766D01*
X89359935Y-72878700D01*
X89359930Y-72878699D01*
X89154000Y-72858417D01*
X88948069Y-72878699D01*
X88948064Y-72878700D01*
X88750050Y-72938766D01*
X88750045Y-72938768D01*
X88567555Y-73036311D01*
X88567544Y-73036319D01*
X88407591Y-73167588D01*
X88407588Y-73167591D01*
X88276319Y-73327544D01*
X88276311Y-73327555D01*
X88179180Y-73509275D01*
X88142203Y-73539622D01*
X88124060Y-73542313D01*
X85269846Y-73542313D01*
X85225652Y-73524007D01*
X84749661Y-73048016D01*
X84741531Y-73038005D01*
X84740424Y-73036311D01*
X84732240Y-73023783D01*
X84731131Y-73022920D01*
X84703037Y-73001053D01*
X84700139Y-72998494D01*
X84696046Y-72994401D01*
X84677227Y-72980965D01*
X84634349Y-72947591D01*
X84634348Y-72947590D01*
X84629793Y-72945125D01*
X84629826Y-72945062D01*
X84625185Y-72942673D01*
X84625154Y-72942738D01*
X84620495Y-72940460D01*
X84568430Y-72924960D01*
X84551986Y-72919315D01*
X84517024Y-72907313D01*
X84517023Y-72907313D01*
X84517020Y-72907312D01*
X84511914Y-72906460D01*
X84511925Y-72906390D01*
X84506753Y-72905636D01*
X84506745Y-72905708D01*
X84501613Y-72905067D01*
X84447329Y-72907313D01*
X80944030Y-72907313D01*
X80931204Y-72905983D01*
X80914573Y-72902496D01*
X80914571Y-72902495D01*
X80887397Y-72905883D01*
X80877848Y-72907073D01*
X80873986Y-72907313D01*
X80868203Y-72907313D01*
X80845402Y-72911117D01*
X80791481Y-72917838D01*
X80786521Y-72919315D01*
X80786501Y-72919248D01*
X80781515Y-72920845D01*
X80781538Y-72920911D01*
X80776644Y-72922590D01*
X80746755Y-72938766D01*
X80728860Y-72948450D01*
X80712828Y-72956287D01*
X80680035Y-72972319D01*
X80675820Y-72975329D01*
X80675780Y-72975273D01*
X80671588Y-72978399D01*
X80671631Y-72978454D01*
X80667548Y-72981631D01*
X80650765Y-72999863D01*
X80630756Y-73021598D01*
X79830244Y-73822111D01*
X79112348Y-74540007D01*
X79068154Y-74558313D01*
X55063846Y-74558313D01*
X55019652Y-74540007D01*
X54839099Y-74359454D01*
X54820793Y-74315260D01*
X54823482Y-74297129D01*
X54883300Y-74099934D01*
X54903583Y-73894000D01*
X54883300Y-73688066D01*
X54823232Y-73490046D01*
X54736378Y-73327555D01*
X54725688Y-73307555D01*
X54725686Y-73307553D01*
X54725685Y-73307550D01*
X54610824Y-73167591D01*
X54594411Y-73147591D01*
X54594408Y-73147588D01*
X54434455Y-73016319D01*
X54434453Y-73016318D01*
X54434450Y-73016315D01*
X54434448Y-73016313D01*
X54434444Y-73016311D01*
X54251954Y-72918768D01*
X54251949Y-72918766D01*
X54053935Y-72858700D01*
X54053930Y-72858699D01*
X53848000Y-72838417D01*
X53642069Y-72858699D01*
X53642064Y-72858700D01*
X53444050Y-72918766D01*
X53444045Y-72918768D01*
X53261555Y-73016311D01*
X53261544Y-73016319D01*
X53101591Y-73147588D01*
X53101588Y-73147591D01*
X52970319Y-73307544D01*
X52970311Y-73307555D01*
X52872768Y-73490045D01*
X52872766Y-73490050D01*
X52812700Y-73688064D01*
X52812699Y-73688069D01*
X52792417Y-73893999D01*
X52792417Y-73894000D01*
X51808000Y-73894000D01*
X51808000Y-73822111D01*
X51767493Y-73684156D01*
X51741686Y-73644000D01*
X52638636Y-73644000D01*
X52638636Y-73643998D01*
X52581432Y-73430512D01*
X52581431Y-73430510D01*
X52481600Y-73216422D01*
X52346109Y-73022920D01*
X52179081Y-72855892D01*
X51985575Y-72720398D01*
X51771489Y-72620568D01*
X51771487Y-72620567D01*
X51558001Y-72563363D01*
X51558000Y-72563364D01*
X51558000Y-73458498D01*
X51450315Y-73409320D01*
X51343763Y-73394000D01*
X51272237Y-73394000D01*
X51165685Y-73409320D01*
X51057999Y-73458498D01*
X51057999Y-72563364D01*
X51057997Y-72563363D01*
X50844512Y-72620567D01*
X50844510Y-72620568D01*
X50630422Y-72720399D01*
X50517347Y-72799574D01*
X50470645Y-72809927D01*
X50430302Y-72784225D01*
X50419000Y-72748380D01*
X50419000Y-72101338D01*
X50437306Y-72057144D01*
X50481500Y-72038838D01*
X50525694Y-72057144D01*
X50529800Y-72061673D01*
X50561590Y-72100410D01*
X50721550Y-72231685D01*
X50721553Y-72231686D01*
X50721555Y-72231688D01*
X50796912Y-72271967D01*
X50904046Y-72329232D01*
X51102066Y-72389300D01*
X51308000Y-72409583D01*
X51513934Y-72389300D01*
X51711954Y-72329232D01*
X51894450Y-72231685D01*
X51904121Y-72223748D01*
X52797500Y-72223748D01*
X52809132Y-72282230D01*
X52809133Y-72282232D01*
X52853447Y-72348552D01*
X52919767Y-72392866D01*
X52919769Y-72392867D01*
X52978252Y-72404500D01*
X54346967Y-72404500D01*
X54391161Y-72422806D01*
X54716338Y-72747983D01*
X54724463Y-72757987D01*
X54733760Y-72772217D01*
X54762966Y-72794949D01*
X54765854Y-72797499D01*
X54769954Y-72801599D01*
X54788772Y-72815034D01*
X54811810Y-72832966D01*
X54831645Y-72848405D01*
X54831647Y-72848406D01*
X54831651Y-72848409D01*
X54831654Y-72848410D01*
X54836204Y-72850872D01*
X54836169Y-72850935D01*
X54840815Y-72853326D01*
X54840847Y-72853263D01*
X54845495Y-72855535D01*
X54845497Y-72855535D01*
X54845499Y-72855537D01*
X54897569Y-72871039D01*
X54948976Y-72888687D01*
X54948979Y-72888687D01*
X54954086Y-72889540D01*
X54954074Y-72889609D01*
X54959239Y-72890362D01*
X54959248Y-72890292D01*
X54964384Y-72890932D01*
X54964388Y-72890931D01*
X54964389Y-72890932D01*
X55018660Y-72888687D01*
X70185971Y-72888687D01*
X70198796Y-72890016D01*
X70215427Y-72893504D01*
X70215428Y-72893503D01*
X70215429Y-72893504D01*
X70240633Y-72890362D01*
X70252147Y-72888926D01*
X70256014Y-72888687D01*
X70261791Y-72888687D01*
X70261797Y-72888687D01*
X70284609Y-72884880D01*
X70338523Y-72878160D01*
X70338531Y-72878155D01*
X70343489Y-72876681D01*
X70343509Y-72876751D01*
X70348476Y-72875159D01*
X70348453Y-72875091D01*
X70353345Y-72873410D01*
X70353355Y-72873409D01*
X70401143Y-72847547D01*
X70449965Y-72823680D01*
X70449969Y-72823675D01*
X70454180Y-72820670D01*
X70454222Y-72820730D01*
X70458407Y-72817610D01*
X70458362Y-72817552D01*
X70462449Y-72814370D01*
X70462448Y-72814370D01*
X70462451Y-72814369D01*
X70499243Y-72774401D01*
X71509651Y-71763993D01*
X71553846Y-71745687D01*
X88041000Y-71745687D01*
X88085194Y-71763993D01*
X88103500Y-71808187D01*
X88103500Y-72028262D01*
X88106353Y-72058696D01*
X88106354Y-72058701D01*
X88151207Y-72186882D01*
X88151207Y-72186883D01*
X88178415Y-72223748D01*
X88231850Y-72296150D01*
X88341118Y-72376793D01*
X88469301Y-72421646D01*
X88499734Y-72424500D01*
X88499738Y-72424500D01*
X89808262Y-72424500D01*
X89808266Y-72424500D01*
X89838699Y-72421646D01*
X89966882Y-72376793D01*
X90076150Y-72296150D01*
X90156793Y-72186882D01*
X90201646Y-72058699D01*
X90204500Y-72028266D01*
X90204500Y-71374000D01*
X90638417Y-71374000D01*
X90658699Y-71579930D01*
X90658700Y-71579935D01*
X90718766Y-71777949D01*
X90718768Y-71777954D01*
X90816311Y-71960444D01*
X90816319Y-71960455D01*
X90947588Y-72120408D01*
X90947591Y-72120411D01*
X91028587Y-72186882D01*
X91107550Y-72251685D01*
X91107553Y-72251686D01*
X91107555Y-72251688D01*
X91164695Y-72282230D01*
X91290046Y-72349232D01*
X91488066Y-72409300D01*
X91694000Y-72429583D01*
X91899934Y-72409300D01*
X92097954Y-72349232D01*
X92280450Y-72251685D01*
X92440410Y-72120410D01*
X92571685Y-71960450D01*
X92669232Y-71777954D01*
X92729300Y-71579934D01*
X92749583Y-71374000D01*
X92729300Y-71168066D01*
X92669232Y-70970046D01*
X92571685Y-70787550D01*
X92519149Y-70723534D01*
X92440411Y-70627591D01*
X92440408Y-70627588D01*
X92280455Y-70496319D01*
X92280453Y-70496318D01*
X92280450Y-70496315D01*
X92280448Y-70496313D01*
X92280444Y-70496311D01*
X92097954Y-70398768D01*
X92097949Y-70398766D01*
X91899935Y-70338700D01*
X91899930Y-70338699D01*
X91694000Y-70318417D01*
X91488069Y-70338699D01*
X91488064Y-70338700D01*
X91290050Y-70398766D01*
X91290045Y-70398768D01*
X91107555Y-70496311D01*
X91107544Y-70496319D01*
X90947591Y-70627588D01*
X90947588Y-70627591D01*
X90816319Y-70787544D01*
X90816311Y-70787555D01*
X90718768Y-70970045D01*
X90718766Y-70970050D01*
X90658700Y-71168064D01*
X90658699Y-71168069D01*
X90638417Y-71373999D01*
X90638417Y-71374000D01*
X90204500Y-71374000D01*
X90204500Y-70719734D01*
X90201646Y-70689301D01*
X90156793Y-70561118D01*
X90076150Y-70451850D01*
X89966882Y-70371207D01*
X89933274Y-70359447D01*
X89838701Y-70326354D01*
X89838696Y-70326353D01*
X89818699Y-70324478D01*
X89808266Y-70323500D01*
X88499734Y-70323500D01*
X88490124Y-70324401D01*
X88469303Y-70326353D01*
X88469298Y-70326354D01*
X88341117Y-70371207D01*
X88341116Y-70371207D01*
X88231850Y-70451850D01*
X88151207Y-70561116D01*
X88151207Y-70561117D01*
X88106354Y-70689298D01*
X88106353Y-70689303D01*
X88103500Y-70719737D01*
X88103500Y-70939813D01*
X88085194Y-70984007D01*
X88041000Y-71002313D01*
X71419029Y-71002313D01*
X71406203Y-71000983D01*
X71389573Y-70997496D01*
X71389570Y-70997495D01*
X71357558Y-71001486D01*
X71352852Y-71002073D01*
X71348986Y-71002313D01*
X71343203Y-71002313D01*
X71320390Y-71006119D01*
X71266477Y-71012840D01*
X71266473Y-71012841D01*
X71261515Y-71014318D01*
X71261495Y-71014251D01*
X71256516Y-71015845D01*
X71256539Y-71015911D01*
X71251642Y-71017591D01*
X71203856Y-71043452D01*
X71155035Y-71067319D01*
X71150820Y-71070329D01*
X71150780Y-71070273D01*
X71146588Y-71073399D01*
X71146631Y-71073454D01*
X71142547Y-71076632D01*
X71105755Y-71116598D01*
X70095348Y-72127007D01*
X70051154Y-72145313D01*
X55190846Y-72145313D01*
X55146652Y-72127007D01*
X54916806Y-71897161D01*
X54898500Y-71852967D01*
X54898500Y-70485002D01*
X56094723Y-70485002D01*
X56113792Y-70702973D01*
X56113795Y-70702989D01*
X56170423Y-70914326D01*
X56170424Y-70914328D01*
X56262897Y-71112638D01*
X56388402Y-71291878D01*
X56543121Y-71446597D01*
X56608330Y-71492256D01*
X56722361Y-71572102D01*
X56722360Y-71572102D01*
X56821515Y-71618338D01*
X56920670Y-71664575D01*
X56920672Y-71664575D01*
X56920673Y-71664576D01*
X57132010Y-71721204D01*
X57132016Y-71721205D01*
X57132023Y-71721207D01*
X57262809Y-71732648D01*
X57349998Y-71740277D01*
X57350000Y-71740277D01*
X57350002Y-71740277D01*
X57422659Y-71733920D01*
X57567977Y-71721207D01*
X57567986Y-71721204D01*
X57567989Y-71721204D01*
X57779326Y-71664576D01*
X57779325Y-71664576D01*
X57779330Y-71664575D01*
X57977639Y-71572102D01*
X58156877Y-71446598D01*
X58311598Y-71291877D01*
X58437102Y-71112639D01*
X58529575Y-70914330D01*
X58550975Y-70834465D01*
X58570530Y-70761485D01*
X58599650Y-70723534D01*
X58647076Y-70717291D01*
X58685027Y-70746411D01*
X58690341Y-70758348D01*
X58715072Y-70834465D01*
X58804886Y-70990027D01*
X58804885Y-70990027D01*
X58925077Y-71123514D01*
X58925077Y-71123515D01*
X59070390Y-71229091D01*
X59070396Y-71229095D01*
X59234490Y-71302154D01*
X59410188Y-71339500D01*
X59589812Y-71339500D01*
X59765510Y-71302154D01*
X59929604Y-71229095D01*
X60074922Y-71123515D01*
X60195113Y-70990029D01*
X60284925Y-70834471D01*
X60340431Y-70663639D01*
X60359207Y-70485000D01*
X60640793Y-70485000D01*
X60659569Y-70663641D01*
X60715072Y-70834465D01*
X60804886Y-70990027D01*
X60804885Y-70990027D01*
X60925077Y-71123514D01*
X60925077Y-71123515D01*
X61070390Y-71229091D01*
X61070396Y-71229095D01*
X61234490Y-71302154D01*
X61410188Y-71339500D01*
X61589812Y-71339500D01*
X61765510Y-71302154D01*
X61929604Y-71229095D01*
X62074922Y-71123515D01*
X62195113Y-70990029D01*
X62284925Y-70834471D01*
X62340431Y-70663639D01*
X62359207Y-70485000D01*
X62640793Y-70485000D01*
X62659569Y-70663641D01*
X62715072Y-70834465D01*
X62804886Y-70990027D01*
X62804885Y-70990027D01*
X62925077Y-71123514D01*
X62925077Y-71123515D01*
X63070390Y-71229091D01*
X63070396Y-71229095D01*
X63234490Y-71302154D01*
X63410188Y-71339500D01*
X63589812Y-71339500D01*
X63765510Y-71302154D01*
X63929604Y-71229095D01*
X64074922Y-71123515D01*
X64195113Y-70990029D01*
X64284925Y-70834471D01*
X64309658Y-70758346D01*
X64340724Y-70721974D01*
X64388412Y-70718220D01*
X64424786Y-70749286D01*
X64429469Y-70761484D01*
X64470424Y-70914328D01*
X64562897Y-71112638D01*
X64688402Y-71291878D01*
X64843121Y-71446597D01*
X64908330Y-71492256D01*
X65022361Y-71572102D01*
X65022360Y-71572102D01*
X65121515Y-71618338D01*
X65220670Y-71664575D01*
X65220672Y-71664575D01*
X65220673Y-71664576D01*
X65432010Y-71721204D01*
X65432016Y-71721205D01*
X65432023Y-71721207D01*
X65562809Y-71732648D01*
X65649998Y-71740277D01*
X65650000Y-71740277D01*
X65650002Y-71740277D01*
X65722659Y-71733920D01*
X65867977Y-71721207D01*
X65867986Y-71721204D01*
X65867989Y-71721204D01*
X66079326Y-71664576D01*
X66079325Y-71664576D01*
X66079330Y-71664575D01*
X66277639Y-71572102D01*
X66456877Y-71446598D01*
X66611598Y-71291877D01*
X66737102Y-71112639D01*
X66829575Y-70914330D01*
X66886207Y-70702977D01*
X66904287Y-70496315D01*
X66905277Y-70485002D01*
X66905277Y-70484997D01*
X66891398Y-70326354D01*
X66886207Y-70267023D01*
X66882371Y-70252708D01*
X66829576Y-70055673D01*
X66829575Y-70055671D01*
X66802615Y-69997856D01*
X66737102Y-69857362D01*
X66675526Y-69769422D01*
X66611597Y-69678121D01*
X66456878Y-69523402D01*
X66342846Y-69443556D01*
X66277639Y-69397898D01*
X66277637Y-69397897D01*
X66277639Y-69397897D01*
X66079328Y-69305424D01*
X66079326Y-69305423D01*
X65867989Y-69248795D01*
X65867973Y-69248792D01*
X65650002Y-69229723D01*
X65649998Y-69229723D01*
X65432026Y-69248792D01*
X65432010Y-69248795D01*
X65220673Y-69305423D01*
X65220671Y-69305424D01*
X65022362Y-69397897D01*
X64843121Y-69523402D01*
X64688402Y-69678121D01*
X64562897Y-69857362D01*
X64470424Y-70055671D01*
X64429469Y-70208515D01*
X64400349Y-70246465D01*
X64352922Y-70252708D01*
X64314972Y-70223588D01*
X64309658Y-70211652D01*
X64284925Y-70135529D01*
X64195113Y-69979971D01*
X64074922Y-69846485D01*
X64074922Y-69846484D01*
X63929609Y-69740908D01*
X63929606Y-69740906D01*
X63929604Y-69740905D01*
X63788593Y-69678123D01*
X63765513Y-69667847D01*
X63765510Y-69667846D01*
X63765508Y-69667845D01*
X63765506Y-69667845D01*
X63589812Y-69630500D01*
X63410188Y-69630500D01*
X63234493Y-69667845D01*
X63234478Y-69667850D01*
X63070398Y-69740904D01*
X63070392Y-69740907D01*
X62925078Y-69846484D01*
X62925072Y-69846490D01*
X62804886Y-69979972D01*
X62715072Y-70135534D01*
X62659569Y-70306358D01*
X62640793Y-70485000D01*
X62359207Y-70485000D01*
X62340431Y-70306361D01*
X62336931Y-70295591D01*
X62284927Y-70135534D01*
X62284926Y-70135532D01*
X62284925Y-70135529D01*
X62195113Y-69979971D01*
X62074922Y-69846485D01*
X62074922Y-69846484D01*
X61929609Y-69740908D01*
X61929606Y-69740906D01*
X61929604Y-69740905D01*
X61788593Y-69678123D01*
X61765513Y-69667847D01*
X61765510Y-69667846D01*
X61765508Y-69667845D01*
X61765506Y-69667845D01*
X61589812Y-69630500D01*
X61410188Y-69630500D01*
X61234493Y-69667845D01*
X61234478Y-69667850D01*
X61070398Y-69740904D01*
X61070392Y-69740907D01*
X60925078Y-69846484D01*
X60925072Y-69846490D01*
X60804886Y-69979972D01*
X60715072Y-70135534D01*
X60659569Y-70306358D01*
X60640793Y-70485000D01*
X60359207Y-70485000D01*
X60340431Y-70306361D01*
X60336931Y-70295591D01*
X60284927Y-70135534D01*
X60284926Y-70135532D01*
X60284925Y-70135529D01*
X60195113Y-69979971D01*
X60074922Y-69846485D01*
X60074922Y-69846484D01*
X59929609Y-69740908D01*
X59929606Y-69740906D01*
X59929604Y-69740905D01*
X59788593Y-69678123D01*
X59765513Y-69667847D01*
X59765510Y-69667846D01*
X59765508Y-69667845D01*
X59765506Y-69667845D01*
X59589812Y-69630500D01*
X59410188Y-69630500D01*
X59234493Y-69667845D01*
X59234478Y-69667850D01*
X59070398Y-69740904D01*
X59070392Y-69740907D01*
X58925078Y-69846484D01*
X58925072Y-69846490D01*
X58804886Y-69979972D01*
X58715073Y-70135533D01*
X58690341Y-70211652D01*
X58659274Y-70248026D01*
X58611586Y-70251779D01*
X58575212Y-70220712D01*
X58570530Y-70208514D01*
X58529576Y-70055673D01*
X58529575Y-70055671D01*
X58502615Y-69997856D01*
X58437102Y-69857362D01*
X58375526Y-69769422D01*
X58311597Y-69678121D01*
X58156878Y-69523402D01*
X58042846Y-69443556D01*
X57977639Y-69397898D01*
X57977637Y-69397897D01*
X57977639Y-69397897D01*
X57779328Y-69305424D01*
X57779326Y-69305423D01*
X57567989Y-69248795D01*
X57567973Y-69248792D01*
X57350002Y-69229723D01*
X57349998Y-69229723D01*
X57132026Y-69248792D01*
X57132010Y-69248795D01*
X56920673Y-69305423D01*
X56920671Y-69305424D01*
X56722362Y-69397897D01*
X56543121Y-69523402D01*
X56388402Y-69678121D01*
X56262897Y-69857362D01*
X56170424Y-70055671D01*
X56170423Y-70055673D01*
X56113795Y-70267010D01*
X56113792Y-70267026D01*
X56094723Y-70484997D01*
X56094723Y-70485002D01*
X54898500Y-70485002D01*
X54898500Y-70484251D01*
X54886867Y-70425769D01*
X54886866Y-70425767D01*
X54842552Y-70359447D01*
X54776232Y-70315133D01*
X54776230Y-70315132D01*
X54717748Y-70303500D01*
X52978252Y-70303500D01*
X52919769Y-70315132D01*
X52919767Y-70315133D01*
X52853447Y-70359447D01*
X52809133Y-70425767D01*
X52809132Y-70425769D01*
X52797500Y-70484251D01*
X52797500Y-72223748D01*
X51904121Y-72223748D01*
X52054410Y-72100410D01*
X52185685Y-71940450D01*
X52283232Y-71757954D01*
X52343300Y-71559934D01*
X52363583Y-71354000D01*
X52343300Y-71148066D01*
X52283232Y-70950046D01*
X52196378Y-70787555D01*
X52185688Y-70767555D01*
X52185686Y-70767553D01*
X52185685Y-70767550D01*
X52070824Y-70627591D01*
X52054411Y-70607591D01*
X52054408Y-70607588D01*
X51894455Y-70476319D01*
X51894453Y-70476318D01*
X51894450Y-70476315D01*
X51894448Y-70476313D01*
X51894444Y-70476311D01*
X51711954Y-70378768D01*
X51711949Y-70378766D01*
X51513935Y-70318700D01*
X51513930Y-70318699D01*
X51308000Y-70298417D01*
X51102069Y-70318699D01*
X51102064Y-70318700D01*
X50904050Y-70378766D01*
X50904045Y-70378768D01*
X50721555Y-70476311D01*
X50721544Y-70476319D01*
X50561592Y-70607587D01*
X50529813Y-70646311D01*
X50487626Y-70668860D01*
X50441850Y-70654974D01*
X50419301Y-70612787D01*
X50419000Y-70606661D01*
X50419000Y-70046859D01*
X50437306Y-70002665D01*
X54081165Y-66358806D01*
X54125359Y-66340500D01*
X56533000Y-66340500D01*
X56577194Y-66358806D01*
G37*
%TD.AperFunction*%
%TA.AperFunction,Conductor*%
G36*
X51557999Y-93778498D02*
G01*
X51450315Y-93729320D01*
X51343763Y-93714000D01*
X51272237Y-93714000D01*
X51165685Y-93729320D01*
X51058000Y-93778498D01*
X51058000Y-92109501D01*
X51165685Y-92158680D01*
X51272237Y-92174000D01*
X51343763Y-92174000D01*
X51450315Y-92158680D01*
X51557999Y-92109501D01*
X51557999Y-93778498D01*
G37*
%TD.AperFunction*%
%TA.AperFunction,Conductor*%
G36*
X51557999Y-91238498D02*
G01*
X51450315Y-91189320D01*
X51343763Y-91174000D01*
X51272237Y-91174000D01*
X51165685Y-91189320D01*
X51058000Y-91238498D01*
X51058000Y-89569501D01*
X51165685Y-89618680D01*
X51272237Y-89634000D01*
X51343763Y-89634000D01*
X51450315Y-89618680D01*
X51557999Y-89569501D01*
X51557999Y-91238498D01*
G37*
%TD.AperFunction*%
%TA.AperFunction,Conductor*%
G36*
X51557999Y-88698498D02*
G01*
X51450315Y-88649320D01*
X51343763Y-88634000D01*
X51272237Y-88634000D01*
X51165685Y-88649320D01*
X51058000Y-88698498D01*
X51058000Y-87029501D01*
X51165685Y-87078680D01*
X51272237Y-87094000D01*
X51343763Y-87094000D01*
X51450315Y-87078680D01*
X51557999Y-87029501D01*
X51557999Y-88698498D01*
G37*
%TD.AperFunction*%
%TA.AperFunction,Conductor*%
G36*
X51557999Y-86158498D02*
G01*
X51450315Y-86109320D01*
X51343763Y-86094000D01*
X51272237Y-86094000D01*
X51165685Y-86109320D01*
X51058000Y-86158498D01*
X51058000Y-84489501D01*
X51165685Y-84538680D01*
X51272237Y-84554000D01*
X51343763Y-84554000D01*
X51450315Y-84538680D01*
X51557999Y-84489501D01*
X51557999Y-86158498D01*
G37*
%TD.AperFunction*%
%TA.AperFunction,Conductor*%
G36*
X51557999Y-83618498D02*
G01*
X51450315Y-83569320D01*
X51343763Y-83554000D01*
X51272237Y-83554000D01*
X51165685Y-83569320D01*
X51058000Y-83618498D01*
X51058000Y-81949501D01*
X51165685Y-81998680D01*
X51272237Y-82014000D01*
X51343763Y-82014000D01*
X51450315Y-81998680D01*
X51557999Y-81949501D01*
X51557999Y-83618498D01*
G37*
%TD.AperFunction*%
%TA.AperFunction,Conductor*%
G36*
X51557999Y-81078498D02*
G01*
X51450315Y-81029320D01*
X51343763Y-81014000D01*
X51272237Y-81014000D01*
X51165685Y-81029320D01*
X51058000Y-81078498D01*
X51058000Y-79409501D01*
X51165685Y-79458680D01*
X51272237Y-79474000D01*
X51343763Y-79474000D01*
X51450315Y-79458680D01*
X51557999Y-79409501D01*
X51557999Y-81078498D01*
G37*
%TD.AperFunction*%
%TA.AperFunction,Conductor*%
G36*
X51557999Y-78538498D02*
G01*
X51450315Y-78489320D01*
X51343763Y-78474000D01*
X51272237Y-78474000D01*
X51165685Y-78489320D01*
X51058000Y-78538498D01*
X51058000Y-76869501D01*
X51165685Y-76918680D01*
X51272237Y-76934000D01*
X51343763Y-76934000D01*
X51450315Y-76918680D01*
X51557999Y-76869501D01*
X51557999Y-78538498D01*
G37*
%TD.AperFunction*%
%TA.AperFunction,Conductor*%
G36*
X51557999Y-75998498D02*
G01*
X51450315Y-75949320D01*
X51343763Y-75934000D01*
X51272237Y-75934000D01*
X51165685Y-75949320D01*
X51058000Y-75998498D01*
X51058000Y-74329501D01*
X51165685Y-74378680D01*
X51272237Y-74394000D01*
X51343763Y-74394000D01*
X51450315Y-74378680D01*
X51557999Y-74329501D01*
X51557999Y-75998498D01*
G37*
%TD.AperFunction*%
%TD*%
M02*
