M48
; DRILL file {KiCad 7.0.6} date Mon Feb  5 23:01:18 2024
; FORMAT={-:-/ absolute / inch / decimal}
; #@! TF.CreationDate,2024-02-05T23:01:18+08:00
; #@! TF.GenerationSoftware,Kicad,Pcbnew,7.0.6
; #@! TF.FileFunction,Plated,1,2,PTH
FMAT,2
INCH
; #@! TA.AperFunction,Plated,PTH,ViaDrill
T1C0.0157
; #@! TA.AperFunction,Plated,PTH,ComponentDrill
T2C0.0315
; #@! TA.AperFunction,Plated,PTH,ComponentDrill
T3C0.0394
; #@! TA.AperFunction,Plated,PTH,ComponentDrill
T4C0.0551
%
G90
G05
T1
X2.245Y-3.36
X2.255Y-3.26
X2.325Y-3.115
X2.54Y-3.65
X2.92Y-3.355
T2
X2.3425Y-2.775
X2.4213Y-2.775
X2.5Y-2.775
X2.76Y-3.57
X2.76Y-3.87
X2.86Y-3.57
X2.86Y-3.87
X2.96Y-3.57
X2.96Y-3.87
X3.06Y-3.57
X3.06Y-3.87
X3.16Y-3.57
X3.16Y-3.87
X3.26Y-3.57
X3.26Y-3.87
T3
X2.02Y-2.8092
X2.02Y-2.9092
X2.02Y-3.0092
X2.02Y-3.1092
X2.02Y-3.2092
X2.02Y-3.3092
X2.02Y-3.4092
X2.02Y-3.5092
X2.02Y-3.6092
X2.02Y-3.7092
X2.12Y-2.8092
X2.12Y-2.9092
X2.12Y-3.0092
X2.12Y-3.1092
X2.12Y-3.2092
X2.12Y-3.3092
X2.12Y-3.4092
X2.12Y-3.5092
X2.12Y-3.6092
X2.12Y-3.7092
X2.715Y-3.025
X2.815Y-3.025
X2.915Y-3.025
X3.015Y-3.025
X3.1606Y-3.025
X3.2606Y-3.025
X3.3606Y-3.025
X3.51Y-2.81
X3.51Y-2.91
X3.51Y-3.01
X3.51Y-3.11
X3.51Y-3.21
X3.51Y-3.31
X3.51Y-3.41
X3.51Y-3.51
X3.51Y-3.61
X3.51Y-3.71
X3.61Y-2.81
X3.61Y-2.91
X3.61Y-3.01
X3.61Y-3.11
X3.61Y-3.21
X3.61Y-3.31
X3.61Y-3.41
X3.61Y-3.51
X3.61Y-3.61
X3.61Y-3.71
T4
X2.2579Y-2.775
X2.5846Y-2.775
T0
M30
